<?xml version="1.0" encoding="utf-8"?>
<!-- Generator: Adobe Illustrator 16.0.0, SVG Export Plug-In . SVG Version: 6.00 Build 0)  -->
<!DOCTYPE svg PUBLIC "-//W3C//DTD SVG 1.1//EN" "http://www.w3.org/Graphics/SVG/1.1/DTD/svg11.dtd" [
	<!ENTITY ns_flows "http://ns.adobe.com/Flows/1.0/">
	<!ENTITY ns_extend "http://ns.adobe.com/Extensibility/1.0/">
	<!ENTITY ns_ai "http://ns.adobe.com/AdobeIllustrator/10.0/">
	<!ENTITY ns_graphs "http://ns.adobe.com/Graphs/1.0/">
]>
<svg version="1.1" id="Layer_1" xmlns:x="&ns_extend;" xmlns:i="&ns_ai;" xmlns:graph="&ns_graphs;"
	 xmlns="http://www.w3.org/2000/svg" xmlns:xlink="http://www.w3.org/1999/xlink" xmlns:a="http://ns.adobe.com/AdobeSVGViewerExtensions/3.0/"
	 x="0px" y="0px" width="293.736px" height="133.628px" viewBox="0 0 293.736 133.628" enable-background="new 0 0 293.736 133.628"
	 xml:space="preserve">
<g>
	<g>
		<path fill="none" stroke="#231F20" stroke-width="7.1724" stroke-linecap="round" stroke-miterlimit="1" d="M10.876,127.54
			c0,0,87.199-27.82,186.02-23.992c74.33,2.872,87.754,11.562,87.754,11.562"/>
	</g>
	<g>
		<path fill="none" stroke="#F395BE" stroke-width="5.977" stroke-linecap="round" stroke-miterlimit="1" d="M8.489,125.87
			c0,0,87.205-27.818,186.027-23.974c74.312,2.874,87.734,11.546,87.734,11.546"/>
	</g>
	<g>
		<g>
			<path fill="#231F20" d="M123.366,12.676c-0.344,0.107-0.687,0.188-0.999,0.277c-0.335,0.079-0.709,0.169-1.035,0.249
				l-2.138,0.553l-4.184,1.116c-1.348,0.428-2.713,0.829-4.109,1.231c-1.36,0.4-2.77,0.82-4.184,1.284
				c-2.73,0.865-5.474,1.758-8.187,2.668c-2.694,0.9-5.424,1.874-8.168,2.891c-2.743,1.017-5.42,2.07-8.057,3.194
				c-2.633,1.115-5.237,2.302-7.824,3.568c-1.272,0.679-2.575,1.312-3.811,1.99c-1.271,0.651-2.524,1.329-3.729,2.052
				c-1.115,0.651-2.311,1.393-3.577,2.195c-0.611,0.428-1.187,0.829-1.771,1.23c-0.531,0.402-1.098,0.803-1.664,1.223
				c-0.548,0.445-1.093,0.91-1.628,1.329c-0.53,0.402-1.017,0.893-1.49,1.4c-0.955,0.839-1.834,1.883-2.645,3.044
				c-0.821,1.159-1.371,2.284-1.683,3.336c-0.111,0.321-0.174,0.616-0.219,0.91c-0.062,0.321-0.107,0.616-0.174,0.848
				c-0.094,0.695-0.062,1.285,0.098,1.73c0.045,0.277,0.104,0.509,0.184,0.741c0.062,0.232,0.174,0.445,0.348,0.633
				c0.231,0.42,0.625,0.821,1.129,1.223c0.356,0.259,0.844,0.571,1.521,0.91c0.312,0.106,0.628,0.231,0.91,0.303
				c0.294,0.1,0.625,0.206,0.923,0.312c0.643,0.214,1.316,0.339,2.021,0.42c0.673,0.071,1.365,0.169,2.083,0.259
				c0.709,0.125,1.414,0.17,2.118,0.205c0.719,0.026,1.429,0.071,2.133,0.107h2.133c0.361,0,0.718-0.019,1.065-0.036
				c0.362-0.026,0.723-0.026,1.08-0.026c0.691,0,1.428-0.019,2.149-0.045c0.737-0.035,1.478-0.062,2.165-0.125l4.34-0.312
				l4.408-0.294l4.345-0.304l4.403-0.232c1.472-0.098,2.962-0.17,4.421-0.17c1.477-0.035,2.948,0,4.426,0.108
				c0.73,0,1.488,0,2.239,0.062c0.735,0.045,1.476,0.134,2.239,0.232c0.695,0.107,1.427,0.232,2.217,0.339
				c0.749,0.134,1.485,0.304,2.19,0.491c1.49,0.356,2.949,0.909,4.426,1.605c0.749,0.401,1.409,0.865,1.971,1.374
				c0.349,0.25,0.674,0.509,0.937,0.785c0.286,0.294,0.554,0.562,0.821,0.884c0.598,0.758,1.035,1.48,1.285,2.132
				c0.191,0.401,0.357,0.785,0.5,1.169c0.098,0.374,0.241,0.776,0.329,1.178c0.156,0.768,0.224,1.57,0.224,2.373v2.07
				c-0.049,0.081-0.067,0.169-0.067,0.276c-0.156,1.624-0.58,3.15-1.279,4.56c-0.317,0.723-0.679,1.4-1.085,2.078
				c-0.392,0.651-0.86,1.303-1.347,1.963c-0.474,0.59-0.959,1.187-1.459,1.731c-0.504,0.509-1.053,1.062-1.602,1.606
				c-1.062,1.078-2.194,2.069-3.422,2.979c-1.173,0.911-2.378,1.776-3.6,2.562c-1.254,0.848-2.512,1.605-3.797,2.391
				c-2.569,1.454-5.206,2.829-7.819,4.096c-2.637,1.268-5.318,2.472-8.062,3.578c-2.747,1.159-5.473,2.213-8.217,3.211
				c-1.423,0.482-2.806,0.99-4.185,1.482c-1.36,0.463-2.725,0.945-4.095,1.392l-4.185,1.374l-4.265,1.284
				c-1.379,0.402-2.757,0.829-4.14,1.213c-1.423,0.42-2.838,0.821-4.31,1.223c-2.854,0.848-5.644,1.625-8.449,2.284l-4.265,1.142
				c-0.691,0.143-1.396,0.312-2.119,0.482c-0.705,0.188-1.428,0.383-2.133,0.598l-8.529,1.963l-4.327,0.928l-3.194,0.679
				l-1.133,0.214c-0.718,0.169-1.348,0.036-1.914-0.34c-0.549-0.365-0.892-0.892-0.985-1.569c-0.138-0.696-0.05-1.329,0.316-1.874
				c0.344-0.57,0.879-0.938,1.598-1.08h0.143l1.066-0.151l1.062-0.231l2.137-0.295c0.701-0.17,1.424-0.294,2.128-0.419
				c0.691-0.107,1.409-0.241,2.118-0.339l8.61-1.678l4.247-0.9c0.719-0.17,1.428-0.322,2.128-0.474
				c0.728-0.161,1.428-0.33,2.138-0.526c1.427-0.312,2.822-0.633,4.232-0.973c1.379-0.312,2.788-0.633,4.216-1.034
				c1.41-0.339,2.823-0.679,4.216-1.035c1.383-0.357,2.806-0.741,4.22-1.143c0.723-0.187,1.41-0.401,2.102-0.615
				c0.688-0.206,1.379-0.42,2.083-0.606l4.108-1.205c2.793-0.865,5.537-1.775,8.245-2.712c2.716-0.945,5.447-1.945,8.203-2.998
				c2.614-1.079,5.3-2.222,7.98-3.426c1.316-0.606,2.605-1.223,3.873-1.856c1.266-0.659,2.543-1.311,3.791-2.052
				c1.285-0.695,2.494-1.437,3.668-2.222c1.15-0.776,2.324-1.605,3.515-2.471c0.535-0.402,1.084-0.848,1.615-1.312
				c0.53-0.445,1.08-0.928,1.633-1.436c0.499-0.465,1.017-0.91,1.44-1.438c0.469-0.508,0.941-1.034,1.379-1.605
				c0.424-0.554,0.798-1.098,1.146-1.695c0.344-0.606,0.673-1.178,0.981-1.794c0.271-0.615,0.464-1.23,0.646-1.819
				c0.175-0.616,0.326-1.268,0.406-1.963c0.062-0.062,0.08-0.151,0.08-0.231v-0.768c0.062-0.232,0.08-0.545,0.08-1.009l-0.223-1.882
				c-0.294-1.268-0.848-2.437-1.598-3.427c-0.739-0.973-1.758-1.775-2.962-2.454c-1.133-0.543-2.399-1.035-3.876-1.436
				c-1.173-0.357-2.552-0.59-4.122-0.759c-0.705-0.089-1.424-0.188-2.133-0.231c-0.687-0.045-1.409-0.062-2.114-0.062
				c-1.473-0.107-2.918-0.151-4.345-0.107c-1.424,0-2.869,0.062-4.328,0.17l-4.344,0.231l-4.324,0.384l-4.34,0.294l-4.327,0.402
				l-4.426,0.294c-0.405,0-0.799,0-1.142,0c-0.349,0-0.705,0.018-1.048,0.062h-2.289c-0.728,0.063-1.445,0.09-2.218,0.045
				c-0.749-0.026-1.521-0.062-2.288-0.107c-0.701-0.106-1.44-0.187-2.208-0.276c-0.754-0.062-1.539-0.214-2.334-0.42
				c-0.771-0.151-1.538-0.365-2.287-0.678c-0.871-0.357-1.634-0.758-2.294-1.223c-0.705-0.445-1.347-1.079-1.899-1.909
				c-0.607-0.839-1.005-1.713-1.143-2.552c-0.25-0.892-0.331-1.775-0.219-2.685c0-0.768,0.125-1.589,0.356-2.517
				c0.224-0.803,0.486-1.57,0.853-2.302c0.344-0.768,0.719-1.463,1.143-2.186c0.455-0.714,0.909-1.393,1.409-1.964
				c0.473-0.606,0.973-1.204,1.477-1.748c0.562-0.553,1.128-1.124,1.678-1.633c0.543-0.545,1.11-1.053,1.677-1.562
				c1.16-1.035,2.352-1.963,3.578-2.837c1.204-0.839,2.458-1.687,3.729-2.489c1.253-0.804,2.521-1.606,3.796-2.374
				c1.268-0.758,2.552-1.472,3.881-2.194c1.32-0.723,2.654-1.392,4.002-2.025c1.334-0.634,2.663-1.275,3.983-1.927
				c1.316-0.616,2.65-1.223,3.997-1.839c1.348-0.615,2.699-1.187,4.064-1.758c2.726-1.159,5.469-2.256,8.226-3.291
				c2.727-1.035,5.475-2.07,8.2-3.07c1.428-0.526,2.823-1.017,4.188-1.498c1.36-0.491,2.774-0.955,4.185-1.419
				c0.723-0.249,1.41-0.481,2.088-0.696c0.7-0.232,1.378-0.463,2.097-0.65l2.137-0.705l2.128-0.669
				c0.955-0.277,1.864-0.151,2.762,0.294c0.91,0.464,1.458,1.159,1.739,2.133c0.282,0.972,0.201,1.9-0.236,2.766
				c-0.473,0.909-1.191,1.48-2.208,1.739C123.477,12.649,123.428,12.676,123.366,12.676z"/>
		</g>
		<g>
			<path fill="#231F20" d="M131.756,48.124l5.482-0.91l1.134-3.426c0.2-0.715,0.486-1.482,0.83-2.393
				c0.111-0.355,0.235-0.775,0.388-1.204c0.143-0.374,0.304-0.803,0.455-1.204l0.91-2.347l0.99-2.444l0.673-1.293
				c0.049-0.152,0.188-0.384,0.375-0.68l0.25-0.463l0.365-0.446c0.062-0.062,0.094-0.098,0.094-0.169
				c0.045-0.036,0.121-0.081,0.219-0.144c0.045-0.152,0.205-0.321,0.455-0.446l0.451-0.312l0.758-0.303
				c0.102,0,0.17-0.018,0.246-0.036c0.049-0.026,0.16-0.026,0.379-0.026c0.094-0.062,0.174-0.08,0.219-0.062
				c0.049,0.026,0.137,0.062,0.232,0.062c0.365,0,0.678,0,0.908,0.062l0.91,0.446l0.754,0.695l0.455,0.679l0.232,0.526l0.143,0.768
				v1.222c-0.031,0.107-0.076,0.276-0.076,0.526l-0.219,0.848c-0.092,0.259-0.16,0.49-0.191,0.723
				c-0.014,0.231-0.092,0.438-0.182,0.634c-0.111,0.249-0.193,0.481-0.273,0.695c-0.076,0.188-0.156,0.402-0.262,0.616
				c-0.143,0.374-0.318,0.803-0.455,1.205c-0.143,0.419-0.318,0.82-0.531,1.222l-1.07,2.364l-1.049,2.267l-0.232,0.464
				l64.971-10.716c0.844-0.169,1.643,0.045,2.4,0.544c0.719,0.553,1.174,1.249,1.316,2.098c0.133,0.865-0.049,1.668-0.566,2.409
				c-0.518,0.739-1.236,1.159-2.088,1.311h-0.152l-67.955,8.396c-0.232,0.544-0.518,1.069-0.83,1.534
				c-0.298,0.509-0.58,0.999-0.83,1.508c-0.156,0.401-0.299,0.775-0.428,1.143c-0.121,0.329-0.246,0.713-0.325,1.133
				c-0.567,1.57-1.104,3.132-1.599,4.675c-0.517,1.562-1.003,3.132-1.521,4.755c-0.567,1.562-1.084,3.149-1.553,4.738
				c-0.504,1.562-0.959,3.123-1.414,4.666c-0.264,0.848-0.486,1.633-0.731,2.436c-0.241,0.785-0.473,1.562-0.727,2.365l-1.268,4.817
				l-0.611,2.347c-0.111,0.401-0.205,0.803-0.281,1.23c-0.079,0.402-0.174,0.804-0.268,1.223c-0.2,0.803-0.392,1.589-0.566,2.391
				c-0.188,0.804-0.344,1.589-0.504,2.409c-0.151,0.804-0.276,1.606-0.438,2.409c-0.089,0.821-0.218,1.624-0.325,2.437
				c-0.049,0.393-0.08,0.803-0.111,1.177c-0.032,0.384-0.032,0.785-0.032,1.188c-0.093,0.4-0.093,0.775,0,1.142
				c0,0.508,0.014,0.865,0.076,1.053c0,0.276,0.019,0.446,0.067,0.554c0,0.08,0.031,0.143,0.062,0.169
				c0.014,0.036,0.014,0.08,0.014,0.125l0.098,0.062c0.135,0,0.232,0,0.276-0.062c0.312-0.045,0.616-0.214,0.928-0.464
				c0.255-0.188,0.531-0.429,0.83-0.633c0.316-0.232,0.58-0.465,0.835-0.723c0.312-0.277,0.593-0.545,0.874-0.839
				c0.28-0.304,0.553-0.616,0.799-0.91c0.972-1.231,1.962-2.517,2.966-3.891c0.468-0.66,0.91-1.338,1.379-2.007
				c0.455-0.705,0.91-1.401,1.365-2.097l2.524-4.247l1.267-2.159l1.164-2.115l4.621-8.814l2.133-4.497l1.084-2.284l0.973-2.266
				c0.156-0.375,0.406-0.606,0.764-0.759c0.348-0.107,0.709-0.08,1.07,0.062c0.812,0.339,1.035,0.955,0.691,1.82v0.08l-1.164,2.204
				l-1.125,2.283l-2.293,4.391c-0.754,1.48-1.516,2.962-2.32,4.442c-0.766,1.455-1.582,2.936-2.385,4.399l-1.236,2.212l-1.209,2.204
				l-2.583,4.247l-2.729,4.273c-0.518,0.714-1.018,1.392-1.49,2.088c-0.487,0.678-1.004,1.355-1.553,2.034
				c-0.231,0.34-0.531,0.651-0.843,0.973c-0.312,0.312-0.599,0.633-0.91,0.99c-0.71,0.723-1.396,1.268-2.057,1.73
				c-0.518,0.295-0.954,0.571-1.378,0.786l-0.83,0.214c-0.125,0-0.205,0.018-0.286,0.062c-0.049,0-0.151,0.036-0.249,0.036
				c-0.045,0-0.125,0-0.255,0c-0.121,0-0.264-0.036-0.356-0.099c-0.094,0-0.201-0.027-0.331-0.071
				c-0.124-0.036-0.249-0.098-0.343-0.143l-0.531-0.491c-0.365-0.295-0.566-0.57-0.616-0.803c-0.106-0.17-0.173-0.312-0.173-0.464
				c-0.04-0.143-0.09-0.277-0.121-0.375c-0.093-0.321-0.143-0.571-0.143-0.768c-0.125-0.249-0.173-0.481-0.173-0.669
				c0-0.214-0.019-0.446-0.081-0.679v-1.374c0-0.428,0-0.847,0-1.311c0-0.465,0.031-0.893,0.081-1.294l0.235-2.517
				c0.099-0.4,0.161-0.82,0.201-1.267c0-0.464,0.066-0.91,0.111-1.312l0.758-4.942l0.451-2.516l0.454-2.428
				c0.344-1.695,0.688-3.318,0.991-4.987c0.295-1.65,0.655-3.283,1.062-4.907c0.191-0.865,0.393-1.73,0.567-2.623
				c0.187-0.884,0.405-1.775,0.659-2.641c-0.316-0.09-0.548-0.188-0.691-0.295c-0.553-0.384-0.735-0.937-0.535-1.588v-0.08
				l0.91-2.284l0.455-1.204l0.468-1.143l1.897-4.568l0.834-2.052l0.312-0.99c0.099-0.446,0.224-0.91,0.331-1.329
				c0.124-0.447,0.284-0.866,0.424-1.339l-3.936,0.473c-0.469,0.099-0.86,0-1.195-0.304c-0.326-0.249-0.518-0.633-0.576-1.069
				c-0.093-0.411,0-0.786,0.268-1.125C130.986,48.436,131.351,48.23,131.756,48.124z M148.637,35.418h-0.094v0.08
				C148.543,35.463,148.594,35.418,148.637,35.418z"/>
		</g>
		<g>
			<path fill="#231F20" d="M158.139,67.146l-0.213,0.445l-0.242,0.402c-0.045,0.276-0.174,0.571-0.389,0.804
				c-0.08,0.339-0.203,0.633-0.328,0.927c-0.143,0.321-0.25,0.571-0.43,0.848l-0.668,1.731l-0.691,1.82
				c-0.393,1.187-0.816,2.364-1.223,3.55c-0.406,1.188-0.781,2.409-1.146,3.614l-0.893,3.569l-0.406,1.837l-0.279,1.821
				l-0.238,1.819v1.668c0,0.126,0.031,0.232,0.045,0.401c0.018,0.151,0.018,0.277,0.018,0.357c0.062,0.134,0.08,0.214,0.08,0.321
				c0,0.089,0.045,0.169,0.096,0.232h0.061c0.059,0,0.09,0,0.121-0.045c0.018-0.019,0.066-0.019,0.098-0.019l0.629-0.32
				c0.312-0.17,0.701-0.464,1.219-0.929l1.146-1.284c0.188-0.259,0.375-0.49,0.553-0.723c0.166-0.232,0.357-0.464,0.5-0.714
				c0.361-0.509,0.705-1.018,1.029-1.481c0.336-0.508,0.648-1.017,0.955-1.569l1.744-3.274c1.111-2.365,2.102-4.712,2.963-6.916
				c0.268-0.57,0.469-1.159,0.643-1.748c0.191-0.616,0.393-1.23,0.566-1.838c0.111-0.259,0.201-0.535,0.326-0.83
				c0.08-0.294,0.191-0.606,0.303-0.91l0.232-0.927v-0.063l0.143-0.356v-0.231c0.049-0.063,0.08-0.152,0.08-0.232
				c0.184-0.893,0.637-1.544,1.359-1.99c0.707-0.464,1.504-0.588,2.355-0.384c0.721,0.152,1.281,0.491,1.705,1.035
				c0.441,0.509,0.691,1.143,0.74,1.865l0.076,1.053c-0.066,0.044-0.076,0.107-0.076,0.151l-0.094,0.151l-0.062,0.376l-0.08,0.169
				h0.08l-0.143,0.294v0.17l-0.393,1.355l-0.223,1.374c-0.121,0.251-0.17,0.482-0.184,0.679c-0.049,0.205-0.066,0.438-0.129,0.679
				c-0.312,1.73-0.531,3.55-0.668,5.406c-0.062,0.464-0.082,0.91-0.082,1.373c0,0.447,0,0.893,0,1.294l0.139,1.223
				c0,0.232,0.031,0.446,0.08,0.589c0,0.232,0.033,0.34,0.076,0.401h0.08c0.191-0.124,0.504-0.312,0.91-0.633l0.91-0.91l0.844-0.973
				c0.143-0.169,0.303-0.34,0.406-0.509c0.143-0.16,0.271-0.374,0.445-0.544l0.812-1.08c0.111-0.214,0.219-0.401,0.344-0.571
				c0.143-0.169,0.281-0.356,0.422-0.57c0.256-0.401,0.488-0.803,0.723-1.16c0.232-0.401,0.488-0.803,0.736-1.204l0.68-1.205
				l0.686-1.168l1.361-2.49l1.227-2.436l1.223-2.597c0.076-0.187,0.174-0.4,0.254-0.588c0.062-0.214,0.166-0.429,0.264-0.616
				l0.236-0.678l0.295-0.615c0.16-0.465,0.455-0.759,0.879-0.946s0.848-0.214,1.234-0.045c0.416,0.152,0.729,0.446,0.916,0.865
				c0.201,0.429,0.25,0.866,0.088,1.268l-0.133,0.232l-2.748,5.014l-1.383,2.428l-1.361,2.515c-0.264,0.366-0.518,0.768-0.768,1.205
				l-0.691,1.23c-0.23,0.42-0.504,0.804-0.748,1.223c-0.256,0.402-0.504,0.804-0.756,1.205l-1.613,2.347
				c-0.236,0.428-0.518,0.829-0.83,1.204c-0.285,0.366-0.598,0.768-0.91,1.169L172,87.693l-0.611,0.509
				c-0.219,0.204-0.469,0.4-0.781,0.525l-0.893,0.465c-0.303,0.106-0.521,0.151-0.615,0.151h-0.844
				c-0.143-0.045-0.303-0.09-0.484-0.151c-0.174-0.019-0.316-0.107-0.41-0.232l-0.629-0.445c-0.156-0.206-0.25-0.375-0.344-0.545
				c-0.064-0.135-0.156-0.276-0.25-0.446c-0.201-0.401-0.33-0.723-0.381-0.909l-0.236-0.759c-0.039-0.26-0.07-0.535-0.105-0.785
				c-0.031-0.295-0.094-0.553-0.188-0.821c-0.111-0.49-0.174-0.999-0.193-1.48c-0.025-0.491-0.057-0.955-0.119-1.419l-2.119,3.507
				l-2.146,3.346c-0.709,1.079-1.471,2.132-2.289,3.211c-0.396,0.545-0.82,1.08-1.238,1.562c-0.441,0.464-0.93,0.973-1.49,1.481
				c-0.25,0.25-0.535,0.481-0.848,0.723c-0.281,0.231-0.629,0.438-0.986,0.634c-0.188,0.106-0.375,0.205-0.553,0.268
				c-0.184,0.089-0.357,0.169-0.576,0.276c-0.299,0.089-0.531,0.152-0.691,0.152c-0.094,0.043-0.213,0.08-0.375,0.08
				c-0.031,0-0.094,0.026-0.143,0.062h-0.629c-0.076,0-0.184-0.018-0.264-0.035c-0.062-0.026-0.16-0.026-0.262-0.026
				c-0.506-0.206-0.871-0.402-1.072-0.545c-0.299-0.196-0.516-0.428-0.691-0.678l-0.375-0.758c-0.08-0.277-0.172-0.474-0.217-0.661
				c-0.045-0.17-0.096-0.357-0.156-0.57l-0.143-1.143v-2.132l0.143-1.963l0.535-3.979l0.701-3.783l1.582-7.611l1.152-5.7
				l0.213-0.937l0.16-0.974c0.201-0.865,0.656-1.543,1.379-2.025c0.688-0.445,1.49-0.633,2.352-0.49
				c0.861,0.215,1.539,0.679,2.008,1.374c0.484,0.723,0.654,1.508,0.484,2.373L158.139,67.146z"/>
		</g>
		<g>
			<path fill="#231F20" d="M195.33,51.55c0.424-1.018,0.787-2.034,1.16-3.069c0.344-0.99,0.705-2.008,1.053-3.024l1.066-3.042
				c0.139-0.571,0.312-1.08,0.5-1.562c0.188-0.491,0.344-0.974,0.486-1.481c0.361-1.018,0.705-2.025,1.031-3.069
				c0.316-1.053,0.646-2.105,0.939-3.168l0.924-3.042l0.455-1.588v-0.08l0.385-1.312l0.062-0.125l0.088-0.17
				c0.287-0.847,0.854-1.463,1.633-1.82c0.781-0.356,1.615-0.356,2.48,0c0.875,0.294,1.459,0.848,1.816,1.588
				c0.361,0.76,0.406,1.562,0.15,2.364l-0.686,2.133l-0.674,2.204l-1.379,4.327c-0.393,1.481-0.83,2.944-1.285,4.381
				c-0.471,1.454-0.891,2.891-1.283,4.398c-0.879,2.873-1.713,5.764-2.525,8.682c-0.799,2.944-1.57,5.861-2.275,8.797
				c-0.406,1.454-0.785,2.936-1.146,4.398c-0.375,1.499-0.701,2.953-1.066,4.435c-0.705,3.007-1.316,5.942-1.834,8.878
				c-0.293,1.48-0.574,2.936-0.779,4.416c-0.232,1.481-0.455,2.943-0.646,4.426c-0.107,0.758-0.184,1.498-0.252,2.239
				c-0.043,0.74-0.061,1.453-0.061,2.149c-0.045,0.125-0.082,0.294-0.082,0.554l0.537-0.696c0.455-0.66,0.908-1.312,1.334-1.972
				c0.418-0.651,0.859-1.329,1.258-2.043c0.859-1.312,1.721-2.686,2.551-4.041c0.816-1.374,1.664-2.749,2.463-4.123l4.857-8.368
				l4.721-8.432c0.199-0.366,0.486-0.571,0.848-0.679c0.342-0.089,0.709-0.062,1.064,0.143c0.363,0.215,0.58,0.491,0.707,0.849
				c0.074,0.356,0.029,0.723-0.17,1.062c-0.76,1.409-1.521,2.828-2.281,4.22c-0.766,1.4-1.561,2.793-2.363,4.229
				c-0.816,1.418-1.615,2.837-2.396,4.229c-0.789,1.374-1.619,2.793-2.461,4.211c-0.822,1.41-1.652,2.812-2.494,4.186
				c-0.83,1.373-1.678,2.702-2.543,4.095c-0.424,0.696-0.83,1.4-1.285,2.052s-0.91,1.356-1.379,2.07
				c-0.236,0.339-0.504,0.695-0.709,1.018c-0.232,0.312-0.494,0.633-0.73,0.954c-0.455,0.651-0.973,1.329-1.527,1.98
				c-0.244,0.34-0.58,0.536-0.984,0.553c-0.406,0.019-0.768-0.062-1.062-0.32c-0.254-0.205-0.438-0.482-0.535-0.839
				c-0.111-0.401-0.174-0.829-0.236-1.213c-0.031-0.419-0.094-0.821-0.143-1.241c-0.059-0.4-0.09-0.803-0.09-1.204
				c-0.049-0.401-0.049-0.803-0.049-1.231c0-0.803,0-1.562,0-2.346c0-0.759,0.049-1.562,0.139-2.364
				c0.111-1.5,0.223-3.069,0.379-4.587c0.17-1.543,0.344-3.086,0.607-4.63c0.209-1.5,0.441-3.043,0.695-4.542
				c0.232-1.525,0.5-3.024,0.75-4.505c0.254-1.499,0.529-2.999,0.852-4.523c0.295-1.481,0.607-2.98,0.906-4.506
				c0-0.232,0.018-0.357,0.057-0.464c-0.244,0.401-0.455,0.848-0.619,1.293c-0.211,0.446-0.379,0.884-0.584,1.285
				c-0.91,1.989-1.848,3.953-2.82,5.897c-0.959,1.944-1.963,3.89-2.949,5.817l-1.615,2.891l-1.584,2.9
				c-0.547,0.91-1.164,1.837-1.738,2.766c-0.629,0.954-1.289,1.838-2.008,2.729l-1.129,1.268c-0.25,0.249-0.486,0.49-0.674,0.66
				c-0.223,0.188-0.436,0.356-0.691,0.571l-0.779,0.606l-0.818,0.446c-0.254,0.106-0.578,0.214-0.984,0.32l-0.629,0.144
				c-0.08,0-0.223-0.019-0.375-0.045c-0.143-0.019-0.254-0.019-0.375-0.019c-0.191-0.062-0.455-0.187-0.758-0.4
				c-0.156-0.107-0.281-0.215-0.344-0.295c-0.062-0.107-0.156-0.215-0.268-0.34c-0.107-0.124-0.201-0.339-0.299-0.633l-0.143-0.553
				c-0.062-0.25-0.104-0.571-0.104-0.99c0-0.464,0.041-0.786,0.104-0.973c0.035-1.079,0.24-2.178,0.598-3.363
				c0.098-0.545,0.254-1.099,0.41-1.651c0.188-0.5,0.348-1.053,0.498-1.623l1.148-3.105c0.406-1.018,0.816-2.034,1.234-3.069
				c0.441-0.99,0.91-2.007,1.428-3.042c0.236-0.491,0.486-0.99,0.711-1.481c0.23-0.464,0.484-0.946,0.717-1.454
				c0.254-0.571,0.535-1.106,0.848-1.588c0.316-0.464,0.625-0.955,0.893-1.481c0.174-0.231,0.33-0.482,0.469-0.714
				c0.16-0.232,0.348-0.464,0.535-0.723l1.146-1.526c0.264-0.249,0.5-0.481,0.75-0.713c0.254-0.232,0.566-0.464,0.922-0.723
				c0.211-0.098,0.396-0.232,0.617-0.357c0.188-0.107,0.404-0.232,0.672-0.339l0.85-0.205c0.092-0.045,0.279-0.089,0.535-0.089
				h0.449c0.688-0.062,1.316,0.125,1.852,0.525c0.566,0.402,0.924,0.955,1.205,1.606c0.691-1.838,1.408-3.648,2.137-5.469
				C193.996,55.271,194.672,53.432,195.33,51.55z M187.668,66.235h0.062c0.039,0,0.07-0.045,0.07-0.106c0.066,0,0.098,0,0.098-0.036
				h-0.168l-0.441,0.205l-0.551,0.295l-1.064,0.847l-0.975,1.062c-0.373,0.402-0.709,0.804-1.051,1.178
				c-0.312,0.402-0.639,0.768-0.941,1.188l-1.754,2.579c-0.549,0.927-1.084,1.837-1.584,2.765c-0.518,0.955-0.99,1.91-1.459,2.882
				c-0.23,0.438-0.473,0.91-0.672,1.393c-0.207,0.508-0.408,0.99-0.611,1.481c-0.207,0.525-0.377,1.017-0.52,1.498
				c-0.172,0.464-0.328,0.973-0.471,1.464l-0.389,1.534l-0.223,1.463v1.268l0.174,0.32h0.143l0.535-0.231l0.529-0.321l0.514-0.445
				c0.385-0.206,0.729-0.545,1.084-0.991c0.205-0.187,0.375-0.401,0.518-0.57c0.143-0.17,0.312-0.384,0.473-0.571l1.816-2.579
				c0.504-0.82,1.035-1.73,1.602-2.747l1.578-2.812c0.254-0.446,0.506-0.928,0.76-1.4c0.215-0.481,0.455-0.963,0.699-1.41
				c0.709-1.588,1.428-3.131,2.139-4.675c0.686-1.562,1.408-3.123,2.127-4.755c-0.201,0.089-0.389,0.187-0.576,0.231
				c-0.174,0.045-0.396,0.062-0.629,0.062C188.246,66.36,187.961,66.325,187.668,66.235z"/>
		</g>
		<g>
			<path fill="#231F20" d="M216.258,67.065c-0.09,0.143-0.17,0.294-0.184,0.464c-0.031,0.125-0.08,0.268-0.174,0.375l-0.33,0.893
				l-0.691,1.837l-1.266,3.658c-0.406,1.223-0.799,2.428-1.164,3.658c-0.344,1.205-0.67,2.444-0.982,3.693l-0.932,3.677
				c-0.09,0.678-0.184,1.294-0.277,1.908c-0.098,0.606-0.178,1.223-0.236,1.821l-0.156,1.453l0.215-0.231
				c0.414-0.464,0.838-0.928,1.227-1.392c0.424-0.509,0.83-1.017,1.221-1.588c0.408-0.509,0.822-1.018,1.18-1.526
				c0.391-0.481,0.766-1.008,1.172-1.517l2.289-3.132l2.293-3.104l4.484-6.389c0.703-1.053,1.422-2.132,2.131-3.185
				c0.688-1.08,1.428-2.159,2.133-3.284c0.25-0.4,0.594-0.633,1.004-0.713c0.455-0.09,0.861,0,1.268,0.276
				c0.41,0.232,0.66,0.571,0.783,1.035c0.082,0.42,0,0.839-0.236,1.24c0,0.045-0.031,0.071-0.047,0.071
				c-0.014,0-0.031,0.018-0.031,0.08c-0.832,0.99-1.594,2.025-2.365,3.068c-0.768,1.054-1.518,2.089-2.275,3.168l-4.576,6.236
				l-4.564,6.38l-2.289,3.113l-2.352,3.123l-0.686,0.848c-0.191,0.339-0.424,0.615-0.68,0.759c-0.043,0.106-0.172,0.259-0.373,0.445
				l-0.174,0.17l-0.201,0.152l-0.156,0.062l-0.08,0.107h-0.098l-0.059,0.035h-0.156c0,0.063-0.049,0.09-0.143,0.09h-0.219
				c-0.174,0.035-0.219,0.062-0.188,0.035c0.014-0.018,0-0.035-0.049-0.035h-0.156c-0.139,0-0.393-0.045-0.688-0.125
				c-0.143-0.071-0.285-0.134-0.393-0.169c-0.08-0.063-0.191-0.135-0.285-0.241c-0.312-0.295-0.535-0.59-0.705-0.901
				c-0.074-0.215-0.186-0.473-0.285-0.768c-0.09-0.295-0.17-0.509-0.17-0.606c-0.031-0.26-0.062-0.446-0.094-0.634
				c-0.031-0.196-0.045-0.384-0.045-0.616c-0.049-0.633-0.049-1.329,0-2.114c0-0.321,0.014-0.695,0.045-1.017
				c0.031-0.312,0.062-0.634,0.094-0.945c0-0.366,0.037-0.705,0.049-1.035c0.031-0.321,0.062-0.66,0.121-1.017l0.285-1.99l0.232-1.9
				l1.383-7.825l1.365-7.753c0.156-0.91,0.594-1.633,1.383-2.132c0.75-0.536,1.561-0.706,2.432-0.536
				c0.861,0.151,1.561,0.616,2.078,1.374c0.535,0.768,0.691,1.57,0.504,2.436C216.418,66.529,216.369,66.762,216.258,67.065z
				 M215.496,45.144l0.449-4.246c0.129-0.938,0.518-1.651,1.223-2.223c0.723-0.615,1.508-0.848,2.432-0.74
				c0.861,0.107,1.602,0.482,2.18,1.222c0.582,0.696,0.832,1.481,0.721,2.437c-0.113,0.374-0.201,0.713-0.312,0.973l-1.816,3.952
				c-0.305,0.678-0.789,1.115-1.459,1.329c-0.646,0.232-1.299,0.214-1.977-0.106c-0.504-0.25-0.893-0.606-1.164-1.054
				C215.496,46.224,215.396,45.715,215.496,45.144z"/>
		</g>
		<g>
			<path fill="#231F20" d="M239.166,76.95l0.455,0.536c0.191,0.231,0.344,0.339,0.441,0.356c0.205,0.126,0.357,0.17,0.469,0.17
				c0.203,0.107,0.424,0.107,0.691,0c0.088,0,0.33-0.044,0.748-0.17l0.83-0.356c0.16-0.152,0.441-0.321,0.852-0.536l0.768-0.669
				c1.053-0.909,2.057-1.989,2.949-3.22c0.406-0.545,0.812-1.143,1.217-1.731c0.412-0.616,0.818-1.249,1.229-1.9
				c0.393-0.678,0.785-1.312,1.127-1.99c0.377-0.651,0.691-1.347,0.986-2.052c0.225-0.401,0.535-0.696,0.959-0.865
				c0.438-0.17,0.875-0.17,1.33,0.045c0.406,0.188,0.691,0.508,0.879,0.99c0.174,0.446,0.174,0.865-0.031,1.275
				c0,0.063-0.027,0.08-0.027,0.125c-0.049,0.036-0.049,0.062-0.049,0.107c-0.865,1.303-1.713,2.613-2.525,3.952
				c-0.799,1.329-1.721,2.658-2.725,3.952c-0.473,0.607-0.973,1.24-1.494,1.874c-0.531,0.643-1.098,1.231-1.709,1.803l-0.986,0.803
				c-0.156,0.169-0.299,0.294-0.5,0.446c-0.174,0.106-0.365,0.231-0.547,0.312l-1.246,0.679c-0.295,0.231-0.75,0.401-1.348,0.554
				c-0.281,0.062-0.549,0.098-0.811,0.124c-0.273,0.019-0.566,0.019-0.861,0.019c-0.615-0.081-1.195-0.232-1.701-0.465
				c-0.498-0.125-0.904-0.339-1.203-0.589c-0.094,0.08-0.156,0.205-0.156,0.295c-0.656,1.437-1.348,2.703-2.053,3.801
				c-0.754,1.231-1.615,2.391-2.586,3.516c-0.232,0.267-0.52,0.499-0.799,0.802c-0.287,0.268-0.598,0.545-0.941,0.777
				c-0.316,0.258-0.643,0.49-1.004,0.705c-0.344,0.188-0.723,0.374-1.133,0.526c-0.451,0.204-0.893,0.312-1.316,0.374
				c-0.125,0.045-0.375,0.089-0.674,0.089h-0.688c-0.535,0-1.021-0.106-1.445-0.294c-0.236-0.134-0.486-0.214-0.703-0.321
				c-0.232-0.107-0.443-0.25-0.645-0.464c-0.203-0.188-0.387-0.402-0.578-0.571c-0.156-0.17-0.312-0.384-0.424-0.651l-0.6-1.187
				c-0.105-0.419-0.174-0.82-0.213-1.231c-0.08-0.419-0.125-0.802-0.174-1.222c0-0.401,0-0.785,0-1.142
				c0-0.357,0.049-0.741,0.094-1.143c0.049-0.419,0.08-0.776,0.139-1.098c0.049-0.321,0.123-0.678,0.223-1.034
				c0.111-0.696,0.232-1.419,0.42-2.07c0.178-0.696,0.379-1.401,0.582-2.114c0.246-0.661,0.488-1.312,0.719-1.99
				c0.225-0.634,0.457-1.312,0.723-1.963c0.264-0.634,0.504-1.312,0.799-1.945c0.268-0.633,0.598-1.294,0.941-1.927l0.469-0.929
				l0.518-0.972c0.209-0.312,0.393-0.616,0.518-0.91c0.178-0.312,0.379-0.615,0.646-0.91c0.201-0.374,0.393-0.696,0.594-0.99
				c0.205-0.321,0.42-0.615,0.674-0.928l0.703-0.91l0.916-0.848l0.969-0.91c0.328-0.188,0.736-0.464,1.318-0.82
				c0.531-0.322,1.125-0.491,1.736-0.526c0.24-0.045,0.629-0.107,1.146-0.107c0.25,0,0.455,0.062,0.611,0.107h0.299l0.062,0.08
				h0.156c0.861,0.124,1.535,0.571,2.021,1.267c0.486,0.723,0.646,1.499,0.486,2.374c0,0.062,0,0.08-0.031,0.08
				s-0.031,0.018-0.031,0.062l0.441,0.696c0.205,0.491,0.357,1,0.469,1.526c0.031,0.249,0.08,0.481,0.111,0.713
				c0.014,0.214,0.049,0.474,0.049,0.723c0.043,0.251,0.062,0.465,0.062,0.651c0,0.17,0,0.384,0,0.643l-0.223,2.364l-0.469,2.194
				c-0.098,0.367-0.201,0.696-0.281,1.035c-0.111,0.322-0.205,0.679-0.316,1.018c-0.107,0.321-0.188,0.615-0.268,0.91
				c-0.076,0.312-0.176,0.589-0.264,0.848L239.166,76.95z M233.066,66.833c-0.25,0.206-0.449,0.402-0.641,0.606
				c-0.17,0.215-0.395,0.429-0.639,0.678l-1.15,1.464c-0.107,0.143-0.207,0.294-0.246,0.42c-0.098,0.125-0.174,0.249-0.285,0.339
				l-0.535,0.821c-0.357,0.57-0.701,1.123-1.018,1.694c-0.33,0.545-0.625,1.098-0.879,1.668c-0.566,1.054-1.094,2.24-1.598,3.569
				l-0.609,1.82c-0.1,0.294-0.193,0.615-0.283,0.91c-0.061,0.294-0.125,0.616-0.172,0.928c-0.113,0.295-0.176,0.615-0.238,0.909
				c-0.043,0.296-0.094,0.59-0.156,0.911c-0.043,0.294-0.08,0.589-0.08,0.91c0,0.312,0,0.589,0,0.839
				c0,0.303,0.037,0.571,0.066,0.847c0,0.232,0.045,0.49,0.111,0.741c0.09,0.32,0.184,0.526,0.297,0.615l0.213,0.401
				c0.223,0.08,0.354,0.143,0.398,0.143l0.533,0.135h0.375c0.049,0,0.09,0,0.121-0.027c0.018-0.018,0.08-0.035,0.174-0.035
				c0.111,0,0.312-0.045,0.615-0.17c0.438-0.196,0.893-0.464,1.299-0.848l1.285-1.188c0.723-0.864,1.395-1.899,2.057-3.122
				c0.547-1.106,1.082-2.284,1.537-3.488c0.135-0.401,0.295-0.865,0.488-1.312c0.164-0.526,0.324-1.018,0.404-1.525
				c-0.08-0.402-0.191-0.776-0.312-1.205c-0.092-0.401-0.191-0.847-0.285-1.284c-0.111-0.429-0.174-0.849-0.23-1.275
				c-0.064-0.42-0.131-0.839-0.223-1.268c0-0.232,0-0.464-0.051-0.67c-0.031-0.195-0.031-0.4-0.031-0.614c0-0.232,0-0.447,0-0.635
				c0-0.169-0.031-0.384-0.074-0.633v-1.312c0.043-0.151,0.074-0.32,0.074-0.525c0-0.214,0-0.401,0-0.616L233.066,66.833z
				 M234.432,66.833h0.08l-0.08-0.071V66.833z"/>
		</g>
	</g>
	<g>
		<path fill="#F395BE" d="M123.053,2.951c-0.893-0.446-1.803-0.571-2.762-0.321l-2.149,0.678l-2.128,0.696
			c-0.71,0.214-1.397,0.428-2.088,0.66c-0.688,0.215-1.379,0.464-2.084,0.714c-1.427,0.446-2.819,0.937-4.185,1.418
			c-1.365,0.491-2.761,0.955-4.188,1.481c-2.744,1.018-5.469,2.025-8.213,3.087c-2.743,1.018-5.474,2.133-8.217,3.293
			c-1.379,0.553-2.713,1.142-4.06,1.739c-1.348,0.633-2.686,1.223-4.002,1.838c-1.316,0.651-2.646,1.285-3.979,1.945
			c-1.352,0.633-2.699,1.312-4.015,2.025c-1.316,0.695-2.601,1.437-3.872,2.204c-1.267,0.758-2.538,1.543-3.81,2.346
			c-1.267,0.804-2.508,1.642-3.717,2.517c-1.222,0.839-2.412,1.793-3.587,2.811c-0.548,0.509-1.114,1.035-1.663,1.561
			c-0.566,0.526-1.111,1.08-1.678,1.624c-0.5,0.571-1.004,1.169-1.49,1.758c-0.468,0.615-0.94,1.267-1.396,1.989
			c-0.406,0.714-0.804,1.41-1.146,2.15c-0.357,0.741-0.638,1.525-0.844,2.328c-0.249,0.91-0.375,1.758-0.375,2.517
			c-0.098,0.91-0.03,1.794,0.232,2.659c0.143,0.848,0.531,1.713,1.146,2.587c0.549,0.803,1.174,1.438,1.914,1.9
			c0.638,0.438,1.392,0.839,2.252,1.223c0.768,0.295,1.526,0.527,2.289,0.679c0.803,0.188,1.602,0.339,2.352,0.419
			c0.771,0.062,1.508,0.169,2.217,0.259c0.75,0.062,1.53,0.106,2.288,0.124c0.749,0.019,1.49,0.019,2.191-0.044h2.287
			c0.366-0.045,0.71-0.08,1.071-0.08c0.326,0,0.736,0,1.146,0l4.398-0.295l4.332-0.383l4.341-0.295l4.345-0.384l4.327-0.232
			c1.459-0.106,2.917-0.151,4.345-0.188c1.41-0.044,2.851,0,4.337,0.108c0.695,0,1.414,0.017,2.118,0.079
			c0.705,0.045,1.428,0.125,2.133,0.232c1.57,0.151,2.949,0.384,4.127,0.74c1.459,0.42,2.743,0.91,3.871,1.455
			c1.205,0.659,2.209,1.463,2.963,2.436c0.771,1.035,1.303,2.159,1.584,3.426l0.231,1.9c0,0.464-0.018,0.785-0.075,0.99v0.768
			c0,0.098-0.014,0.169-0.076,0.232c-0.099,0.695-0.223,1.373-0.411,1.962c-0.188,0.616-0.392,1.223-0.659,1.839
			c-0.295,0.588-0.63,1.204-0.986,1.774c-0.344,0.59-0.718,1.161-1.125,1.714c-0.459,0.554-0.932,1.097-1.387,1.588
			c-0.438,0.526-0.941,1.008-1.44,1.454c-0.545,0.509-1.111,1-1.629,1.437c-0.535,0.464-1.084,0.893-1.633,1.293
			c-1.173,0.866-2.337,1.687-3.493,2.473c-1.195,0.802-2.381,1.543-3.658,2.266c-1.267,0.714-2.551,1.374-3.791,2.008
			c-1.303,0.634-2.588,1.267-3.904,1.855c-2.681,1.222-5.344,2.364-7.976,3.426c-2.767,1.054-5.474,2.07-8.187,2.998
			c-2.712,0.955-5.46,1.865-8.249,2.704l-4.121,1.213c-0.691,0.205-1.396,0.42-2.075,0.634c-0.699,0.187-1.391,0.401-2.097,0.589
			c-1.427,0.401-2.819,0.785-4.232,1.142c-1.379,0.356-2.788,0.695-4.198,1.079c-1.428,0.357-2.842,0.696-4.225,1.009
			c-1.409,0.339-2.819,0.661-4.233,0.955c-0.718,0.188-1.428,0.4-2.128,0.526c-0.723,0.151-1.41,0.294-2.119,0.464l-4.265,0.937
			l-8.605,1.668c-0.705,0.081-1.409,0.206-2.132,0.339c-0.705,0.125-1.41,0.251-2.133,0.42l-2.119,0.276l-1.066,0.25l-1.074,0.152
			h-0.13c-0.723,0.143-1.258,0.508-1.615,1.053c-0.361,0.553-0.455,1.187-0.299,1.909c0.099,0.669,0.424,1.178,0.99,1.543
			c0.549,0.402,1.173,0.5,1.896,0.357l1.143-0.232l3.203-0.678l4.323-0.929l8.529-1.971c0.704-0.206,1.41-0.375,2.119-0.571
			c0.718-0.17,1.428-0.339,2.128-0.481l4.282-1.16c2.779-0.634,5.599-1.401,8.422-2.267c1.49-0.419,2.9-0.821,4.31-1.205
			c1.396-0.419,2.775-0.847,4.153-1.204l4.251-1.329l4.203-1.374c1.36-0.445,2.726-0.91,4.087-1.4
			c1.382-0.482,2.761-0.973,4.188-1.473c2.73-0.973,5.474-2.034,8.199-3.194c2.757-1.124,5.43-2.301,8.074-3.595
			c2.637-1.268,5.255-2.623,7.825-4.104c1.284-0.731,2.538-1.534,3.778-2.338c1.253-0.829,2.431-1.677,3.604-2.605
			c1.24-0.91,2.368-1.9,3.435-2.962c0.549-0.544,1.08-1.098,1.597-1.624c0.505-0.525,0.991-1.124,1.442-1.73
			c0.485-0.66,0.972-1.294,1.364-1.972c0.428-0.651,0.771-1.347,1.066-2.043c0.728-1.419,1.164-2.945,1.289-4.568
			c0-0.106,0.026-0.215,0.09-0.294v-2.08c0-0.803-0.09-1.605-0.215-2.364c-0.125-0.4-0.236-0.775-0.36-1.159
			c-0.126-0.401-0.3-0.758-0.5-1.16c-0.255-0.678-0.678-1.374-1.276-2.159c-0.276-0.294-0.531-0.589-0.812-0.865
			c-0.281-0.276-0.599-0.535-0.955-0.803c-0.535-0.509-1.209-0.973-1.963-1.356c-1.49-0.714-2.948-1.249-4.434-1.605
			c-0.692-0.215-1.441-0.357-2.2-0.482c-0.762-0.134-1.489-0.259-2.19-0.365c-0.771-0.107-1.507-0.17-2.257-0.206
			c-0.74-0.071-1.49-0.089-2.244-0.089c-1.477-0.107-2.936-0.143-4.403-0.107c-1.476,0.027-2.949,0.09-4.425,0.196l-4.407,0.206
			l-4.341,0.32l-4.403,0.295l-4.327,0.321c-0.728,0.035-1.445,0.08-2.181,0.099c-0.736,0.044-1.46,0.044-2.146,0.044
			c-0.379,0-0.728,0.018-1.085,0.018c-0.343,0.045-0.718,0.071-1.069,0.071h-2.129c-0.709-0.071-1.409-0.089-2.132-0.133
			c-0.705-0.019-1.414-0.081-2.114-0.188c-0.728-0.107-1.428-0.188-2.119-0.251c-0.674-0.106-1.334-0.231-2.004-0.428
			c-0.303-0.107-0.597-0.205-0.909-0.312c-0.304-0.09-0.611-0.215-0.91-0.295c-0.674-0.366-1.178-0.679-1.521-0.937
			c-0.5-0.402-0.879-0.804-1.146-1.204c-0.161-0.206-0.263-0.42-0.344-0.635c-0.062-0.231-0.124-0.481-0.191-0.713
			c-0.134-0.491-0.169-1.062-0.076-1.775c0.063-0.232,0.107-0.509,0.156-0.831c0.05-0.312,0.13-0.614,0.236-0.909
			c0.312-1.053,0.865-2.178,1.659-3.337c0.817-1.187,1.709-2.194,2.682-3.042c0.437-0.526,0.924-1,1.472-1.419
			c0.522-0.42,1.085-0.884,1.638-1.329c0.562-0.429,1.111-0.804,1.673-1.232c0.549-0.4,1.146-0.802,1.763-1.204
			c1.248-0.803,2.453-1.543,3.568-2.213c1.213-0.723,2.449-1.4,3.733-2.052c1.254-0.66,2.525-1.311,3.793-1.989
			c2.592-1.249,5.206-2.453,7.824-3.551c2.649-1.142,5.331-2.195,8.074-3.212c2.744-1.018,5.456-1.963,8.168-2.874
			c2.717-0.927,5.456-1.819,8.187-2.666c1.423-0.482,2.819-0.884,4.184-1.286c1.379-0.428,2.744-0.829,4.097-1.23l4.197-1.142
			l2.114-0.527c0.365-0.107,0.709-0.188,1.04-0.276c0.325-0.062,0.673-0.17,1.017-0.268c0.062,0,0.111-0.027,0.161-0.063
			c1.012-0.258,1.753-0.829,2.221-1.713c0.442-0.892,0.519-1.819,0.22-2.774C124.512,4.111,123.945,3.397,123.053,2.951z"/>
		<path fill="#F395BE" d="M215.74,44.715c0.66,0.304,1.32,0.322,1.994,0.107c0.643-0.232,1.146-0.65,1.441-1.33l1.834-3.969
			c0.08-0.232,0.191-0.571,0.285-0.974c0.119-0.91-0.143-1.739-0.723-2.436c-0.576-0.714-1.303-1.115-2.164-1.223
			c-0.924-0.089-1.727,0.144-2.414,0.741c-0.723,0.571-1.129,1.312-1.234,2.239l-0.461,4.246c-0.088,0.571-0.014,1.054,0.268,1.526
			C214.85,44.108,215.229,44.447,215.74,44.715z"/>
		<path fill="#F395BE" d="M253.904,62.516c-0.188-0.465-0.469-0.777-0.873-0.99c-0.457-0.215-0.898-0.215-1.334-0.045
			c-0.43,0.169-0.756,0.464-0.955,0.892c-0.303,0.669-0.629,1.374-0.99,2.044c-0.367,0.659-0.723,1.311-1.129,1.971
			c-0.41,0.652-0.816,1.312-1.223,1.9c-0.41,0.616-0.803,1.205-1.227,1.758c-0.91,1.204-1.896,2.284-2.949,3.186l-0.779,0.678
			c-0.408,0.215-0.676,0.402-0.832,0.554l-0.828,0.356c-0.424,0.125-0.66,0.151-0.773,0.151c-0.248,0.125-0.471,0.125-0.686,0
			c-0.094,0-0.254-0.026-0.455-0.151c-0.094-0.018-0.254-0.152-0.455-0.356l-0.455-0.554l-0.236-0.375
			c0.111-0.258,0.191-0.535,0.281-0.829c0.08-0.294,0.156-0.616,0.254-0.91c0.111-0.357,0.215-0.696,0.326-1.035
			c0.08-0.339,0.191-0.678,0.285-1.035l0.455-2.194l0.23-2.347c0-0.259,0-0.464,0-0.66c0-0.17-0.016-0.402-0.078-0.633
			c0-0.277-0.014-0.509-0.033-0.741c-0.025-0.232-0.07-0.464-0.119-0.714c-0.094-0.509-0.254-1.018-0.455-1.525l-0.455-0.696
			c0-0.045,0-0.062,0.045-0.062c0.014,0,0.031-0.027,0.031-0.089c0.143-0.839-0.018-1.624-0.486-2.347
			c-0.5-0.714-1.16-1.142-2.021-1.285h-0.156l-0.08-0.089h-0.295c-0.143-0.035-0.361-0.08-0.615-0.08
			c-0.486,0-0.875,0.045-1.143,0.08c-0.598,0.045-1.189,0.232-1.744,0.535c-0.561,0.356-0.984,0.651-1.297,0.839l-0.986,0.892
			l-0.91,0.866l-0.691,0.91c-0.25,0.294-0.473,0.588-0.674,0.91c-0.205,0.294-0.389,0.633-0.611,0.99
			c-0.25,0.294-0.455,0.588-0.625,0.91c-0.123,0.32-0.316,0.615-0.518,0.91l-0.365,0.678c-0.119,0.205-0.262,0.419-0.406,0.633
			c-0.688,1.035-1.41,2.115-2.113,3.168l-4.488,6.388l-2.271,3.123l-2.287,3.132c-0.406,0.509-0.812,1.017-1.197,1.525
			c-0.373,0.5-0.762,1.009-1.172,1.517c-0.406,0.571-0.803,1.054-1.209,1.562c-0.406,0.474-0.812,0.938-1.236,1.4l-0.223,0.232
			l0.16-1.463c0.045-0.589,0.143-1.205,0.223-1.812c0.104-0.615,0.184-1.23,0.295-1.909l0.91-3.631
			c0.326-1.268,0.66-2.517,0.986-3.739c0.373-1.231,0.75-2.436,1.164-3.658l1.299-3.658l0.674-1.819l0.316-0.91
			c0.088-0.106,0.152-0.205,0.168-0.375c0.045-0.151,0.107-0.303,0.207-0.473c0.111-0.294,0.156-0.5,0.156-0.669
			c0.188-0.848,0.018-1.678-0.5-2.436c-0.518-0.759-1.246-1.223-2.088-1.348c-0.879-0.151-1.678,0-2.432,0.5
			c-0.799,0.535-1.236,1.231-1.379,2.142l-0.719,4.032l-2.734,4.862l-4.84,8.396c-0.816,1.347-1.646,2.721-2.475,4.077
			c-0.832,1.392-1.684,2.73-2.545,4.033c-0.404,0.723-0.828,1.4-1.252,2.052c-0.438,0.678-0.879,1.329-1.348,1.989l-0.518,0.679
			c0-0.26,0.014-0.429,0.062-0.527c0-0.704,0.045-1.445,0.076-2.159c0.043-0.74,0.143-1.48,0.254-2.239
			c0.188-1.507,0.406-2.944,0.629-4.416c0.215-1.481,0.5-2.962,0.795-4.426c0.516-2.936,1.113-5.897,1.832-8.896
			c0.344-1.454,0.697-2.935,1.07-4.416c0.357-1.48,0.732-2.936,1.143-4.399c0.705-2.962,1.459-5.879,2.275-8.788
			c0.799-2.943,1.646-5.834,2.508-8.717c0.375-1.392,0.803-2.783,1.221-4.14l5.943-0.74h0.143c0.861-0.143,1.57-0.589,2.098-1.33
			c0.516-0.74,0.723-1.524,0.566-2.408c-0.152-0.848-0.607-1.525-1.316-2.07c-0.75-0.535-1.553-0.723-2.414-0.57l-3.029,0.509
			l0.754-2.348l0.66-2.203l0.705-2.114c0.25-0.821,0.193-1.606-0.16-2.364c-0.344-0.759-0.955-1.294-1.816-1.606
			c-0.877-0.357-1.689-0.357-2.494,0c-0.766,0.357-1.314,0.973-1.615,1.838l-0.092,0.169l-0.062,0.152l-0.393,1.267v0.081
			l-0.455,1.587l-0.924,3.043c-0.281,1.08-0.629,2.132-0.941,3.167c-0.045,0.171-0.094,0.322-0.156,0.465l-54.938,9.074l0.223-0.447
			l1.076-2.284l1.051-2.364c0.207-0.401,0.395-0.785,0.52-1.204c0.174-0.401,0.316-0.83,0.473-1.231
			c0.105-0.188,0.186-0.401,0.281-0.606c0.057-0.196,0.137-0.428,0.248-0.66c0.096-0.205,0.176-0.446,0.176-0.678
			c0.047-0.205,0.088-0.438,0.199-0.696l0.242-0.839c0-0.276,0.029-0.428,0.061-0.535v-1.223l-0.143-0.758l-0.24-0.554l-0.451-0.678
			l-0.754-0.695l-0.904-0.42c-0.273-0.062-0.566-0.089-0.91-0.089c-0.111,0-0.191-0.019-0.236-0.062
			c-0.049-0.019-0.125,0-0.219,0.062c-0.223,0-0.348,0.026-0.375,0.044c-0.08,0.018-0.143,0.045-0.254,0.045l-0.75,0.295
			l-0.455,0.294c-0.254,0.151-0.41,0.294-0.469,0.445c-0.098,0.063-0.16,0.126-0.191,0.17c-0.031,0.062-0.062,0.107-0.112,0.143
			l-0.374,0.446l-0.25,0.482c-0.174,0.276-0.316,0.508-0.361,0.678l-0.674,1.294l-1.004,2.427l-0.892,2.347
			c-0.175,0.428-0.317,0.829-0.473,1.23c-0.156,0.402-0.285,0.821-0.389,1.223c-0.349,0.865-0.616,1.65-0.834,2.347l-1.129,3.443
			l-5.487,0.893c-0.393,0.125-0.736,0.34-1.021,0.679c-0.264,0.312-0.362,0.668-0.264,1.07c0.045,0.463,0.236,0.83,0.58,1.106
			c0.325,0.294,0.704,0.375,1.173,0.268l3.935-0.438c-0.143,0.438-0.276,0.884-0.405,1.303c-0.126,0.446-0.255,0.892-0.344,1.339
			l-0.299,0.99l-0.83,2.052l-1.914,4.586l-0.455,1.124l-0.455,1.223l-0.909,2.257v0.107c-0.206,0.66-0.031,1.187,0.535,1.588
			c0.151,0.107,0.374,0.188,0.673,0.321c-0.249,0.838-0.454,1.73-0.642,2.596c-0.188,0.91-0.379,1.776-0.566,2.642
			c-0.407,1.633-0.772,3.239-1.066,4.907c-0.312,1.65-0.643,3.292-1.004,4.961l-0.455,2.453l-0.455,2.516l-0.749,4.926
			c-0.05,0.428-0.094,0.847-0.111,1.311c-0.032,0.446-0.095,0.894-0.206,1.268l-0.218,2.543c-0.045,0.401-0.076,0.821-0.076,1.284
			c0,0.447,0,0.893,0,1.294v1.374c0.062,0.25,0.076,0.464,0.076,0.67c0,0.214,0.049,0.428,0.16,0.704
			c0,0.188,0.04,0.438,0.138,0.758c0.062,0.081,0.094,0.215,0.126,0.357c0.018,0.169,0.098,0.321,0.191,0.465
			c0.04,0.258,0.25,0.535,0.593,0.829l0.531,0.464c0.111,0.062,0.223,0.107,0.344,0.143c0.13,0.045,0.254,0.09,0.348,0.09
			c0.106,0.062,0.232,0.08,0.344,0.08c0.13,0,0.223,0,0.268,0c0.106,0,0.204-0.018,0.249-0.036c0.081-0.026,0.18-0.044,0.282-0.044
			l0.834-0.232c0.424-0.215,0.86-0.464,1.383-0.758c0.651-0.447,1.329-1.045,2.048-1.74c0.303-0.375,0.598-0.695,0.892-0.991
			c0.335-0.32,0.615-0.633,0.853-0.998c0.562-0.651,1.08-1.348,1.565-2.008c0.486-0.695,0.973-1.392,1.49-2.114l2.708-4.248
			l2.605-4.264l1.209-2.204l1.24-2.195c0.799-1.48,1.598-2.935,2.381-4.416c0.02-0.026,0.051-0.062,0.064-0.107l-0.094,0.42
			l-0.693,3.782l-0.516,3.979l-0.156,1.963v2.132l0.156,1.143c0.031,0.215,0.08,0.384,0.143,0.554
			c0.045,0.188,0.125,0.401,0.223,0.678l0.389,0.741c0.143,0.249,0.373,0.481,0.672,0.695c0.207,0.151,0.564,0.312,1.066,0.526
			c0.111,0,0.191,0,0.268,0.018c0.076,0.045,0.17,0.045,0.268,0.045h0.611c0.051-0.045,0.107-0.062,0.152-0.062
			c0.143,0,0.285-0.018,0.383-0.062c0.17,0,0.389-0.062,0.688-0.151c0.205-0.125,0.389-0.188,0.562-0.295
			c0.174-0.062,0.361-0.143,0.566-0.25c0.361-0.214,0.688-0.428,1.004-0.659c0.295-0.206,0.576-0.465,0.848-0.715
			c0.531-0.508,1.035-0.989,1.473-1.481c0.424-0.49,0.848-0.99,1.236-1.561c0.814-1.079,1.57-2.141,2.287-3.194l2.137-3.337
			l2.129-3.532c0.049,0.464,0.098,0.954,0.111,1.436c0.031,0.464,0.094,0.974,0.205,1.481c0.09,0.25,0.156,0.526,0.188,0.803
			c0.014,0.277,0.045,0.554,0.094,0.785l0.232,0.759c0.08,0.214,0.174,0.526,0.396,0.928c0.088,0.151,0.17,0.294,0.262,0.464
			c0.064,0.151,0.176,0.321,0.332,0.535l0.611,0.437c0.111,0.108,0.236,0.197,0.404,0.232c0.211,0.045,0.365,0.09,0.506,0.151h0.828
			c0.111,0,0.334-0.062,0.631-0.151l0.891-0.437c0.316-0.17,0.549-0.339,0.771-0.554l0.625-0.526l0.771-0.865
			c-0.031,0.294-0.08,0.589-0.098,0.865c-0.045,0.188-0.094,0.526-0.094,0.973c0,0.42,0.049,0.74,0.094,1.008l0.143,0.536
			c0.107,0.294,0.201,0.526,0.312,0.668c0.098,0.108,0.191,0.197,0.264,0.322c0.066,0.089,0.191,0.17,0.334,0.294
			c0.312,0.188,0.562,0.339,0.768,0.384c0.111,0,0.236,0.019,0.375,0.045c0.143,0.018,0.285,0.018,0.375,0.018l0.609-0.125
			c0.41-0.134,0.742-0.215,1.01-0.321l0.83-0.464l0.768-0.589c0.236-0.214,0.471-0.4,0.672-0.598
			c0.223-0.144,0.438-0.374,0.691-0.634l1.143-1.284c0.691-0.865,1.369-1.775,1.977-2.704c0.598-0.954,1.209-1.864,1.744-2.793
			l1.598-2.898l1.602-2.873c1.004-1.927,2.006-3.872,2.949-5.817c0.98-1.963,1.908-3.907,2.818-5.916
			c0.219-0.4,0.393-0.803,0.574-1.266c0.176-0.465,0.398-0.884,0.631-1.312c-0.031,0.107-0.045,0.259-0.045,0.465
			c-0.299,1.525-0.629,3.042-0.93,4.522c-0.293,1.5-0.578,3.007-0.828,4.523c-0.254,1.481-0.518,2.98-0.754,4.479
			c-0.264,1.525-0.486,3.051-0.705,4.595c-0.254,1.498-0.438,3.042-0.598,4.604c-0.164,1.526-0.264,3.069-0.375,4.586
			c-0.107,0.803-0.156,1.589-0.156,2.364c0,0.768,0,1.544,0,2.355c0,0.419,0.014,0.803,0.049,1.223
			c0.014,0.401,0.045,0.785,0.107,1.223c0.049,0.401,0.111,0.803,0.143,1.205c0.068,0.4,0.125,0.829,0.232,1.203
			c0.098,0.366,0.285,0.661,0.535,0.849c0.295,0.258,0.66,0.356,1.066,0.339c0.41-0.019,0.736-0.215,0.99-0.554
			c0.549-0.669,1.053-1.329,1.521-2.008c0.25-0.294,0.486-0.606,0.736-0.928c0.205-0.339,0.455-0.678,0.691-1.017
			c0.467-0.732,0.922-1.41,1.379-2.088c0.455-0.633,0.877-1.312,1.297-2.035c0.865-1.374,1.709-2.747,2.543-4.095
			c0.848-1.4,1.678-2.793,2.477-4.185c0.859-1.436,1.695-2.837,2.477-4.229c0.359-0.633,0.734-1.294,1.102-1.927l-0.535,3.023
			l-0.225,1.9l-0.312,1.99c-0.043,0.339-0.094,0.696-0.125,1.017c-0.018,0.339-0.049,0.651-0.049,1.009
			c-0.012,0.321-0.062,0.643-0.088,0.973c0,0.321-0.051,0.678-0.051,1.044c-0.043,0.731-0.043,1.454,0,2.104
			c0,0.197,0.051,0.411,0.051,0.571c0.025,0.196,0.076,0.402,0.088,0.66c0,0.107,0.08,0.295,0.174,0.59
			c0.111,0.294,0.219,0.553,0.312,0.785c0.143,0.294,0.367,0.589,0.691,0.909c0.08,0.107,0.188,0.17,0.301,0.232
			c0.092,0.019,0.217,0.08,0.387,0.143c0.303,0.09,0.518,0.151,0.678,0.151h0.143c0.062,0,0.076,0,0.049,0.045
			c-0.018,0,0.027,0,0.184-0.045h0.223c0.107,0,0.152-0.017,0.152-0.08h0.16l0.062-0.071h0.08l0.08-0.08l0.166-0.062l0.191-0.17
			l0.17-0.169c0.223-0.188,0.334-0.339,0.379-0.429c0.25-0.16,0.486-0.419,0.688-0.775l0.691-0.831l2.369-3.122l2.287-3.104
			l4.547-6.406l0.299-0.401c-0.174,0.606-0.285,1.223-0.379,1.855c-0.09,0.357-0.184,0.696-0.219,1.017
			c-0.064,0.339-0.094,0.696-0.156,1.116c-0.049,0.41-0.062,0.784-0.062,1.142c0,0.339,0,0.723,0,1.143
			c0.014,0.4,0.076,0.803,0.143,1.204c0.045,0.401,0.111,0.83,0.219,1.231l0.625,1.204c0.08,0.276,0.24,0.482,0.404,0.651
			c0.193,0.17,0.365,0.366,0.586,0.554c0.188,0.214,0.387,0.384,0.629,0.481c0.23,0.106,0.484,0.196,0.717,0.294
			c0.43,0.196,0.898,0.304,1.441,0.304h0.709c0.281,0,0.537-0.044,0.66-0.062c0.424-0.062,0.861-0.196,1.316-0.384
			c0.393-0.151,0.768-0.32,1.125-0.526c0.365-0.214,0.691-0.445,0.99-0.705c0.357-0.249,0.674-0.526,0.973-0.802
			c0.268-0.269,0.531-0.527,0.785-0.777c0.959-1.124,1.818-2.302,2.582-3.532c0.709-1.098,1.396-2.365,2.057-3.784
			c0-0.08,0.062-0.214,0.139-0.294c0.316,0.25,0.723,0.446,1.209,0.589c0.518,0.215,1.084,0.366,1.689,0.464
			c0.305,0,0.6,0,0.879-0.035c0.287-0.027,0.535-0.062,0.805-0.107c0.605-0.17,1.064-0.321,1.363-0.526l1.219-0.705
			c0.191-0.08,0.393-0.205,0.566-0.339c0.193-0.124,0.33-0.268,0.504-0.42l0.986-0.82c0.598-0.57,1.178-1.168,1.709-1.803
			c0.518-0.633,1.018-1.267,1.49-1.882c0.986-1.285,1.914-2.614,2.725-3.926c0.805-1.329,1.65-2.642,2.512-3.979
			c0-0.036,0.014-0.062,0.045-0.08c0.018-0.044,0.035-0.081,0.035-0.125C254.078,63.407,254.078,62.961,253.904,62.516z
			 M147.371,32.394 M186.373,67.717c-0.686,1.543-1.408,3.104-2.129,4.693c-0.234,0.445-0.467,0.909-0.709,1.391
			c-0.23,0.491-0.484,0.955-0.73,1.401l-1.588,2.828c-0.559,1.017-1.094,1.927-1.594,2.748l-1.818,2.578
			c-0.156,0.196-0.318,0.384-0.469,0.571c-0.143,0.17-0.318,0.357-0.518,0.571c-0.367,0.464-0.711,0.785-1.07,0.999l-0.531,0.437
			l-0.555,0.296l-0.561-0.777l0.205-2.561c0.143-0.508,0.941-3.229,1.129-3.676c0.312-0.829,1.08-2.516,1.303-2.873l2.551-4.952
			c0,0,2.824-5.281,4.488-6.405c0,0,3.982-1.731,4.166-1.793c0.174-0.045,0.361-0.152,0.566-0.232
			C187.801,64.585,187.082,66.174,186.373,67.717z M192.096,54.066c-0.699,1.811-1.422,3.648-2.127,5.495
			c-0.268-0.678-0.643-1.204-1.209-1.614c-0.514-0.393-1.143-0.59-1.852-0.545h-0.455c-0.244,0-0.42,0.045-0.531,0.081l-0.828,0.231
			c-0.25,0.089-0.473,0.214-0.674,0.365c-0.205,0.107-0.41,0.206-0.611,0.312c-0.375,0.259-0.678,0.491-0.924,0.723
			c-0.24,0.232-0.504,0.481-0.771,0.74l-1.129,1.499c-0.205,0.295-0.375,0.51-0.531,0.741c-0.143,0.214-0.299,0.463-0.455,0.714
			c-0.299,0.509-0.615,0.999-0.91,1.48c-0.312,0.491-0.598,1.035-0.848,1.571c-0.236,0.499-0.486,0.99-0.703,1.472
			c-0.252,0.49-0.488,0.999-0.719,1.48c-0.518,1.035-0.99,2.035-1.414,3.043c-0.455,1.044-0.867,2.052-1.258,3.051l-0.531,1.455
			c-0.201,0.32-0.406,0.651-0.607,0.99c-0.16,0.196-0.303,0.384-0.424,0.571c-0.111,0.169-0.24,0.365-0.348,0.57l-0.83,1.062
			c-0.143,0.188-0.299,0.401-0.424,0.571c-0.129,0.17-0.271,0.312-0.406,0.481l-0.848,0.974l-0.922,0.927
			c-0.398,0.304-0.709,0.509-0.916,0.616h-0.057c-0.062-0.045-0.062-0.169-0.062-0.375c-0.068-0.151-0.1-0.365-0.1-0.615
			l-0.156-1.205c0-0.401,0-0.848,0-1.312c0-0.463,0.031-0.91,0.082-1.374c0.174-1.864,0.387-3.657,0.691-5.389
			c0.057-0.259,0.07-0.49,0.102-0.678c0.035-0.215,0.098-0.446,0.223-0.696l0.193-1.355l0.404-1.374v-0.17l0.139-0.295h-0.076
			l0.076-0.17l0.062-0.355l0.094-0.171c0-0.026,0.018-0.106,0.08-0.151l-0.08-1.053c-0.062-0.695-0.295-1.338-0.73-1.864
			c-0.43-0.526-1.004-0.865-1.713-1.009c-0.863-0.214-1.646-0.089-2.352,0.376c-0.705,0.445-1.16,1.097-1.379,1.972
			c0,0.098-0.018,0.187-0.066,0.231v0.232l-0.152,0.356v0.08l-0.236,0.937c-0.098,0.295-0.205,0.589-0.299,0.884
			c-0.107,0.321-0.219,0.589-0.316,0.848c-0.184,0.615-0.375,1.223-0.559,1.819c-0.174,0.607-0.396,1.205-0.646,1.749
			c-0.861,2.239-1.846,4.551-2.963,6.933l-1.738,3.257c-0.312,0.571-0.629,1.098-0.973,1.57c-0.326,0.482-0.66,0.973-1.021,1.473
			c-0.143,0.258-0.312,0.508-0.5,0.723c-0.174,0.249-0.375,0.481-0.566,0.74l-1.125,1.312c-0.516,0.437-0.928,0.74-1.209,0.884
			l-0.641,0.32c-0.033,0-0.082,0-0.082,0.019c-0.045,0.044-0.074,0.044-0.143,0.044h-0.062c-0.045-0.062-0.094-0.125-0.094-0.231
			c0-0.108-0.018-0.188-0.074-0.295c0-0.107,0-0.232-0.014-0.384c-0.02-0.152-0.051-0.276-0.051-0.356v-1.713l0.232-1.794
			l0.287-1.847l0.391-1.812l0.924-3.596c0.344-1.204,0.719-2.408,1.125-3.595c0.414-1.204,0.82-2.365,1.227-3.552l0.688-1.838
			l0.678-1.73c0.174-0.259,0.281-0.535,0.406-0.848c0.143-0.295,0.254-0.589,0.361-0.91c0.186-0.25,0.316-0.526,0.379-0.82
			l0.232-0.384l0.205-0.464l0.232-0.759c0.16-0.848-0.014-1.633-0.486-2.374c-0.469-0.695-1.139-1.142-2.008-1.347
			c-0.861-0.151-1.66,0.018-2.352,0.482c-0.719,0.49-1.188,1.142-1.361,2.007l-0.17,1l-0.24,0.9l-0.762,3.891l-1.746,3.657
			l-4.625,8.815l-1.156,2.132l-1.289,2.142l-2.507,4.247c-0.469,0.714-0.91,1.418-1.37,2.088c-0.469,0.705-0.923,1.374-1.391,2.034
			c-1,1.348-1.973,2.658-2.945,3.863c-0.254,0.321-0.518,0.616-0.803,0.937c-0.281,0.277-0.575,0.571-0.879,0.821
			c-0.249,0.259-0.531,0.491-0.83,0.723c-0.294,0.232-0.58,0.437-0.843,0.651c-0.304,0.259-0.616,0.401-0.91,0.464
			c-0.062,0.044-0.16,0.062-0.303,0.062l-0.076-0.062c0-0.062-0.019-0.107-0.026-0.125c-0.032-0.018-0.05-0.08-0.05-0.188
			c-0.062-0.107-0.08-0.276-0.08-0.535c-0.045-0.205-0.062-0.57-0.062-1.053c-0.111-0.356-0.111-0.74,0-1.143
			c0-0.419,0-0.82,0.031-1.187c0.031-0.375,0.05-0.775,0.111-1.178c0.107-0.829,0.232-1.633,0.325-2.453
			c0.144-0.803,0.282-1.606,0.424-2.409c0.161-0.803,0.331-1.606,0.519-2.409c0.174-0.785,0.36-1.588,0.566-2.391
			c0.08-0.401,0.169-0.804,0.249-1.223c0.095-0.401,0.175-0.83,0.286-1.204l0.606-2.374l1.271-4.8
			c0.25-0.803,0.518-1.605,0.754-2.382c0.219-0.785,0.451-1.588,0.705-2.391c0.455-1.588,0.928-3.149,1.414-4.711
			c0.486-1.589,1-3.15,1.548-4.738c0.53-1.606,1.017-3.194,1.521-4.738c0.518-1.562,1.053-3.122,1.602-4.692
			c0.102-0.401,0.2-0.776,0.343-1.142c0.125-0.357,0.246-0.715,0.406-1.115c0.268-0.526,0.535-1.018,0.848-1.5
			c0.299-0.463,0.58-1.017,0.834-1.569l54.921-6.764l-0.822,2.374c-0.355,1.008-0.719,2.007-1.074,3.042
			c-0.367,0.99-0.729,2.025-1.146,3.043C193.48,50.381,192.807,52.245,192.096,54.066z M232.895,74.97
			c-0.17,0.464-0.328,0.911-0.488,1.33c-0.455,1.204-0.971,2.391-1.516,3.462c-0.66,1.23-1.352,2.266-2.053,3.131l-1.285,1.231
			c-0.414,0.357-0.852,0.634-1.307,0.839c-0.295,0.09-0.518,0.151-0.607,0.151c-0.092,0-0.16,0.018-0.191,0.018
			c-0.031,0.045-0.062,0.045-0.111,0.045h-0.375l-0.549-0.151c-0.049,0-0.168-0.036-0.361-0.143l-0.25-0.384
			c-0.088-0.107-0.199-0.312-0.279-0.616c-0.064-0.249-0.096-0.526-0.131-0.758c-0.014-0.25-0.045-0.526-0.045-0.848
			c0-0.25,0-0.526,0-0.821c0-0.321,0.031-0.615,0.094-0.928c0.051-0.294,0.094-0.598,0.143-0.91c0.062-0.294,0.131-0.615,0.219-0.91
			c0.076-0.294,0.125-0.615,0.205-0.91c0.062-0.294,0.174-0.615,0.283-0.909l0.578-1.812c0.518-1.356,1.035-2.543,1.615-3.596
			c0.25-0.553,0.535-1.124,0.861-1.668c0.33-0.554,0.678-1.125,1.039-1.696l0.531-0.82c0.09-0.089,0.17-0.214,0.268-0.339
			c0.062-0.125,0.156-0.276,0.25-0.429l1.16-1.436c0.236-0.251,0.455-0.481,0.643-0.678c0.17-0.206,0.393-0.402,0.641-0.607
			l0.299-0.384c0,0.188,0,0.401,0,0.589c0,0.231-0.012,0.402-0.061,0.554v1.294c0.049,0.249,0.061,0.464,0.061,0.651
			c0,0.169,0,0.384,0,0.651c0,0.195,0,0.4,0.051,0.598c0.031,0.204,0.031,0.445,0.031,0.678c0.088,0.4,0.17,0.82,0.23,1.239
			c0.051,0.447,0.131,0.866,0.225,1.276c0.105,0.464,0.213,0.884,0.295,1.285c0.111,0.419,0.234,0.821,0.328,1.222
			C233.24,73.953,233.066,74.462,232.895,74.97z"/>
	</g>
</g>
</svg>
