<?xml version="1.0" encoding="utf-8"?>
<!-- Generator: Adobe Illustrator 16.0.0, SVG Export Plug-In . SVG Version: 6.00 Build 0)  -->
<!DOCTYPE svg PUBLIC "-//W3C//DTD SVG 1.1//EN" "http://www.w3.org/Graphics/SVG/1.1/DTD/svg11.dtd" [
	<!ENTITY ns_flows "http://ns.adobe.com/Flows/1.0/">
	<!ENTITY ns_extend "http://ns.adobe.com/Extensibility/1.0/">
	<!ENTITY ns_ai "http://ns.adobe.com/AdobeIllustrator/10.0/">
	<!ENTITY ns_graphs "http://ns.adobe.com/Graphs/1.0/">
]>
<svg version="1.1" id="Layer_1" xmlns:x="&ns_extend;" xmlns:i="&ns_ai;" xmlns:graph="&ns_graphs;"
	 xmlns="http://www.w3.org/2000/svg" xmlns:xlink="http://www.w3.org/1999/xlink" xmlns:a="http://ns.adobe.com/AdobeSVGViewerExtensions/3.0/"
	 x="0px" y="0px" width="201.79px" height="101.52px" viewBox="0 0 201.79 101.52" enable-background="new 0 0 201.79 101.52"
	 xml:space="preserve">
<g>
	<g>
		<path fill="none" stroke="#231F20" stroke-width="4.956" stroke-linecap="round" stroke-miterlimit="1" d="M6.927,92.721
			c0,0,60.253-19.225,128.536-16.578c51.361,1.984,60.637,7.988,60.637,7.988"/>
	</g>
	<g>
		<path fill="none" stroke="#F395BE" stroke-width="4.13" stroke-linecap="round" stroke-miterlimit="1" d="M5.277,91.566
			c0,0,60.257-19.223,128.541-16.566c51.35,1.986,60.623,7.979,60.623,7.979"/>
	</g>
	<g>
		<g>
			<path fill="#231F20" d="M84.655,13.352c-0.237,0.074-0.474,0.129-0.689,0.191c-0.232,0.055-0.49,0.115-0.716,0.172l-1.478,0.381
				l-2.891,0.771c-0.932,0.297-1.875,0.574-2.84,0.852c-0.939,0.277-1.914,0.566-2.891,0.887c-1.887,0.598-3.781,1.215-5.656,1.844
				c-1.862,0.623-3.748,1.295-5.644,1.998c-1.896,0.701-3.745,1.43-5.567,2.207c-1.819,0.77-3.619,1.59-5.406,2.465
				c-0.88,0.469-1.78,0.906-2.633,1.375c-0.879,0.451-1.745,0.92-2.578,1.418c-0.771,0.451-1.597,0.963-2.471,1.518
				c-0.423,0.295-0.82,0.572-1.225,0.85c-0.367,0.279-0.758,0.555-1.149,0.846c-0.379,0.307-0.756,0.629-1.126,0.918
				c-0.365,0.277-0.701,0.617-1.029,0.967c-0.66,0.58-1.268,1.303-1.827,2.104c-0.567,0.801-0.947,1.578-1.162,2.307
				c-0.077,0.221-0.12,0.426-0.151,0.629c-0.043,0.221-0.074,0.426-0.12,0.584c-0.064,0.48-0.043,0.889,0.067,1.197
				c0.031,0.191,0.071,0.352,0.127,0.512c0.043,0.16,0.12,0.307,0.24,0.438c0.159,0.289,0.432,0.566,0.78,0.844
				c0.245,0.18,0.583,0.395,1.051,0.629c0.216,0.074,0.434,0.16,0.629,0.209c0.203,0.07,0.433,0.143,0.638,0.217
				c0.443,0.148,0.909,0.234,1.396,0.291c0.466,0.049,0.943,0.115,1.44,0.178c0.489,0.086,0.977,0.117,1.463,0.143
				c0.496,0.018,0.987,0.049,1.474,0.074h1.474c0.249,0,0.496-0.014,0.736-0.025c0.25-0.018,0.5-0.018,0.747-0.018
				c0.478,0,0.986-0.014,1.484-0.031c0.51-0.025,1.021-0.043,1.496-0.088l2.999-0.215l3.046-0.203l3.002-0.211l3.043-0.16
				c1.017-0.066,2.046-0.117,3.054-0.117c1.021-0.023,2.038,0,3.059,0.074c0.505,0,1.028,0,1.548,0.043
				c0.508,0.031,1.019,0.094,1.547,0.16c0.48,0.074,0.986,0.162,1.531,0.234c0.519,0.094,1.027,0.211,1.515,0.34
				c1.029,0.246,2.038,0.629,3.058,1.109c0.518,0.277,0.974,0.598,1.362,0.949c0.24,0.174,0.466,0.352,0.646,0.543
				c0.198,0.203,0.383,0.389,0.568,0.611c0.413,0.523,0.715,1.021,0.888,1.473c0.132,0.277,0.247,0.543,0.346,0.807
				c0.067,0.26,0.166,0.537,0.227,0.814c0.107,0.531,0.155,1.086,0.155,1.641v1.43c-0.034,0.057-0.048,0.117-0.048,0.191
				c-0.107,1.121-0.4,2.176-0.884,3.15c-0.219,0.5-0.468,0.967-0.749,1.436c-0.271,0.451-0.595,0.9-0.931,1.357
				c-0.327,0.406-0.663,0.818-1.009,1.195c-0.348,0.352-0.727,0.734-1.106,1.109c-0.732,0.746-1.516,1.432-2.364,2.059
				c-0.81,0.631-1.643,1.229-2.487,1.77c-0.866,0.586-1.735,1.109-2.624,1.652c-1.774,1.006-3.596,1.955-5.402,2.83
				c-1.821,0.877-3.675,1.709-5.57,2.473c-1.899,0.801-3.782,1.529-5.678,2.219c-0.984,0.334-1.939,0.684-2.893,1.023
				c-0.939,0.32-1.883,0.654-2.828,0.963L44.776,76.9l-2.946,0.887c-0.952,0.279-1.905,0.574-2.861,0.838
				c-0.982,0.291-1.961,0.568-2.977,0.846c-1.974,0.586-3.9,1.123-5.839,1.578l-2.947,0.789c-0.478,0.098-0.965,0.215-1.464,0.334
				c-0.487,0.129-0.986,0.264-1.474,0.412l-5.894,1.355l-2.989,0.643l-2.208,0.469l-0.783,0.146
				c-0.495,0.117-0.931,0.025-1.322-0.234c-0.38-0.252-0.615-0.615-0.681-1.084c-0.096-0.48-0.035-0.918,0.219-1.295
				c0.237-0.395,0.607-0.648,1.104-0.746h0.099l0.736-0.105l0.732-0.16l1.477-0.203c0.484-0.117,0.984-0.203,1.472-0.289
				c0.478-0.074,0.973-0.166,1.463-0.234l5.95-1.16l2.934-0.621c0.497-0.117,0.986-0.223,1.472-0.328
				c0.502-0.111,0.986-0.227,1.476-0.363c0.987-0.215,1.95-0.438,2.925-0.672c0.953-0.215,1.928-0.438,2.914-0.715
				c0.975-0.234,1.95-0.469,2.912-0.715c0.956-0.248,1.939-0.512,2.917-0.789c0.499-0.129,0.974-0.277,1.451-0.426
				c0.476-0.143,0.953-0.291,1.439-0.42l2.839-0.832c1.931-0.598,3.826-1.227,5.697-1.873c1.877-0.654,3.764-1.344,5.668-2.072
				c1.807-0.746,3.663-1.535,5.515-2.367c0.909-0.418,1.8-0.844,2.676-1.283c0.875-0.455,1.757-0.904,2.619-1.418
				c0.889-0.48,1.724-0.992,2.535-1.535c0.795-0.535,1.605-1.109,2.429-1.707c0.37-0.277,0.749-0.586,1.116-0.906
				c0.366-0.309,0.746-0.641,1.129-0.992c0.344-0.32,0.701-0.629,0.994-0.992c0.324-0.352,0.65-0.715,0.953-1.109
				c0.293-0.383,0.552-0.76,0.792-1.172c0.237-0.42,0.466-0.814,0.679-1.24c0.188-0.426,0.32-0.85,0.447-1.258
				c0.119-0.426,0.225-0.875,0.28-1.355c0.043-0.043,0.056-0.105,0.056-0.16v-0.529c0.043-0.162,0.055-0.377,0.055-0.697
				l-0.153-1.301c-0.204-0.877-0.586-1.684-1.104-2.367c-0.512-0.674-1.215-1.227-2.047-1.697c-0.783-0.375-1.657-0.715-2.678-0.99
				c-0.812-0.248-1.764-0.408-2.849-0.525c-0.487-0.061-0.984-0.129-1.474-0.16c-0.475-0.031-0.974-0.043-1.461-0.043
				c-1.018-0.074-2.016-0.104-3.003-0.074c-0.983,0-1.982,0.043-2.99,0.117l-3.001,0.16l-2.988,0.266l-2.999,0.203l-2.989,0.277
				l-3.059,0.203c-0.28,0-0.552,0-0.789,0c-0.24,0-0.487,0.012-0.724,0.043h-1.581c-0.504,0.045-0.999,0.062-1.533,0.031
				c-0.518-0.018-1.05-0.043-1.581-0.074c-0.484-0.072-0.995-0.129-1.526-0.191c-0.521-0.043-1.063-0.146-1.612-0.289
				c-0.532-0.105-1.062-0.252-1.58-0.469c-0.603-0.246-1.129-0.523-1.585-0.844c-0.487-0.309-0.931-0.746-1.312-1.32
				c-0.42-0.58-0.694-1.184-0.79-1.764c-0.173-0.615-0.228-1.227-0.151-1.854c0-0.531,0.087-1.1,0.247-1.74
				c0.154-0.555,0.336-1.084,0.589-1.59c0.237-0.531,0.496-1.012,0.789-1.51c0.314-0.494,0.629-0.963,0.975-1.357
				c0.326-0.42,0.672-0.832,1.021-1.209c0.387-0.381,0.778-0.775,1.159-1.127c0.375-0.377,0.767-0.729,1.158-1.08
				c0.802-0.715,1.625-1.355,2.472-1.959c0.833-0.58,1.699-1.166,2.578-1.721c0.865-0.555,1.741-1.109,2.622-1.641
				c0.876-0.523,1.764-1.018,2.682-1.516c0.912-0.5,1.834-0.961,2.766-1.4c0.922-0.438,1.841-0.881,2.753-1.33
				c0.909-0.426,1.831-0.846,2.761-1.271c0.932-0.426,1.865-0.82,2.809-1.215c1.885-0.801,3.779-1.559,5.685-2.273
				c1.884-0.715,3.783-1.432,5.666-2.121c0.986-0.365,1.951-0.703,2.895-1.035c0.939-0.34,1.916-0.66,2.891-0.98
				c0.499-0.172,0.975-0.334,1.442-0.482c0.485-0.16,0.953-0.318,1.45-0.449l1.477-0.486l1.47-0.463
				c0.659-0.191,1.288-0.104,1.908,0.203c0.629,0.32,1.008,0.801,1.202,1.475c0.194,0.67,0.139,1.312-0.163,1.91
				c-0.327,0.629-0.823,1.023-1.526,1.201C84.732,13.332,84.698,13.352,84.655,13.352z"/>
		</g>
		<g>
			<path fill="#231F20" d="M90.453,37.846l3.788-0.629l0.784-2.367c0.138-0.494,0.336-1.025,0.573-1.654
				c0.077-0.246,0.162-0.535,0.268-0.832c0.099-0.258,0.21-0.555,0.314-0.832l0.629-1.621l0.684-1.689l0.466-0.893
				c0.034-0.105,0.13-0.266,0.26-0.471l0.172-0.32l0.253-0.307c0.043-0.045,0.064-0.068,0.064-0.117
				c0.031-0.025,0.084-0.057,0.151-0.1c0.031-0.105,0.142-0.223,0.314-0.309l0.312-0.215l0.523-0.211
				c0.07,0,0.118-0.012,0.171-0.023c0.033-0.02,0.11-0.02,0.262-0.02c0.064-0.043,0.12-0.055,0.15-0.043
				c0.034,0.02,0.095,0.043,0.161,0.043c0.252,0,0.468,0,0.627,0.043l0.629,0.309l0.521,0.48l0.314,0.469l0.16,0.365l0.099,0.529
				v0.844c-0.021,0.074-0.053,0.191-0.053,0.365l-0.15,0.586c-0.063,0.178-0.111,0.338-0.133,0.498
				c-0.009,0.16-0.063,0.303-0.125,0.438c-0.077,0.174-0.134,0.334-0.189,0.48c-0.053,0.131-0.107,0.279-0.181,0.426
				c-0.099,0.26-0.22,0.555-0.314,0.834c-0.099,0.289-0.22,0.566-0.367,0.844l-0.739,1.633l-0.725,1.566l-0.161,0.32l44.894-7.404
				c0.583-0.115,1.136,0.031,1.659,0.377c0.496,0.381,0.811,0.863,0.909,1.449c0.092,0.598-0.033,1.152-0.392,1.664
				c-0.357,0.512-0.854,0.801-1.442,0.906h-0.105l-46.955,5.801c-0.161,0.377-0.358,0.74-0.574,1.061
				c-0.206,0.352-0.4,0.691-0.573,1.043c-0.108,0.277-0.207,0.535-0.296,0.789c-0.083,0.227-0.17,0.492-0.224,0.783
				c-0.393,1.084-0.763,2.164-1.105,3.23c-0.356,1.078-0.692,2.162-1.05,3.285c-0.393,1.078-0.749,2.176-1.073,3.273
				c-0.348,1.078-0.662,2.158-0.977,3.225c-0.183,0.586-0.336,1.127-0.507,1.682c-0.166,0.543-0.326,1.08-0.502,1.635l-0.876,3.33
				l-0.422,1.621c-0.077,0.277-0.142,0.555-0.194,0.85c-0.054,0.277-0.12,0.555-0.185,0.846c-0.139,0.555-0.271,1.098-0.392,1.65
				c-0.13,0.557-0.237,1.1-0.349,1.666c-0.104,0.555-0.19,1.109-0.302,1.664c-0.062,0.568-0.15,1.123-0.225,1.684
				c-0.033,0.271-0.055,0.555-0.077,0.812c-0.022,0.266-0.022,0.543-0.022,0.82c-0.063,0.277-0.063,0.537,0,0.789
				c0,0.352,0.01,0.598,0.053,0.729c0,0.191,0.014,0.309,0.047,0.383c0,0.055,0.021,0.098,0.043,0.115
				c0.01,0.025,0.01,0.057,0.01,0.088l0.067,0.043c0.094,0,0.161,0,0.19-0.043c0.216-0.031,0.427-0.148,0.642-0.32
				c0.176-0.131,0.366-0.297,0.573-0.438c0.219-0.162,0.4-0.322,0.577-0.5c0.215-0.191,0.409-0.377,0.604-0.58
				c0.194-0.209,0.382-0.426,0.552-0.629c0.673-0.85,1.356-1.738,2.05-2.688c0.323-0.457,0.629-0.924,0.953-1.387
				c0.314-0.488,0.629-0.969,0.943-1.449l1.744-2.934l0.876-1.492l0.804-1.463l3.193-6.09l1.474-3.107l0.749-1.578l0.672-1.566
				c0.108-0.258,0.281-0.418,0.528-0.523c0.24-0.074,0.489-0.057,0.739,0.043c0.562,0.234,0.715,0.66,0.478,1.258v0.055
				l-0.804,1.523l-0.777,1.578l-1.585,3.033c-0.521,1.023-1.047,2.047-1.604,3.07c-0.528,1.006-1.093,2.027-1.647,3.039
				l-0.854,1.529l-0.835,1.523l-1.786,2.934l-1.885,2.953c-0.358,0.492-0.703,0.961-1.03,1.443
				c-0.337,0.467-0.693,0.936-1.072,1.404c-0.161,0.234-0.367,0.451-0.583,0.672c-0.216,0.217-0.413,0.438-0.629,0.686
				c-0.49,0.498-0.966,0.875-1.422,1.195c-0.357,0.203-0.658,0.395-0.951,0.543l-0.573,0.148c-0.087,0-0.142,0.012-0.198,0.043
				c-0.034,0-0.104,0.025-0.172,0.025c-0.031,0-0.086,0-0.177,0c-0.084,0-0.182-0.025-0.245-0.068c-0.065,0-0.14-0.02-0.229-0.051
				c-0.085-0.023-0.172-0.066-0.236-0.098l-0.367-0.34c-0.253-0.203-0.392-0.395-0.427-0.555c-0.072-0.117-0.118-0.215-0.118-0.32
				c-0.028-0.098-0.062-0.191-0.084-0.26c-0.064-0.221-0.099-0.395-0.099-0.529c-0.086-0.172-0.12-0.332-0.12-0.463
				c0-0.146-0.012-0.309-0.056-0.469v-0.949c0-0.295,0-0.586,0-0.906s0.021-0.615,0.056-0.893l0.163-1.74
				c0.067-0.275,0.111-0.566,0.14-0.875c0-0.32,0.046-0.629,0.076-0.906l0.524-3.414l0.312-1.738l0.312-1.678
				c0.238-1.172,0.476-2.293,0.686-3.447c0.204-1.141,0.452-2.268,0.733-3.391c0.132-0.598,0.271-1.195,0.393-1.812
				c0.128-0.609,0.279-1.227,0.455-1.824c-0.219-0.062-0.378-0.129-0.478-0.203c-0.383-0.266-0.508-0.648-0.37-1.098v-0.055
				l0.629-1.58l0.314-0.83l0.323-0.791l1.311-3.156l0.576-1.418l0.217-0.684c0.067-0.309,0.153-0.629,0.228-0.918
				c0.087-0.311,0.197-0.6,0.293-0.926l-2.72,0.326c-0.323,0.068-0.594,0-0.825-0.209c-0.226-0.172-0.358-0.438-0.398-0.74
				c-0.063-0.283,0-0.543,0.185-0.777C89.92,38.061,90.173,37.918,90.453,37.846z M102.117,29.064h-0.064v0.057
				C102.052,29.096,102.087,29.064,102.117,29.064z"/>
		</g>
		<g>
			<path fill="#231F20" d="M108.682,50.988l-0.146,0.309l-0.168,0.277c-0.03,0.191-0.12,0.395-0.269,0.555
				c-0.055,0.234-0.14,0.438-0.227,0.641c-0.099,0.223-0.173,0.395-0.297,0.586l-0.462,1.197l-0.478,1.258
				c-0.271,0.818-0.563,1.633-0.845,2.451c-0.28,0.822-0.54,1.666-0.792,2.498l-0.617,2.467l-0.28,1.27l-0.193,1.258l-0.164,1.258
				v1.152c0,0.086,0.021,0.16,0.031,0.277c0.012,0.104,0.012,0.191,0.012,0.246c0.043,0.094,0.056,0.148,0.056,0.223
				c0,0.061,0.03,0.117,0.065,0.16h0.042c0.041,0,0.062,0,0.084-0.031c0.012-0.012,0.046-0.012,0.067-0.012l0.435-0.223
				c0.216-0.117,0.484-0.32,0.842-0.641l0.792-0.887c0.13-0.18,0.26-0.34,0.383-0.5c0.114-0.16,0.246-0.32,0.345-0.494
				c0.25-0.352,0.487-0.703,0.712-1.023c0.231-0.35,0.447-0.701,0.659-1.084l1.206-2.262c0.768-1.635,1.452-3.256,2.047-4.779
				c0.185-0.395,0.324-0.801,0.444-1.209c0.132-0.426,0.271-0.85,0.391-1.27c0.077-0.178,0.14-0.369,0.226-0.574
				c0.056-0.203,0.133-0.418,0.209-0.629l0.161-0.639V52.77l0.099-0.246v-0.16c0.033-0.043,0.055-0.105,0.055-0.16
				c0.127-0.617,0.44-1.066,0.939-1.375c0.488-0.32,1.039-0.406,1.628-0.266c0.498,0.105,0.886,0.34,1.178,0.715
				c0.306,0.352,0.479,0.789,0.512,1.289l0.053,0.729c-0.046,0.029-0.053,0.074-0.053,0.104l-0.064,0.105l-0.043,0.26l-0.056,0.115
				h0.056l-0.099,0.203v0.119l-0.271,0.936l-0.154,0.949c-0.083,0.174-0.117,0.334-0.127,0.469
				c-0.033,0.143-0.045,0.303-0.089,0.469c-0.216,1.197-0.367,2.453-0.461,3.736c-0.044,0.32-0.057,0.629-0.057,0.949
				c0,0.309,0,0.617,0,0.895l0.096,0.844c0,0.16,0.021,0.309,0.055,0.408c0,0.16,0.023,0.234,0.053,0.277h0.056
				c0.132-0.086,0.348-0.217,0.629-0.438l0.629-0.629l0.583-0.672c0.099-0.117,0.209-0.236,0.28-0.352
				c0.099-0.111,0.188-0.26,0.308-0.377l0.562-0.746c0.077-0.148,0.151-0.277,0.238-0.395c0.098-0.117,0.194-0.246,0.291-0.395
				c0.177-0.277,0.338-0.555,0.499-0.801c0.161-0.277,0.338-0.555,0.509-0.832l0.47-0.834l0.474-0.807l0.941-1.721l0.848-1.684
				l0.845-1.793c0.053-0.129,0.12-0.277,0.175-0.406c0.043-0.148,0.115-0.297,0.183-0.426l0.163-0.469l0.204-0.426
				c0.11-0.32,0.314-0.523,0.607-0.652c0.292-0.131,0.585-0.148,0.853-0.031c0.287,0.105,0.504,0.309,0.633,0.598
				c0.139,0.295,0.173,0.598,0.061,0.875l-0.092,0.16l-1.898,3.465l-0.955,1.678l-0.941,1.738c-0.182,0.252-0.357,0.529-0.53,0.832
				l-0.478,0.85c-0.159,0.291-0.349,0.557-0.517,0.846c-0.177,0.277-0.349,0.555-0.522,0.832l-1.115,1.623
				c-0.163,0.295-0.357,0.572-0.573,0.832c-0.197,0.252-0.413,0.529-0.629,0.807l-0.728,0.803l-0.422,0.352
				c-0.151,0.141-0.324,0.275-0.54,0.361l-0.617,0.322c-0.209,0.074-0.36,0.104-0.425,0.104h-0.583
				c-0.099-0.029-0.209-0.061-0.335-0.104c-0.12-0.014-0.219-0.074-0.283-0.16l-0.435-0.309c-0.108-0.143-0.173-0.26-0.237-0.377
				c-0.045-0.092-0.108-0.189-0.173-0.309c-0.14-0.277-0.229-0.498-0.264-0.627l-0.163-0.525c-0.027-0.18-0.049-0.369-0.072-0.541
				c-0.022-0.205-0.065-0.383-0.13-0.568c-0.077-0.338-0.12-0.689-0.134-1.023c-0.018-0.34-0.039-0.66-0.082-0.98l-1.465,2.424
				l-1.482,2.312c-0.49,0.744-1.017,1.473-1.582,2.219c-0.274,0.375-0.567,0.746-0.855,1.078c-0.306,0.32-0.643,0.672-1.03,1.023
				c-0.173,0.174-0.369,0.332-0.585,0.5c-0.195,0.16-0.436,0.303-0.682,0.438c-0.13,0.074-0.26,0.143-0.383,0.186
				c-0.126,0.061-0.246,0.115-0.397,0.189c-0.207,0.062-0.367,0.105-0.478,0.105c-0.065,0.029-0.147,0.057-0.26,0.057
				c-0.021,0-0.064,0.018-0.099,0.041h-0.435c-0.053,0-0.127-0.012-0.182-0.023c-0.043-0.018-0.111-0.018-0.181-0.018
				c-0.35-0.143-0.603-0.279-0.741-0.377c-0.207-0.137-0.356-0.295-0.478-0.469l-0.26-0.523c-0.055-0.191-0.118-0.328-0.149-0.457
				c-0.031-0.117-0.066-0.246-0.108-0.395l-0.098-0.789v-1.473l0.098-1.357l0.37-2.748l0.484-2.615l1.094-5.26l0.796-3.938
				l0.147-0.648l0.11-0.672c0.139-0.598,0.453-1.066,0.953-1.4c0.475-0.307,1.029-0.438,1.624-0.338
				c0.596,0.148,1.063,0.469,1.388,0.949c0.335,0.5,0.452,1.041,0.335,1.641L108.682,50.988z"/>
		</g>
		<g>
			<path fill="#231F20" d="M134.381,40.213c0.293-0.703,0.544-1.406,0.802-2.121c0.237-0.686,0.487-1.389,0.728-2.09l0.736-2.104
				c0.096-0.395,0.216-0.746,0.346-1.078c0.129-0.34,0.237-0.672,0.336-1.023c0.25-0.703,0.487-1.4,0.713-2.121
				c0.219-0.727,0.446-1.455,0.648-2.189l0.639-2.102l0.314-1.098v-0.055l0.266-0.906l0.043-0.086l0.062-0.117
				c0.198-0.586,0.59-1.012,1.128-1.258c0.54-0.246,1.116-0.246,1.714,0c0.604,0.203,1.008,0.584,1.255,1.096
				c0.25,0.525,0.281,1.08,0.104,1.635l-0.474,1.473l-0.466,1.523l-0.953,2.99c-0.271,1.023-0.573,2.035-0.888,3.027
				c-0.325,1.004-0.615,1.998-0.887,3.039c-0.607,1.984-1.184,3.982-1.745,5.998c-0.552,2.035-1.085,4.051-1.572,6.08
				c-0.28,1.004-0.542,2.027-0.792,3.039c-0.26,1.035-0.484,2.039-0.737,3.064c-0.487,2.076-0.909,4.105-1.267,6.133
				c-0.203,1.023-0.397,2.029-0.539,3.053c-0.16,1.023-0.314,2.033-0.446,3.059c-0.074,0.523-0.127,1.035-0.175,1.547
				c-0.029,0.512-0.041,1.004-0.041,1.484c-0.031,0.086-0.057,0.203-0.057,0.383l0.371-0.48c0.314-0.457,0.627-0.906,0.922-1.363
				c0.288-0.449,0.594-0.918,0.869-1.412c0.594-0.906,1.188-1.855,1.762-2.791c0.564-0.949,1.15-1.9,1.702-2.85l3.356-5.781
				l3.262-5.826c0.138-0.254,0.336-0.396,0.586-0.471c0.236-0.061,0.49-0.041,0.735,0.1c0.251,0.148,0.401,0.34,0.488,0.586
				c0.052,0.246,0.021,0.5-0.117,0.734c-0.524,0.973-1.051,1.953-1.576,2.916c-0.529,0.967-1.078,1.93-1.633,2.922
				c-0.564,0.98-1.116,1.961-1.656,2.922c-0.545,0.949-1.118,1.93-1.7,2.91c-0.568,0.975-1.142,1.941-1.724,2.891
				c-0.573,0.949-1.159,1.867-1.757,2.83c-0.293,0.48-0.574,0.969-0.889,1.418s-0.629,0.938-0.952,1.43
				c-0.163,0.234-0.349,0.48-0.49,0.703c-0.16,0.217-0.341,0.438-0.505,0.66c-0.314,0.449-0.672,0.918-1.055,1.369
				c-0.169,0.234-0.401,0.369-0.681,0.381c-0.28,0.014-0.53-0.043-0.734-0.221c-0.175-0.143-0.302-0.334-0.369-0.58
				c-0.077-0.277-0.12-0.572-0.164-0.838c-0.021-0.289-0.064-0.568-0.098-0.857c-0.041-0.277-0.062-0.555-0.062-0.832
				c-0.034-0.277-0.034-0.555-0.034-0.852c0-0.555,0-1.078,0-1.621c0-0.523,0.034-1.078,0.097-1.633
				c0.076-1.037,0.153-2.121,0.262-3.17c0.117-1.066,0.237-2.133,0.419-3.199c0.145-1.037,0.306-2.102,0.48-3.139
				c0.161-1.053,0.346-2.09,0.519-3.113c0.176-1.035,0.366-2.072,0.589-3.125c0.203-1.023,0.419-2.059,0.626-3.113
				c0-0.16,0.012-0.246,0.039-0.32c-0.169,0.277-0.314,0.586-0.428,0.893c-0.146,0.309-0.262,0.611-0.403,0.889
				c-0.629,1.375-1.277,2.732-1.949,4.074c-0.662,1.344-1.356,2.689-2.038,4.021l-1.116,1.996l-1.094,2.004
				c-0.378,0.629-0.805,1.27-1.201,1.912c-0.435,0.658-0.891,1.27-1.388,1.885l-0.78,0.877c-0.173,0.172-0.336,0.338-0.465,0.455
				c-0.154,0.131-0.302,0.248-0.479,0.396l-0.538,0.418l-0.565,0.309c-0.176,0.074-0.399,0.148-0.681,0.221l-0.435,0.1
				c-0.055,0-0.153-0.012-0.259-0.031c-0.099-0.012-0.176-0.012-0.259-0.012c-0.133-0.043-0.314-0.129-0.523-0.277
				c-0.108-0.074-0.195-0.148-0.238-0.203c-0.043-0.074-0.107-0.148-0.185-0.236c-0.074-0.084-0.139-0.232-0.206-0.436l-0.099-0.383
				c-0.044-0.172-0.072-0.395-0.072-0.684c0-0.32,0.028-0.543,0.072-0.672c0.024-0.746,0.166-1.506,0.413-2.324
				c0.067-0.377,0.175-0.76,0.283-1.143c0.129-0.344,0.24-0.727,0.344-1.121l0.794-2.145c0.28-0.703,0.563-1.406,0.853-2.121
				c0.305-0.686,0.629-1.387,0.986-2.104c0.164-0.338,0.336-0.684,0.491-1.023c0.159-0.32,0.335-0.652,0.495-1.004
				c0.176-0.395,0.37-0.766,0.586-1.098c0.219-0.32,0.433-0.66,0.617-1.023c0.12-0.16,0.228-0.334,0.324-0.494
				c0.11-0.16,0.24-0.32,0.369-0.498l0.792-1.055c0.183-0.172,0.346-0.334,0.519-0.492c0.176-0.162,0.392-0.32,0.637-0.5
				c0.146-0.068,0.274-0.16,0.427-0.248c0.13-0.074,0.279-0.16,0.464-0.232l0.588-0.143c0.063-0.031,0.192-0.061,0.369-0.061h0.311
				c0.476-0.043,0.91,0.086,1.279,0.361c0.392,0.279,0.639,0.66,0.833,1.111c0.478-1.27,0.973-2.521,1.477-3.779
				C133.459,42.783,133.926,41.512,134.381,40.213z M129.086,50.359h0.043c0.027,0,0.049-0.031,0.049-0.074
				c0.046,0,0.067,0,0.067-0.023h-0.116l-0.305,0.141l-0.381,0.203l-0.735,0.586l-0.673,0.734c-0.258,0.277-0.49,0.555-0.727,0.812
				c-0.216,0.279-0.441,0.531-0.65,0.82l-1.212,1.783c-0.379,0.641-0.749,1.27-1.095,1.91c-0.357,0.66-0.684,1.32-1.008,1.99
				c-0.159,0.303-0.326,0.629-0.464,0.963c-0.144,0.352-0.282,0.684-0.423,1.023c-0.143,0.363-0.261,0.703-0.359,1.035
				c-0.118,0.32-0.227,0.672-0.325,1.012l-0.269,1.061l-0.153,1.01v0.877l0.12,0.221h0.099l0.369-0.16l0.366-0.221l0.354-0.309
				c0.267-0.143,0.504-0.377,0.749-0.686c0.142-0.129,0.26-0.277,0.358-0.393c0.098-0.117,0.216-0.266,0.326-0.395l1.255-1.783
				c0.349-0.566,0.716-1.195,1.106-1.898l1.091-1.941c0.176-0.309,0.35-0.643,0.525-0.969c0.148-0.332,0.314-0.666,0.482-0.975
				c0.49-1.098,0.987-2.162,1.479-3.23c0.474-1.078,0.973-2.158,1.47-3.285c-0.14,0.062-0.269,0.129-0.398,0.16
				c-0.12,0.031-0.274,0.043-0.435,0.043C129.486,50.445,129.29,50.422,129.086,50.359z"/>
		</g>
		<g>
			<path fill="#231F20" d="M148.842,50.934c-0.062,0.098-0.118,0.203-0.127,0.32c-0.021,0.086-0.056,0.184-0.12,0.258l-0.229,0.617
				l-0.478,1.27l-0.875,2.527c-0.28,0.846-0.552,1.678-0.804,2.529c-0.238,0.832-0.463,1.688-0.679,2.551l-0.645,2.541
				c-0.062,0.469-0.127,0.895-0.191,1.318c-0.067,0.42-0.123,0.846-0.163,1.258l-0.108,1.006l0.148-0.16
				c0.286-0.32,0.579-0.643,0.848-0.963c0.293-0.352,0.574-0.701,0.844-1.096c0.282-0.352,0.568-0.703,0.815-1.055
				c0.27-0.334,0.528-0.697,0.81-1.049l1.582-2.164l1.584-2.145l3.099-4.416c0.485-0.727,0.982-1.473,1.473-2.199
				c0.475-0.746,0.986-1.492,1.474-2.27c0.173-0.277,0.41-0.438,0.693-0.492c0.314-0.062,0.596,0,0.876,0.189
				c0.283,0.162,0.456,0.396,0.541,0.717c0.057,0.289,0,0.578-0.163,0.855c0,0.031-0.021,0.051-0.032,0.051
				c-0.01,0-0.021,0.012-0.021,0.055c-0.575,0.684-1.102,1.4-1.635,2.121c-0.53,0.727-1.049,1.443-1.572,2.188l-3.162,4.311
				l-3.153,4.408l-1.582,2.15l-1.625,2.158l-0.474,0.586c-0.133,0.234-0.293,0.426-0.47,0.523c-0.029,0.074-0.119,0.18-0.258,0.309
				l-0.12,0.117l-0.139,0.105l-0.108,0.043l-0.056,0.074h-0.067l-0.04,0.023h-0.108c0,0.045-0.033,0.062-0.099,0.062h-0.15
				c-0.12,0.023-0.151,0.043-0.13,0.023c0.01-0.012,0-0.023-0.034-0.023h-0.107c-0.096,0-0.271-0.031-0.476-0.086
				c-0.098-0.049-0.196-0.094-0.271-0.117c-0.056-0.043-0.133-0.094-0.197-0.166c-0.216-0.205-0.37-0.408-0.487-0.623
				c-0.051-0.148-0.128-0.326-0.197-0.531c-0.062-0.203-0.117-0.352-0.117-0.418c-0.021-0.18-0.043-0.309-0.064-0.439
				c-0.021-0.135-0.031-0.264-0.031-0.426c-0.034-0.436-0.034-0.918,0-1.461c0-0.221,0.01-0.48,0.031-0.701
				c0.021-0.217,0.043-0.438,0.064-0.654c0-0.252,0.025-0.486,0.034-0.715c0.021-0.223,0.043-0.455,0.083-0.703l0.197-1.375
				l0.16-1.312l0.956-5.406l0.943-5.357c0.107-0.629,0.41-1.129,0.955-1.473c0.519-0.371,1.079-0.488,1.681-0.371
				c0.595,0.104,1.078,0.426,1.436,0.949c0.37,0.529,0.479,1.084,0.349,1.684C148.953,50.562,148.918,50.723,148.842,50.934z
				 M148.316,35.785l0.31-2.934c0.09-0.648,0.358-1.141,0.846-1.535c0.499-0.426,1.041-0.586,1.68-0.512
				c0.596,0.074,1.106,0.332,1.506,0.844c0.402,0.48,0.575,1.023,0.498,1.684c-0.078,0.258-0.139,0.492-0.216,0.672l-1.255,2.73
				c-0.211,0.469-0.545,0.771-1.008,0.918c-0.447,0.162-0.897,0.148-1.366-0.072c-0.349-0.174-0.616-0.42-0.805-0.729
				C148.316,36.531,148.247,36.18,148.316,35.785z"/>
		</g>
		<g>
			<path fill="#231F20" d="M164.671,57.764l0.314,0.369c0.132,0.16,0.237,0.234,0.305,0.248c0.142,0.086,0.247,0.117,0.324,0.117
				c0.14,0.074,0.292,0.074,0.478,0c0.061,0,0.228-0.031,0.517-0.117l0.573-0.248c0.111-0.104,0.306-0.221,0.589-0.369l0.53-0.463
				c0.728-0.629,1.421-1.375,2.038-2.225c0.28-0.377,0.562-0.789,0.841-1.197c0.284-0.426,0.565-0.861,0.849-1.312
				c0.271-0.469,0.543-0.906,0.778-1.375c0.261-0.449,0.479-0.93,0.682-1.418c0.155-0.277,0.37-0.48,0.663-0.598
				c0.302-0.117,0.604-0.117,0.919,0.031c0.281,0.129,0.478,0.352,0.607,0.684c0.12,0.309,0.12,0.598-0.021,0.881
				c0,0.045-0.02,0.057-0.02,0.088c-0.033,0.023-0.033,0.043-0.033,0.074c-0.598,0.9-1.184,1.805-1.745,2.73
				c-0.552,0.918-1.188,1.836-1.883,2.73c-0.326,0.42-0.672,0.857-1.032,1.295c-0.367,0.443-0.759,0.852-1.181,1.246l-0.682,0.555
				c-0.108,0.117-0.207,0.203-0.346,0.309c-0.12,0.072-0.252,0.16-0.378,0.215l-0.861,0.469c-0.203,0.16-0.518,0.277-0.931,0.383
				c-0.194,0.043-0.379,0.068-0.561,0.086c-0.188,0.012-0.391,0.012-0.595,0.012c-0.425-0.055-0.826-0.16-1.176-0.32
				c-0.344-0.086-0.625-0.234-0.831-0.406c-0.064,0.055-0.108,0.141-0.108,0.203c-0.453,0.992-0.931,1.867-1.418,2.627
				c-0.521,0.85-1.116,1.65-1.787,2.428c-0.16,0.186-0.358,0.346-0.552,0.555c-0.198,0.186-0.413,0.377-0.65,0.537
				c-0.219,0.178-0.444,0.34-0.693,0.488c-0.238,0.129-0.5,0.258-0.783,0.363c-0.312,0.141-0.617,0.215-0.909,0.258
				c-0.087,0.031-0.26,0.062-0.466,0.062h-0.476c-0.369,0-0.705-0.074-0.998-0.203c-0.164-0.094-0.336-0.148-0.486-0.223
				c-0.16-0.074-0.307-0.174-0.445-0.32c-0.141-0.131-0.268-0.279-0.399-0.395c-0.108-0.117-0.216-0.266-0.293-0.451l-0.414-0.82
				c-0.073-0.289-0.12-0.566-0.147-0.85c-0.055-0.289-0.086-0.555-0.12-0.844c0-0.277,0-0.543,0-0.789
				c0-0.248,0.034-0.514,0.065-0.791c0.033-0.289,0.055-0.535,0.096-0.758c0.033-0.223,0.085-0.469,0.153-0.715
				c0.077-0.48,0.161-0.98,0.29-1.43c0.123-0.482,0.262-0.969,0.402-1.461c0.17-0.457,0.338-0.908,0.497-1.375
				c0.155-0.439,0.315-0.906,0.499-1.357c0.183-0.438,0.349-0.906,0.552-1.344c0.186-0.438,0.413-0.895,0.65-1.332l0.324-0.641
				l0.357-0.672c0.145-0.217,0.271-0.426,0.358-0.629c0.122-0.217,0.262-0.426,0.446-0.629c0.139-0.258,0.271-0.48,0.41-0.684
				c0.142-0.223,0.29-0.426,0.466-0.643l0.485-0.629l0.634-0.584l0.669-0.629c0.227-0.131,0.509-0.32,0.911-0.568
				c0.367-0.223,0.777-0.338,1.199-0.363c0.166-0.031,0.435-0.074,0.793-0.074c0.172,0,0.314,0.043,0.422,0.074h0.207l0.043,0.057
				h0.107c0.596,0.084,1.062,0.395,1.397,0.875c0.336,0.498,0.446,1.035,0.336,1.641c0,0.041,0,0.055-0.021,0.055
				s-0.021,0.012-0.021,0.043l0.305,0.48c0.142,0.34,0.247,0.691,0.324,1.055c0.021,0.172,0.055,0.332,0.076,0.492
				c0.01,0.148,0.034,0.328,0.034,0.5c0.029,0.174,0.043,0.32,0.043,0.449c0,0.117,0,0.266,0,0.445l-0.153,1.633l-0.324,1.516
				c-0.067,0.254-0.139,0.482-0.194,0.717c-0.077,0.223-0.142,0.469-0.219,0.703c-0.074,0.221-0.13,0.424-0.185,0.629
				c-0.053,0.215-0.122,0.406-0.183,0.584L164.671,57.764z M160.457,50.771c-0.173,0.143-0.311,0.279-0.443,0.42
				c-0.117,0.148-0.272,0.297-0.44,0.469l-0.795,1.012c-0.074,0.098-0.144,0.203-0.171,0.289c-0.067,0.086-0.12,0.172-0.196,0.234
				l-0.37,0.568c-0.247,0.393-0.484,0.775-0.703,1.17c-0.229,0.377-0.432,0.758-0.607,1.152c-0.392,0.729-0.756,1.549-1.104,2.467
				l-0.421,1.258c-0.069,0.203-0.134,0.426-0.196,0.629c-0.042,0.203-0.086,0.426-0.118,0.641c-0.079,0.205-0.122,0.426-0.165,0.629
				c-0.03,0.205-0.064,0.408-0.108,0.629c-0.029,0.203-0.055,0.408-0.055,0.629c0,0.215,0,0.408,0,0.58
				c0,0.209,0.025,0.395,0.046,0.586c0,0.16,0.03,0.338,0.076,0.512c0.062,0.221,0.127,0.363,0.206,0.424l0.146,0.277
				c0.154,0.057,0.244,0.1,0.275,0.1l0.368,0.094h0.26c0.033,0,0.062,0,0.083-0.02c0.013-0.012,0.056-0.025,0.12-0.025
				c0.077,0,0.216-0.029,0.426-0.117c0.302-0.135,0.616-0.32,0.897-0.586l0.888-0.82c0.499-0.596,0.964-1.312,1.421-2.156
				c0.378-0.766,0.748-1.578,1.062-2.41c0.093-0.277,0.203-0.598,0.337-0.906c0.113-0.365,0.225-0.703,0.279-1.055
				c-0.055-0.277-0.132-0.537-0.216-0.832c-0.063-0.277-0.132-0.586-0.197-0.889c-0.076-0.295-0.119-0.586-0.159-0.881
				c-0.044-0.289-0.09-0.58-0.153-0.875c0-0.162,0-0.32-0.035-0.463c-0.021-0.135-0.021-0.277-0.021-0.426c0-0.16,0-0.309,0-0.438
				c0-0.117-0.021-0.266-0.052-0.438v-0.906c0.03-0.105,0.052-0.223,0.052-0.363c0-0.148,0-0.277,0-0.426L160.457,50.771z
				 M161.4,50.771h0.055l-0.055-0.049V50.771z"/>
		</g>
	</g>
	<g>
		<path fill="#F395BE" d="M84.439,6.631c-0.617-0.309-1.246-0.395-1.908-0.223l-1.485,0.469l-1.471,0.482
			c-0.49,0.146-0.965,0.295-1.442,0.455c-0.476,0.148-0.953,0.32-1.44,0.494c-0.985,0.309-1.947,0.646-2.891,0.979
			c-0.943,0.34-1.908,0.66-2.895,1.023c-1.896,0.703-3.779,1.4-5.676,2.135c-1.895,0.703-3.781,1.473-5.677,2.275
			c-0.953,0.381-1.875,0.787-2.805,1.201c-0.932,0.438-1.855,0.844-2.766,1.27c-0.909,0.451-1.828,0.889-2.75,1.344
			c-0.935,0.438-1.865,0.906-2.773,1.4c-0.91,0.48-1.798,0.992-2.677,1.523c-0.874,0.523-1.753,1.064-2.631,1.619
			c-0.876,0.557-1.733,1.135-2.568,1.74c-0.845,0.58-1.667,1.238-2.479,1.941c-0.378,0.352-0.77,0.715-1.148,1.078
			c-0.392,0.363-0.768,0.746-1.159,1.123c-0.346,0.395-0.693,0.807-1.03,1.215c-0.323,0.424-0.65,0.875-0.965,1.373
			c-0.28,0.494-0.555,0.975-0.792,1.486c-0.247,0.512-0.439,1.055-0.583,1.609c-0.171,0.629-0.259,1.215-0.259,1.738
			c-0.067,0.629-0.021,1.24,0.16,1.838c0.099,0.586,0.367,1.184,0.792,1.787c0.38,0.555,0.812,0.994,1.323,1.314
			c0.441,0.301,0.962,0.578,1.556,0.844c0.53,0.203,1.056,0.365,1.582,0.469c0.555,0.131,1.106,0.234,1.625,0.289
			c0.533,0.045,1.042,0.117,1.531,0.18c0.519,0.043,1.059,0.074,1.582,0.086c0.517,0.012,1.029,0.012,1.514-0.031h1.581
			c0.252-0.031,0.489-0.055,0.739-0.055c0.226,0,0.509,0,0.792,0l3.039-0.203l2.994-0.266l3-0.203l3.001-0.266l2.991-0.16
			c1.008-0.074,2.015-0.105,3.001-0.129c0.975-0.031,1.971,0,2.997,0.074c0.48,0,0.978,0.012,1.464,0.055
			c0.487,0.031,0.986,0.086,1.474,0.16c1.085,0.105,2.037,0.266,2.852,0.512c1.008,0.291,1.896,0.629,2.675,1.006
			c0.833,0.455,1.526,1.01,2.047,1.682c0.533,0.717,0.9,1.492,1.095,2.367l0.16,1.314c0,0.32-0.012,0.541-0.052,0.684v0.531
			c0,0.066-0.01,0.115-0.053,0.16c-0.067,0.48-0.154,0.949-0.284,1.355c-0.129,0.426-0.271,0.844-0.456,1.27
			c-0.203,0.406-0.435,0.832-0.681,1.227c-0.238,0.408-0.496,0.803-0.777,1.186c-0.317,0.381-0.645,0.758-0.959,1.096
			c-0.302,0.365-0.65,0.697-0.994,1.006c-0.377,0.352-0.769,0.691-1.126,0.992c-0.369,0.32-0.749,0.617-1.128,0.893
			c-0.812,0.6-1.615,1.166-2.414,1.709c-0.826,0.555-1.646,1.066-2.528,1.566c-0.874,0.492-1.763,0.949-2.619,1.387
			c-0.9,0.438-1.788,0.875-2.698,1.283c-1.852,0.844-3.692,1.633-5.51,2.367c-1.913,0.727-3.783,1.43-5.658,2.07
			c-1.873,0.66-3.771,1.289-5.699,1.869l-2.848,0.838c-0.478,0.141-0.965,0.289-1.435,0.438c-0.482,0.129-0.961,0.277-1.447,0.406
			c-0.987,0.277-1.949,0.543-2.925,0.789c-0.953,0.246-1.928,0.48-2.901,0.746c-0.987,0.248-1.964,0.48-2.92,0.697
			c-0.973,0.234-1.947,0.457-2.924,0.66c-0.497,0.129-0.987,0.277-1.472,0.363c-0.499,0.105-0.974,0.203-1.464,0.32l-2.946,0.648
			l-5.946,1.152c-0.487,0.055-0.975,0.143-1.474,0.234c-0.487,0.086-0.975,0.172-1.474,0.289l-1.465,0.191l-0.736,0.172
			l-0.742,0.105h-0.089c-0.5,0.1-0.869,0.352-1.116,0.729c-0.25,0.381-0.314,0.818-0.207,1.318c0.067,0.463,0.293,0.814,0.685,1.066
			c0.379,0.277,0.81,0.346,1.309,0.246l0.79-0.16l2.213-0.469l2.988-0.641l5.894-1.361c0.486-0.143,0.975-0.26,1.465-0.395
			c0.495-0.119,0.986-0.234,1.469-0.334l2.96-0.801c1.921-0.438,3.868-0.969,5.819-1.566c1.03-0.289,2.004-0.568,2.978-0.832
			c0.965-0.291,1.918-0.586,2.87-0.832l2.937-0.92l2.904-0.949c0.941-0.307,1.885-0.629,2.825-0.967
			c0.954-0.334,1.907-0.672,2.894-1.018c1.887-0.672,3.782-1.406,5.665-2.207c1.906-0.777,3.752-1.59,5.579-2.484
			c1.822-0.875,3.632-1.812,5.408-2.836c0.887-0.506,1.753-1.061,2.61-1.615c0.866-0.574,1.68-1.158,2.491-1.801
			c0.856-0.629,1.636-1.312,2.372-2.047c0.379-0.375,0.746-0.758,1.104-1.121c0.348-0.363,0.684-0.777,0.995-1.197
			c0.337-0.455,0.673-0.893,0.943-1.361c0.296-0.451,0.533-0.932,0.737-1.412c0.502-0.98,0.805-2.035,0.891-3.156
			c0-0.074,0.018-0.148,0.062-0.203v-1.438c0-0.555-0.062-1.109-0.148-1.635c-0.087-0.275-0.163-0.535-0.25-0.801
			c-0.086-0.277-0.206-0.523-0.346-0.801c-0.175-0.469-0.468-0.949-0.881-1.492c-0.191-0.203-0.367-0.406-0.562-0.598
			s-0.413-0.369-0.66-0.555c-0.369-0.352-0.835-0.672-1.356-0.938c-1.029-0.492-2.036-0.863-3.063-1.109
			c-0.478-0.148-0.996-0.246-1.52-0.334c-0.526-0.092-1.029-0.178-1.514-0.252c-0.533-0.074-1.041-0.117-1.56-0.143
			c-0.511-0.049-1.029-0.061-1.55-0.061c-1.021-0.074-2.029-0.1-3.044-0.074c-1.019,0.02-2.038,0.062-3.057,0.135l-3.046,0.143
			l-2.999,0.223l-3.043,0.203l-2.989,0.223c-0.504,0.023-0.999,0.055-1.508,0.066c-0.509,0.031-1.008,0.031-1.483,0.031
			c-0.262,0-0.502,0.012-0.749,0.012c-0.237,0.031-0.496,0.049-0.739,0.049h-1.471c-0.49-0.049-0.974-0.061-1.473-0.092
			c-0.487-0.012-0.978-0.055-1.462-0.129c-0.502-0.074-0.986-0.131-1.464-0.174c-0.466-0.072-0.922-0.16-1.385-0.295
			c-0.209-0.074-0.411-0.143-0.628-0.215c-0.21-0.062-0.422-0.148-0.629-0.205c-0.465-0.252-0.813-0.469-1.051-0.646
			c-0.346-0.277-0.607-0.555-0.792-0.832c-0.112-0.143-0.183-0.289-0.238-0.438c-0.043-0.16-0.086-0.334-0.132-0.494
			c-0.093-0.338-0.117-0.732-0.053-1.227c0.043-0.16,0.074-0.352,0.108-0.574c0.033-0.215,0.089-0.424,0.163-0.627
			c0.216-0.729,0.598-1.506,1.146-2.307c0.565-0.82,1.181-1.516,1.854-2.102c0.302-0.363,0.638-0.691,1.018-0.98
			c0.36-0.291,0.749-0.611,1.131-0.918c0.389-0.297,0.768-0.557,1.156-0.852c0.379-0.277,0.792-0.555,1.218-0.832
			c0.862-0.555,1.694-1.066,2.465-1.529c0.839-0.5,1.692-0.969,2.581-1.418c0.866-0.457,1.745-0.906,2.62-1.375
			c1.791-0.863,3.597-1.695,5.407-2.453c1.83-0.789,3.683-1.518,5.579-2.219c1.896-0.703,3.77-1.357,5.644-1.986
			c1.877-0.641,3.77-1.258,5.656-1.842c0.983-0.334,1.948-0.611,2.891-0.889c0.953-0.297,1.896-0.574,2.831-0.852l2.9-0.789
			l1.461-0.363c0.252-0.074,0.489-0.131,0.719-0.191c0.225-0.043,0.465-0.117,0.702-0.186c0.043,0,0.077-0.018,0.112-0.043
			c0.698-0.178,1.21-0.572,1.534-1.184c0.305-0.617,0.357-1.258,0.151-1.918C85.447,7.434,85.055,6.939,84.439,6.631z"/>
		<path fill="#F395BE" d="M148.484,35.488c0.456,0.211,0.913,0.223,1.378,0.074c0.444-0.16,0.793-0.449,0.996-0.918l1.268-2.742
			c0.055-0.16,0.132-0.395,0.197-0.674c0.082-0.629-0.099-1.201-0.5-1.682c-0.397-0.494-0.9-0.771-1.495-0.846
			c-0.639-0.061-1.193,0.1-1.668,0.512c-0.499,0.395-0.78,0.906-0.853,1.549l-0.319,2.934c-0.061,0.395-0.009,0.729,0.186,1.055
			C147.869,35.07,148.13,35.305,148.484,35.488z"/>
		<path fill="#F395BE" d="M174.855,47.789c-0.13-0.32-0.324-0.537-0.604-0.684c-0.315-0.148-0.62-0.148-0.922-0.031
			c-0.297,0.117-0.522,0.32-0.659,0.615c-0.21,0.463-0.435,0.949-0.685,1.412c-0.254,0.457-0.499,0.906-0.78,1.363
			c-0.283,0.449-0.564,0.906-0.845,1.312c-0.283,0.426-0.555,0.832-0.848,1.215c-0.629,0.832-1.311,1.578-2.038,2.201l-0.538,0.469
			c-0.282,0.148-0.467,0.277-0.575,0.381l-0.572,0.248c-0.293,0.086-0.456,0.104-0.534,0.104c-0.171,0.086-0.325,0.086-0.474,0
			c-0.064,0-0.176-0.018-0.314-0.104c-0.064-0.014-0.176-0.105-0.314-0.248l-0.314-0.381l-0.163-0.26
			c0.077-0.178,0.132-0.369,0.194-0.572c0.055-0.203,0.107-0.426,0.175-0.629c0.077-0.248,0.148-0.482,0.226-0.717
			c0.056-0.234,0.133-0.467,0.197-0.715l0.314-1.516l0.159-1.621c0-0.18,0-0.322,0-0.457c0-0.117-0.011-0.277-0.054-0.438
			c0-0.191-0.01-0.352-0.023-0.512c-0.018-0.16-0.049-0.32-0.082-0.494c-0.064-0.352-0.176-0.703-0.314-1.053l-0.314-0.482
			c0-0.031,0-0.043,0.031-0.043c0.009,0,0.021-0.018,0.021-0.061c0.099-0.58-0.013-1.123-0.336-1.621
			c-0.346-0.494-0.802-0.789-1.397-0.889h-0.107l-0.056-0.061h-0.203c-0.099-0.025-0.25-0.057-0.426-0.057
			c-0.336,0-0.604,0.031-0.789,0.057c-0.413,0.029-0.822,0.16-1.205,0.369c-0.388,0.246-0.681,0.449-0.896,0.58l-0.682,0.615
			l-0.629,0.6l-0.478,0.629c-0.173,0.201-0.327,0.404-0.466,0.629c-0.142,0.201-0.269,0.436-0.422,0.684
			c-0.173,0.203-0.314,0.406-0.433,0.629c-0.085,0.221-0.219,0.424-0.357,0.629l-0.252,0.469c-0.083,0.141-0.181,0.289-0.281,0.436
			c-0.475,0.717-0.975,1.463-1.46,2.189l-3.102,4.414l-1.569,2.158l-1.58,2.164c-0.281,0.352-0.562,0.703-0.827,1.055
			c-0.258,0.346-0.526,0.697-0.811,1.047c-0.28,0.395-0.555,0.729-0.835,1.08c-0.281,0.326-0.562,0.646-0.854,0.967l-0.153,0.16
			l0.11-1.01c0.031-0.408,0.099-0.834,0.153-1.252c0.072-0.426,0.127-0.85,0.204-1.32l0.629-2.508
			c0.226-0.877,0.456-1.738,0.682-2.584c0.258-0.852,0.519-1.684,0.805-2.527l0.897-2.527l0.465-1.258l0.219-0.629
			c0.062-0.074,0.105-0.143,0.116-0.26c0.031-0.104,0.074-0.209,0.144-0.326c0.076-0.203,0.107-0.346,0.107-0.463
			c0.13-0.586,0.013-1.158-0.346-1.682c-0.357-0.525-0.86-0.846-1.442-0.932c-0.607-0.105-1.159,0-1.68,0.346
			c-0.553,0.369-0.854,0.852-0.953,1.48l-0.497,2.785l-1.889,3.359l-3.345,5.803c-0.564,0.93-1.138,1.879-1.71,2.816
			c-0.575,0.963-1.163,1.887-1.759,2.787c-0.279,0.5-0.572,0.969-0.864,1.418c-0.303,0.469-0.607,0.918-0.932,1.375l-0.357,0.469
			c0-0.18,0.009-0.297,0.043-0.365c0-0.486,0.031-0.998,0.053-1.492c0.029-0.51,0.099-1.021,0.176-1.547
			c0.129-1.041,0.28-2.033,0.435-3.051c0.148-1.023,0.345-2.047,0.549-3.059c0.356-2.027,0.77-4.074,1.266-6.146
			c0.238-1.004,0.482-2.027,0.74-3.051c0.246-1.023,0.506-2.029,0.789-3.041c0.487-2.047,1.008-4.062,1.572-6.072
			c0.552-2.033,1.138-4.031,1.732-6.023c0.26-0.961,0.555-1.922,0.844-2.859l4.107-0.512h0.098c0.596-0.1,1.086-0.406,1.45-0.92
			c0.356-0.512,0.499-1.053,0.391-1.664c-0.104-0.586-0.419-1.053-0.909-1.43c-0.519-0.369-1.073-0.5-1.668-0.395l-2.094,0.352
			l0.521-1.621l0.456-1.523l0.487-1.461c0.173-0.566,0.134-1.109-0.11-1.633c-0.238-0.525-0.66-0.895-1.256-1.111
			c-0.605-0.246-1.167-0.246-1.723,0c-0.529,0.248-0.909,0.674-1.116,1.271l-0.063,0.115l-0.044,0.105l-0.271,0.875v0.057
			l-0.314,1.096l-0.639,2.104c-0.194,0.746-0.435,1.473-0.65,2.188c-0.031,0.119-0.064,0.223-0.108,0.322l-37.961,6.27l0.154-0.309
			l0.743-1.578l0.727-1.635c0.143-0.277,0.272-0.541,0.359-0.832c0.12-0.277,0.218-0.572,0.326-0.85
			c0.073-0.131,0.128-0.277,0.194-0.42c0.039-0.135,0.095-0.295,0.172-0.455c0.065-0.143,0.121-0.309,0.121-0.469
			c0.032-0.143,0.061-0.303,0.138-0.48l0.167-0.58c0-0.191,0.021-0.297,0.042-0.371v-0.844l-0.099-0.523l-0.166-0.383l-0.312-0.469
			l-0.521-0.48l-0.625-0.289c-0.189-0.045-0.392-0.062-0.629-0.062c-0.077,0-0.133-0.012-0.164-0.043
			c-0.033-0.014-0.086,0-0.15,0.043c-0.154,0-0.24,0.018-0.26,0.031c-0.055,0.012-0.099,0.031-0.175,0.031L98.665,23.4l-0.314,0.203
			c-0.176,0.104-0.283,0.203-0.324,0.307c-0.067,0.045-0.11,0.088-0.132,0.119c-0.021,0.043-0.043,0.074-0.077,0.098l-0.259,0.309
			l-0.173,0.334c-0.12,0.189-0.219,0.35-0.25,0.467l-0.466,0.895l-0.693,1.678l-0.615,1.621c-0.121,0.295-0.22,0.572-0.327,0.85
			c-0.107,0.279-0.196,0.568-0.268,0.846c-0.242,0.598-0.427,1.141-0.577,1.621l-0.779,2.379l-3.793,0.617
			c-0.271,0.086-0.509,0.234-0.704,0.469c-0.183,0.217-0.251,0.461-0.183,0.74c0.031,0.32,0.164,0.572,0.401,0.764
			c0.224,0.203,0.485,0.26,0.81,0.186l2.72-0.303c-0.099,0.303-0.192,0.611-0.281,0.9c-0.086,0.309-0.176,0.615-0.237,0.926
			l-0.206,0.684l-0.574,1.418l-1.322,3.168l-0.314,0.777l-0.314,0.846l-0.628,1.559v0.074c-0.143,0.455-0.021,0.82,0.37,1.098
			c0.104,0.074,0.258,0.129,0.464,0.221c-0.171,0.58-0.312,1.197-0.442,1.795c-0.13,0.629-0.262,1.227-0.392,1.824
			c-0.282,1.129-0.534,2.238-0.736,3.391c-0.216,1.141-0.444,2.275-0.694,3.428L87.038,61.4l-0.314,1.738l-0.518,3.404
			c-0.034,0.295-0.065,0.586-0.077,0.906c-0.021,0.309-0.064,0.617-0.142,0.875l-0.151,1.758c-0.031,0.277-0.053,0.566-0.053,0.887
			c0,0.309,0,0.617,0,0.895v0.949c0.043,0.172,0.053,0.32,0.053,0.463c0,0.148,0.034,0.295,0.11,0.486
			c0,0.129,0.028,0.303,0.096,0.523c0.044,0.057,0.065,0.148,0.087,0.248c0.012,0.115,0.067,0.221,0.132,0.32
			c0.028,0.178,0.173,0.369,0.41,0.572l0.367,0.32c0.077,0.045,0.154,0.074,0.238,0.1c0.089,0.031,0.175,0.062,0.24,0.062
			c0.072,0.043,0.16,0.055,0.237,0.055c0.089,0,0.153,0,0.185,0c0.073,0,0.141-0.012,0.172-0.025
			c0.057-0.018,0.124-0.029,0.195-0.029l0.576-0.162c0.293-0.148,0.594-0.32,0.955-0.523c0.45-0.309,0.918-0.721,1.415-1.201
			c0.209-0.26,0.413-0.48,0.616-0.686c0.231-0.221,0.426-0.438,0.589-0.689c0.389-0.451,0.746-0.932,1.082-1.387
			c0.336-0.48,0.673-0.963,1.03-1.461l1.87-2.936l1.801-2.947l0.835-1.521l0.857-1.518c0.552-1.023,1.104-2.027,1.645-3.051
			c0.014-0.02,0.035-0.045,0.045-0.074l-0.064,0.289l-0.479,2.613l-0.356,2.75l-0.107,1.357v1.473l0.107,0.789
			c0.021,0.148,0.056,0.266,0.099,0.383c0.031,0.129,0.086,0.277,0.153,0.469l0.27,0.512c0.098,0.172,0.258,0.332,0.464,0.48
			c0.143,0.104,0.39,0.215,0.737,0.363c0.076,0,0.132,0,0.185,0.012c0.053,0.031,0.117,0.031,0.185,0.031h0.423
			c0.035-0.031,0.074-0.043,0.104-0.043c0.099,0,0.197-0.012,0.265-0.043c0.118,0,0.269-0.043,0.476-0.105
			c0.142-0.086,0.269-0.129,0.389-0.203c0.12-0.043,0.25-0.098,0.392-0.172c0.249-0.148,0.475-0.297,0.693-0.457
			c0.204-0.141,0.398-0.32,0.586-0.492c0.367-0.352,0.715-0.684,1.018-1.025c0.293-0.338,0.585-0.684,0.854-1.078
			c0.562-0.744,1.085-1.479,1.58-2.207l1.477-2.305l1.471-2.441c0.034,0.32,0.067,0.66,0.077,0.992
			c0.021,0.32,0.064,0.672,0.142,1.023c0.062,0.172,0.107,0.363,0.129,0.555c0.01,0.191,0.031,0.383,0.065,0.543l0.16,0.523
			c0.056,0.148,0.12,0.363,0.274,0.641c0.061,0.105,0.117,0.203,0.181,0.322c0.045,0.104,0.121,0.221,0.229,0.369l0.423,0.301
			c0.076,0.076,0.163,0.137,0.279,0.162c0.146,0.029,0.252,0.061,0.349,0.104h0.572c0.077,0,0.231-0.043,0.437-0.104l0.615-0.303
			c0.219-0.117,0.379-0.234,0.533-0.383l0.432-0.363l0.533-0.598c-0.021,0.203-0.056,0.406-0.067,0.598
			c-0.031,0.129-0.064,0.363-0.064,0.672c0,0.291,0.033,0.512,0.064,0.697l0.099,0.369c0.074,0.203,0.139,0.365,0.216,0.463
			c0.067,0.074,0.132,0.135,0.182,0.223c0.047,0.061,0.133,0.117,0.231,0.203c0.216,0.129,0.389,0.234,0.53,0.264
			c0.077,0,0.163,0.014,0.259,0.031c0.099,0.014,0.197,0.014,0.26,0.014l0.421-0.088c0.283-0.092,0.513-0.148,0.697-0.221
			l0.574-0.32l0.53-0.408c0.163-0.146,0.325-0.275,0.464-0.412c0.154-0.1,0.303-0.26,0.478-0.438l0.79-0.889
			c0.478-0.598,0.945-1.227,1.365-1.867c0.413-0.66,0.836-1.289,1.205-1.932l1.104-2.002l1.106-1.984
			c0.693-1.332,1.386-2.676,2.038-4.021c0.678-1.355,1.318-2.699,1.947-4.088c0.151-0.275,0.271-0.555,0.396-0.873
			c0.122-0.322,0.275-0.611,0.437-0.908c-0.021,0.074-0.031,0.18-0.031,0.322c-0.207,1.055-0.435,2.102-0.643,3.125
			c-0.202,1.035-0.399,2.078-0.572,3.125c-0.176,1.023-0.357,2.061-0.521,3.096c-0.183,1.055-0.336,2.107-0.487,3.174
			c-0.176,1.035-0.303,2.104-0.413,3.182c-0.113,1.055-0.183,2.121-0.259,3.17c-0.074,0.555-0.108,1.098-0.108,1.633
			c0,0.531,0,1.066,0,1.627c0,0.291,0.01,0.555,0.034,0.846c0.009,0.277,0.03,0.543,0.074,0.844
			c0.033,0.277,0.076,0.555,0.098,0.834c0.048,0.275,0.087,0.572,0.161,0.83c0.067,0.254,0.197,0.457,0.37,0.588
			c0.203,0.178,0.456,0.246,0.736,0.232c0.283-0.012,0.509-0.148,0.685-0.381c0.379-0.463,0.728-0.92,1.051-1.389
			c0.173-0.203,0.336-0.418,0.509-0.641c0.142-0.234,0.314-0.469,0.479-0.703c0.322-0.506,0.637-0.973,0.952-1.441
			c0.314-0.438,0.606-0.908,0.896-1.406c0.598-0.949,1.181-1.898,1.757-2.83c0.586-0.967,1.159-1.93,1.711-2.891
			c0.595-0.992,1.172-1.961,1.712-2.922c0.248-0.438,0.507-0.895,0.761-1.332l-0.369,2.09l-0.155,1.312l-0.216,1.375
			c-0.03,0.234-0.065,0.48-0.087,0.703c-0.012,0.234-0.033,0.449-0.033,0.697c-0.009,0.221-0.044,0.443-0.062,0.672
			c0,0.221-0.035,0.469-0.035,0.721c-0.029,0.506-0.029,1.006,0,1.455c0,0.135,0.035,0.283,0.035,0.395
			c0.018,0.135,0.053,0.277,0.062,0.455c0,0.074,0.055,0.205,0.12,0.408c0.076,0.203,0.15,0.383,0.216,0.543
			c0.099,0.203,0.253,0.406,0.478,0.627c0.056,0.074,0.13,0.119,0.208,0.162c0.063,0.012,0.149,0.055,0.267,0.098
			c0.21,0.062,0.358,0.105,0.469,0.105h0.099c0.043,0,0.053,0,0.033,0.031c-0.012,0,0.02,0,0.127-0.031h0.154
			c0.074,0,0.105-0.012,0.105-0.057h0.11l0.043-0.049h0.056l0.055-0.055l0.115-0.043l0.132-0.117l0.118-0.117
			c0.153-0.131,0.23-0.234,0.262-0.297c0.173-0.111,0.336-0.289,0.475-0.535l0.478-0.574l1.638-2.158l1.58-2.145l3.142-4.428
			l0.207-0.277c-0.12,0.42-0.197,0.846-0.262,1.283c-0.062,0.246-0.127,0.48-0.151,0.703c-0.045,0.232-0.065,0.48-0.108,0.77
			c-0.033,0.285-0.043,0.543-0.043,0.789c0,0.234,0,0.5,0,0.791c0.01,0.275,0.053,0.555,0.099,0.832
			c0.031,0.277,0.077,0.572,0.151,0.85l0.432,0.832c0.055,0.191,0.166,0.334,0.279,0.451c0.134,0.117,0.252,0.252,0.404,0.383
			c0.13,0.146,0.268,0.264,0.436,0.332c0.159,0.074,0.334,0.135,0.495,0.203c0.297,0.135,0.62,0.209,0.996,0.209h0.489
			c0.194,0,0.371-0.029,0.456-0.043c0.293-0.043,0.596-0.135,0.91-0.266c0.271-0.104,0.53-0.221,0.777-0.363
			c0.252-0.146,0.478-0.307,0.684-0.486c0.247-0.172,0.466-0.363,0.673-0.555c0.185-0.186,0.367-0.363,0.542-0.537
			c0.663-0.777,1.257-1.59,1.784-2.441c0.49-0.758,0.965-1.633,1.421-2.613c0-0.057,0.044-0.148,0.097-0.203
			c0.218,0.172,0.499,0.309,0.835,0.406c0.357,0.148,0.749,0.254,1.167,0.32c0.211,0,0.415,0,0.607-0.023
			c0.198-0.02,0.37-0.043,0.557-0.074c0.418-0.117,0.735-0.223,0.941-0.365l0.843-0.486c0.132-0.055,0.271-0.143,0.391-0.234
			c0.134-0.086,0.229-0.186,0.349-0.289l0.682-0.568c0.413-0.393,0.813-0.807,1.181-1.244c0.357-0.438,0.703-0.877,1.029-1.301
			c0.682-0.889,1.323-1.807,1.883-2.713c0.557-0.918,1.141-1.826,1.735-2.75c0-0.025,0.01-0.043,0.031-0.055
			c0.013-0.031,0.024-0.057,0.024-0.088C174.975,48.404,174.975,48.098,174.855,47.789z M101.243,26.975 M128.192,51.383
			c-0.474,1.066-0.973,2.145-1.471,3.244c-0.162,0.307-0.323,0.627-0.49,0.961c-0.159,0.338-0.335,0.658-0.505,0.967l-1.097,1.955
			c-0.387,0.703-0.756,1.332-1.102,1.898l-1.257,1.781c-0.107,0.137-0.22,0.266-0.323,0.395c-0.099,0.117-0.221,0.248-0.358,0.395
			c-0.253,0.322-0.491,0.543-0.739,0.691l-0.367,0.301l-0.383,0.205l-0.388-0.537l0.142-1.77c0.099-0.352,0.65-2.23,0.78-2.539
			c0.216-0.574,0.746-1.738,0.9-1.986l1.763-3.422c0,0,1.951-3.648,3.101-4.426c0,0,2.752-1.195,2.879-1.238
			c0.12-0.031,0.25-0.105,0.392-0.16C129.178,49.219,128.682,50.316,128.192,51.383z M132.146,41.951
			c-0.483,1.25-0.982,2.521-1.47,3.797c-0.185-0.469-0.443-0.832-0.835-1.115c-0.355-0.271-0.79-0.408-1.279-0.377h-0.314
			c-0.169,0-0.29,0.031-0.367,0.057l-0.572,0.16c-0.173,0.061-0.327,0.146-0.466,0.252c-0.142,0.074-0.283,0.143-0.422,0.215
			c-0.26,0.18-0.469,0.34-0.639,0.5c-0.166,0.16-0.349,0.332-0.533,0.512l-0.78,1.035c-0.142,0.205-0.259,0.354-0.367,0.512
			c-0.099,0.148-0.206,0.32-0.314,0.494c-0.206,0.352-0.425,0.689-0.629,1.023c-0.216,0.34-0.413,0.715-0.585,1.086
			c-0.164,0.344-0.337,0.684-0.486,1.016c-0.174,0.34-0.338,0.691-0.497,1.023c-0.357,0.715-0.684,1.406-0.977,2.104
			c-0.314,0.721-0.6,1.418-0.869,2.107l-0.367,1.006c-0.139,0.221-0.28,0.449-0.42,0.684c-0.11,0.137-0.209,0.266-0.293,0.395
			c-0.076,0.117-0.166,0.252-0.24,0.395l-0.573,0.734c-0.099,0.129-0.206,0.277-0.293,0.395c-0.089,0.117-0.188,0.215-0.28,0.332
			l-0.586,0.672l-0.637,0.641c-0.275,0.211-0.49,0.352-0.634,0.426h-0.039c-0.043-0.031-0.043-0.115-0.043-0.258
			c-0.047-0.105-0.068-0.254-0.068-0.426l-0.108-0.832c0-0.277,0-0.586,0-0.906s0.021-0.629,0.057-0.949
			c0.12-1.289,0.268-2.527,0.478-3.725c0.039-0.178,0.049-0.338,0.07-0.469c0.024-0.148,0.067-0.309,0.154-0.48l0.134-0.938
			l0.279-0.949V51.98l0.096-0.203h-0.053l0.053-0.117l0.043-0.246l0.064-0.117c0-0.02,0.013-0.074,0.056-0.105l-0.056-0.727
			c-0.043-0.48-0.203-0.926-0.505-1.289c-0.297-0.363-0.693-0.598-1.184-0.697c-0.596-0.148-1.137-0.061-1.624,0.26
			c-0.487,0.309-0.802,0.758-0.953,1.363c0,0.066-0.012,0.129-0.046,0.16v0.16l-0.105,0.246v0.055l-0.163,0.648
			c-0.067,0.203-0.142,0.406-0.206,0.609c-0.074,0.223-0.151,0.408-0.219,0.586c-0.127,0.426-0.26,0.846-0.387,1.258
			c-0.12,0.42-0.273,0.832-0.446,1.209c-0.595,1.547-1.275,3.145-2.047,4.789l-1.201,2.25c-0.216,0.396-0.435,0.76-0.673,1.086
			c-0.225,0.334-0.456,0.672-0.705,1.018c-0.099,0.178-0.217,0.352-0.346,0.5c-0.12,0.172-0.26,0.332-0.392,0.512l-0.777,0.906
			c-0.356,0.301-0.641,0.51-0.835,0.609l-0.443,0.223c-0.022,0-0.057,0-0.057,0.012c-0.031,0.031-0.051,0.031-0.099,0.031h-0.043
			c-0.031-0.043-0.064-0.088-0.064-0.16c0-0.076-0.013-0.131-0.052-0.205c0-0.074,0-0.16-0.009-0.264
			c-0.014-0.105-0.035-0.191-0.035-0.246V64.91l0.16-1.24l0.198-1.275l0.271-1.252l0.638-2.484c0.238-0.832,0.497-1.664,0.777-2.484
			c0.286-0.832,0.567-1.635,0.848-2.455l0.476-1.27l0.468-1.195c0.12-0.18,0.194-0.371,0.281-0.586
			c0.099-0.203,0.175-0.406,0.249-0.629c0.129-0.174,0.219-0.363,0.262-0.566l0.161-0.266l0.142-0.32l0.161-0.525
			c0.11-0.586-0.01-1.127-0.337-1.641c-0.323-0.479-0.786-0.787-1.387-0.93c-0.596-0.104-1.147,0.012-1.625,0.334
			c-0.497,0.338-0.82,0.789-0.94,1.387l-0.118,0.691l-0.166,0.621l-0.526,2.688l-1.206,2.527l-3.196,6.092l-0.799,1.473l-0.891,1.48
			l-1.731,2.936c-0.323,0.492-0.629,0.979-0.947,1.441c-0.324,0.488-0.637,0.949-0.961,1.406c-0.69,0.932-1.363,1.836-2.035,2.67
			c-0.176,0.221-0.357,0.426-0.555,0.646c-0.194,0.191-0.396,0.395-0.607,0.566c-0.171,0.18-0.367,0.34-0.573,0.5
			c-0.202,0.16-0.401,0.303-0.582,0.451c-0.21,0.178-0.426,0.277-0.629,0.32c-0.043,0.029-0.11,0.043-0.209,0.043l-0.053-0.043
			c0-0.043-0.014-0.074-0.019-0.088c-0.021-0.012-0.034-0.055-0.034-0.129c-0.043-0.074-0.055-0.191-0.055-0.369
			c-0.031-0.143-0.044-0.395-0.044-0.729c-0.076-0.246-0.076-0.512,0-0.789c0-0.289,0-0.566,0.021-0.82
			c0.022-0.258,0.034-0.535,0.077-0.812c0.074-0.574,0.161-1.129,0.225-1.695c0.1-0.555,0.195-1.109,0.293-1.664
			c0.111-0.555,0.229-1.111,0.358-1.666c0.12-0.543,0.248-1.098,0.392-1.652c0.056-0.277,0.116-0.555,0.171-0.844
			c0.066-0.277,0.122-0.574,0.198-0.832l0.419-1.641l0.879-3.316c0.173-0.555,0.357-1.109,0.521-1.646
			c0.151-0.543,0.312-1.098,0.487-1.652c0.314-1.096,0.641-2.176,0.978-3.254c0.336-1.098,0.69-2.178,1.069-3.275
			c0.366-1.109,0.702-2.207,1.052-3.273c0.357-1.078,0.728-2.156,1.106-3.242c0.07-0.277,0.138-0.537,0.236-0.789
			c0.086-0.246,0.17-0.494,0.28-0.77c0.186-0.365,0.37-0.703,0.586-1.037c0.207-0.32,0.401-0.703,0.576-1.084l37.95-4.674
			l-0.568,1.641c-0.245,0.695-0.496,1.387-0.742,2.102c-0.253,0.684-0.503,1.4-0.792,2.104
			C133.103,39.404,132.637,40.693,132.146,41.951z M160.337,56.395c-0.117,0.32-0.227,0.629-0.337,0.92
			c-0.314,0.832-0.671,1.65-1.048,2.391c-0.456,0.852-0.934,1.566-1.418,2.164l-0.889,0.852c-0.286,0.246-0.588,0.438-0.902,0.58
			c-0.204,0.061-0.357,0.104-0.42,0.104c-0.063,0-0.11,0.012-0.132,0.012c-0.021,0.031-0.044,0.031-0.077,0.031h-0.259l-0.38-0.104
			c-0.033,0-0.116-0.025-0.249-0.1l-0.173-0.266c-0.062-0.074-0.138-0.215-0.193-0.426c-0.045-0.172-0.066-0.363-0.091-0.523
			c-0.009-0.172-0.03-0.363-0.03-0.586c0-0.172,0-0.363,0-0.566c0-0.223,0.021-0.426,0.064-0.641
			c0.035-0.203,0.064-0.414,0.099-0.629c0.043-0.203,0.09-0.426,0.151-0.629c0.053-0.203,0.086-0.426,0.142-0.629
			c0.043-0.203,0.12-0.426,0.195-0.629l0.399-1.252c0.357-0.938,0.716-1.758,1.116-2.484c0.173-0.383,0.37-0.777,0.596-1.152
			c0.228-0.383,0.468-0.777,0.718-1.172l0.367-0.566c0.062-0.062,0.117-0.148,0.185-0.234c0.043-0.088,0.108-0.191,0.173-0.297
			l0.802-0.992c0.163-0.174,0.314-0.332,0.443-0.469c0.118-0.143,0.271-0.277,0.443-0.42l0.206-0.264c0,0.129,0,0.277,0,0.406
			c0,0.16-0.008,0.277-0.042,0.383v0.895c0.034,0.172,0.042,0.32,0.042,0.449c0,0.117,0,0.266,0,0.451c0,0.135,0,0.275,0.035,0.412
			c0.021,0.141,0.021,0.309,0.021,0.469c0.061,0.275,0.117,0.566,0.159,0.855c0.035,0.309,0.091,0.6,0.155,0.883
			c0.073,0.32,0.147,0.609,0.204,0.887c0.077,0.291,0.162,0.568,0.227,0.846C160.577,55.691,160.457,56.043,160.337,56.395z"/>
	</g>
</g>
</svg>
