<?xml version="1.0" encoding="utf-8"?>
<!-- Generator: Adobe Illustrator 16.0.0, SVG Export Plug-In . SVG Version: 6.00 Build 0)  -->
<!DOCTYPE svg PUBLIC "-//W3C//DTD SVG 1.1//EN" "http://www.w3.org/Graphics/SVG/1.1/DTD/svg11.dtd">
<svg version="1.1" id="Layer_1" xmlns="http://www.w3.org/2000/svg" xmlns:xlink="http://www.w3.org/1999/xlink" x="0px" y="0px"
	 width="400px" height="191.315px" viewBox="0 0 400 191.315" enable-background="new 0 0 400 191.315" xml:space="preserve">
<g>
	<g>
		<path fill="none" stroke="#FFFFFF" stroke-width="3.1775" stroke-linecap="round" stroke-miterlimit="1" d="M240.503,180.651
			c0,0,46.706-14.679,99.634-12.649c39.801,1.516,46.989,6.092,46.989,6.092"/>
	</g>
	<path fill="none" stroke="#FFFFFF" stroke-width="2.6581" stroke-miterlimit="10" d="M312.131,132.441
		c0.656-4.77,1.026-9.629,1.026-14.576c0-59.354-48.821-107.462-109.062-107.462c-60.237,0-109.062,48.107-109.062,107.462
		c0,4.947,0.369,9.807,1.026,14.576"/>
	
		<line fill="none" stroke="#FFFFFF" stroke-width="1.0632" stroke-miterlimit="10" x1="11.558" y1="132.441" x2="387.984" y2="132.441"/>
	<g>
		<path fill="#FFFFFF" stroke="#FFFFFF" stroke-width="1.9065" stroke-miterlimit="10" d="M17.442,124.042h-5.885v-40.23h4.783
			l13.48,19.539l13.474-19.539h4.663v40.23h-5.835V95.699L31.448,111.34h-3.323L17.442,95.699V124.042z"/>
		<path fill="#FFFFFF" stroke="#FFFFFF" stroke-width="1.9065" stroke-miterlimit="10" d="M78.211,89.377
			c3.734-3.739,8.984-6.093,14.706-6.093c5.775,0,10.97,2.354,14.759,6.093c3.675,3.748,6.066,8.855,6.066,14.557
			c0,5.674-2.392,10.787-6.066,14.534c-3.789,3.79-8.983,6.088-14.759,6.088c-5.722,0-10.972-2.298-14.706-6.088
			c-3.672-3.747-6.065-8.86-6.065-14.534C72.146,98.232,74.539,93.125,78.211,89.377z M103.471,93.524
			c-2.743-2.712-6.532-4.374-10.554-4.374c-4.03,0-7.76,1.662-10.447,4.374c-2.679,2.646-4.373,6.323-4.373,10.409
			c0,4.068,1.694,7.74,4.373,10.382c2.688,2.712,6.417,4.374,10.447,4.374c4.021,0,7.811-1.662,10.554-4.374
			c2.626-2.642,4.32-6.266,4.32-10.382C107.791,99.781,106.097,96.17,103.471,93.524z"/>
		<path fill="#FFFFFF" stroke="#FFFFFF" stroke-width="1.9065" stroke-miterlimit="10" d="M137.986,124.042v-40.3l4.547,0.069
			l19.9,28.319V83.812h5.83v40.23h-4.657l-19.728-28.121v28.121H137.986z"/>
		<path fill="#FFFFFF" stroke="#FFFFFF" stroke-width="1.9065" stroke-miterlimit="10" d="M203.13,124.212V89.664h-12.371v-5.853
			h30.573v5.853h-12.317v34.548H203.13z"/>
		<path fill="#FFFFFF" stroke="#FFFFFF" stroke-width="1.9065" stroke-miterlimit="10" d="M267.039,112.196h-14.653
			c-1.57,3.682-3.604,8.513-4.896,11.846h-6.358l16.393-40.758h4.324l16.392,40.758h-6.297L267.039,112.196z M254.61,106.73h10.151
			l-5.02-14.185L254.61,106.73z"/>
		<path fill="#FFFFFF" stroke="#FFFFFF" stroke-width="1.9065" stroke-miterlimit="10" d="M299.454,124.042v-40.3l4.549,0.069
			l19.894,28.319V83.812h5.827v40.23h-4.659l-19.728-28.121v28.121H299.454z"/>
		<path fill="#FFFFFF" stroke="#FFFFFF" stroke-width="1.9065" stroke-miterlimit="10" d="M376.79,112.196h-14.651
			c-1.571,3.682-3.612,8.513-4.905,11.846h-6.357l16.4-40.758h4.314l16.394,40.758h-6.299L376.79,112.196z M364.363,106.73h10.143
			l-5.02-14.185L364.363,106.73z"/>
	</g>
	<path fill="#FFFFFF" d="M61.037,105.549c0,1.051-0.853,1.907-1.918,1.907c-1.066,0-1.921-0.856-1.921-1.907
		c0-1.035,0.854-1.883,1.921-1.883C60.185,103.666,61.037,104.514,61.037,105.549z"/>
	<path fill="#FFFFFF" d="M129.865,105.549c0,1.051-0.86,1.907-1.919,1.907c-1.063,0-1.928-0.856-1.928-1.907
		c0-1.035,0.864-1.883,1.928-1.883C129.005,103.666,129.865,104.514,129.865,105.549z"/>
	<path fill="#FFFFFF" d="M186.205,105.549c0,1.051-0.862,1.907-1.926,1.907c-1.059,0-1.914-0.856-1.914-1.907
		c0-1.035,0.855-1.883,1.914-1.883C185.343,103.666,186.205,104.514,186.205,105.549z"/>
	<path fill="#FFFFFF" d="M231.501,105.549c0,1.051-0.863,1.907-1.922,1.907s-1.921-0.856-1.921-1.907
		c0-1.035,0.862-1.883,1.921-1.883S231.501,104.514,231.501,105.549z"/>
	<path fill="#FFFFFF" d="M288.484,105.549c0,1.051-0.864,1.907-1.933,1.907c-1.046,0-1.911-0.856-1.911-1.907
		c0-1.035,0.865-1.883,1.911-1.883C287.62,103.666,288.484,104.514,288.484,105.549z"/>
	<path fill="#FFFFFF" d="M346.501,105.549c0,1.051-0.855,1.907-1.914,1.907c-1.058,0-1.923-0.856-1.923-1.907
		c0-1.035,0.865-1.883,1.923-1.883C345.646,103.666,346.501,104.514,346.501,105.549z"/>
	<polyline fill="none" stroke="#231F20" stroke-width="0.6355" stroke-miterlimit="10" points="14.088,122.159 14.088,86.307 
		29.76,108.067 44.924,86.307 44.924,122.159 	"/>
	<path fill="none" stroke="#231F20" stroke-width="0.6355" stroke-miterlimit="10" d="M111.193,104.075
		c0,9.807-8.076,17.769-18.04,17.769c-9.958,0-18.028-7.962-18.028-17.769c0-9.812,8.07-17.769,18.028-17.769
		C103.117,86.307,111.193,94.264,111.193,104.075z"/>
	<polyline fill="none" stroke="#231F20" stroke-width="0.6355" stroke-miterlimit="10" points="141.068,121.844 141.068,86.307 
		165.188,121.844 165.188,86.307 	"/>
	
		<line fill="none" stroke="#231F20" stroke-width="0.6355" stroke-miterlimit="10" x1="192.82" y1="86.307" x2="219.074" y2="86.307"/>
	
		<line fill="none" stroke="#231F20" stroke-width="0.6355" stroke-miterlimit="10" x1="205.952" y1="86.307" x2="205.952" y2="122.479"/>
	<g>
		<polyline fill="none" stroke="#231F20" stroke-width="0.6355" stroke-miterlimit="10" points="244.434,121.844 259.683,85.248 
			274.346,122.479 		"/>
		
			<line fill="none" stroke="#231F20" stroke-width="0.6355" stroke-miterlimit="10" x1="249.764" y1="109.052" x2="269.053" y2="109.052"/>
	</g>
	<polyline fill="none" stroke="#231F20" stroke-width="0.6355" stroke-miterlimit="10" points="302.526,121.844 302.526,86.307 
		326.648,121.844 326.648,86.307 	"/>
	<g>
		<g>
			<path fill="#231F20" d="M302.029,120.921c-0.184,0.057-0.367,0.099-0.534,0.146c-0.18,0.041-0.38,0.089-0.555,0.131l-1.145,0.292
				l-2.241,0.589c-0.722,0.226-1.453,0.438-2.2,0.649c-0.729,0.212-1.484,0.433-2.241,0.679c-1.463,0.456-2.932,0.927-4.385,1.407
				c-1.443,0.476-2.905,0.988-4.375,1.525c-1.469,0.536-2.902,1.093-4.314,1.686c-1.41,0.588-2.806,1.215-4.19,1.883
				c-0.682,0.358-1.38,0.692-2.041,1.05c-0.682,0.345-1.353,0.702-1.997,1.084c-0.598,0.343-1.237,0.734-1.917,1.158
				c-0.327,0.226-0.635,0.437-0.948,0.649c-0.284,0.212-0.588,0.423-0.892,0.645c-0.293,0.235-0.585,0.48-0.872,0.701
				c-0.283,0.212-0.544,0.471-0.798,0.739c-0.511,0.443-0.981,0.993-1.416,1.606c-0.44,0.611-0.734,1.205-0.901,1.761
				c-0.06,0.169-0.093,0.324-0.117,0.479c-0.033,0.169-0.058,0.325-0.093,0.447c-0.051,0.367-0.034,0.679,0.052,0.913
				c0.024,0.146,0.056,0.269,0.099,0.391c0.033,0.123,0.093,0.235,0.186,0.334c0.124,0.222,0.335,0.435,0.605,0.646
				c0.19,0.137,0.451,0.302,0.814,0.48c0.168,0.057,0.337,0.122,0.487,0.159c0.157,0.053,0.335,0.109,0.495,0.165
				c0.344,0.113,0.704,0.18,1.082,0.222c0.36,0.038,0.731,0.09,1.115,0.138c0.38,0.065,0.758,0.089,1.136,0.107
				c0.384,0.014,0.765,0.037,1.142,0.057h1.143c0.193,0,0.384-0.01,0.57-0.02c0.194-0.013,0.387-0.013,0.578-0.013
				c0.371,0,0.765-0.011,1.152-0.024c0.395-0.019,0.791-0.032,1.158-0.065l2.325-0.165l2.36-0.155l2.327-0.16l2.358-0.123
				c0.788-0.051,1.587-0.089,2.368-0.089c0.79-0.019,1.579,0,2.37,0.057c0.392,0,0.798,0,1.199,0.032
				c0.394,0.024,0.791,0.07,1.199,0.123c0.373,0.057,0.765,0.123,1.188,0.179c0.401,0.07,0.796,0.16,1.173,0.26
				c0.799,0.188,1.58,0.479,2.371,0.847c0.4,0.211,0.754,0.457,1.056,0.725c0.187,0.132,0.36,0.27,0.501,0.414
				c0.153,0.156,0.297,0.297,0.439,0.467c0.32,0.4,0.555,0.781,0.688,1.125c0.103,0.212,0.191,0.414,0.268,0.617
				c0.053,0.197,0.13,0.409,0.177,0.621c0.084,0.405,0.12,0.829,0.12,1.253v1.092c-0.026,0.043-0.036,0.089-0.036,0.146
				c-0.084,0.857-0.311,1.662-0.686,2.406c-0.17,0.382-0.363,0.739-0.581,1.097c-0.21,0.344-0.461,0.688-0.722,1.036
				c-0.253,0.312-0.513,0.626-0.781,0.913c-0.27,0.27-0.563,0.561-0.857,0.849c-0.568,0.568-1.175,1.091-1.833,1.571
				c-0.628,0.48-1.273,0.937-1.928,1.352c-0.672,0.447-1.345,0.847-2.033,1.261c-1.376,0.769-2.789,1.494-4.188,2.162
				c-1.412,0.669-2.849,1.305-4.318,1.888c-1.471,0.612-2.931,1.168-4.4,1.694c-0.762,0.255-1.503,0.522-2.241,0.782
				c-0.729,0.244-1.459,0.499-2.193,0.735l-2.24,0.725l-2.285,0.678c-0.738,0.212-1.477,0.437-2.217,0.64
				c-0.762,0.222-1.52,0.434-2.309,0.646c-1.528,0.447-3.021,0.857-4.524,1.205l-2.284,0.603c-0.371,0.075-0.748,0.165-1.136,0.255
				c-0.377,0.099-0.764,0.202-1.142,0.315l-4.568,1.035l-2.317,0.49l-1.711,0.357l-0.606,0.113c-0.385,0.089-0.723,0.019-1.025-0.18
				c-0.294-0.192-0.478-0.471-0.528-0.828c-0.073-0.367-0.025-0.701,0.17-0.988c0.184-0.301,0.471-0.495,0.855-0.57h0.076
				l0.571-0.08l0.568-0.122l1.145-0.155c0.376-0.09,0.763-0.155,1.14-0.222c0.37-0.057,0.756-0.127,1.136-0.179l4.61-0.885
				l2.275-0.476c0.385-0.089,0.765-0.17,1.14-0.25c0.39-0.085,0.765-0.174,1.145-0.277c0.764-0.165,1.512-0.334,2.267-0.514
				c0.738-0.164,1.493-0.334,2.258-0.546c0.756-0.179,1.513-0.357,2.258-0.546c0.741-0.188,1.503-0.391,2.261-0.604
				c0.387-0.098,0.755-0.211,1.125-0.324c0.368-0.108,0.739-0.222,1.116-0.319l2.2-0.636c1.496-0.457,2.966-0.938,4.416-1.432
				c1.454-0.499,2.917-1.027,4.394-1.582c1.4-0.569,2.839-1.172,4.274-1.809c0.705-0.319,1.396-0.645,2.074-0.979
				c0.678-0.349,1.361-0.691,2.031-1.083c0.688-0.367,1.335-0.758,1.964-1.172c0.616-0.41,1.244-0.848,1.882-1.304
				c0.287-0.213,0.581-0.447,0.865-0.693c0.284-0.234,0.578-0.489,0.875-0.757c0.268-0.245,0.544-0.48,0.771-0.759
				c0.251-0.268,0.504-0.546,0.738-0.847c0.227-0.293,0.427-0.58,0.614-0.896c0.184-0.32,0.36-0.621,0.525-0.946
				c0.146-0.325,0.248-0.649,0.346-0.96c0.094-0.326,0.175-0.669,0.218-1.036c0.033-0.032,0.043-0.08,0.043-0.122v-0.405
				c0.033-0.123,0.043-0.287,0.043-0.532l-0.119-0.993c-0.157-0.669-0.454-1.285-0.855-1.808c-0.396-0.514-0.941-0.937-1.586-1.296
				c-0.607-0.286-1.286-0.546-2.076-0.757c-0.629-0.189-1.367-0.312-2.208-0.4c-0.378-0.047-0.763-0.099-1.143-0.122
				c-0.367-0.024-0.755-0.033-1.132-0.033c-0.789-0.057-1.563-0.079-2.327-0.057c-0.763,0-1.537,0.032-2.318,0.09l-2.326,0.122
				l-2.315,0.202l-2.325,0.155l-2.317,0.213l-2.371,0.154c-0.217,0-0.428,0-0.611,0c-0.187,0-0.377,0.01-0.561,0.033h-1.227
				c-0.389,0.034-0.773,0.047-1.188,0.023c-0.401-0.014-0.814-0.033-1.226-0.057c-0.375-0.056-0.771-0.098-1.183-0.146
				c-0.403-0.033-0.824-0.113-1.25-0.222c-0.412-0.08-0.824-0.192-1.225-0.357c-0.467-0.188-0.875-0.399-1.229-0.646
				c-0.378-0.234-0.722-0.569-1.018-1.008c-0.325-0.441-0.538-0.903-0.612-1.346c-0.134-0.471-0.177-0.937-0.117-1.417
				c0-0.405,0.067-0.838,0.191-1.327c0.119-0.424,0.261-0.829,0.456-1.216c0.185-0.405,0.386-0.771,0.612-1.153
				c0.244-0.376,0.487-0.734,0.755-1.035c0.253-0.321,0.521-0.637,0.791-0.923c0.301-0.292,0.604-0.594,0.898-0.861
				c0.291-0.288,0.595-0.556,0.898-0.825c0.621-0.546,1.259-1.035,1.916-1.496c0.645-0.443,1.316-0.891,1.997-1.314
				c0.672-0.423,1.351-0.847,2.033-1.252c0.679-0.399,1.366-0.777,2.078-1.158c0.708-0.382,1.422-0.733,2.144-1.068
				c0.715-0.334,1.427-0.674,2.134-1.017c0.705-0.326,1.42-0.646,2.141-0.971c0.722-0.325,1.446-0.626,2.177-0.928
				c1.46-0.611,2.93-1.19,4.406-1.736c1.46-0.547,2.932-1.093,4.392-1.62c0.765-0.277,1.513-0.536,2.243-0.791
				c0.729-0.259,1.486-0.504,2.241-0.748c0.387-0.132,0.755-0.255,1.118-0.368c0.375-0.122,0.738-0.244,1.123-0.343l1.145-0.372
				l1.14-0.353c0.512-0.146,0.998-0.081,1.479,0.154c0.487,0.245,0.78,0.612,0.931,1.126c0.151,0.513,0.108,1.002-0.126,1.459
				c-0.253,0.48-0.639,0.781-1.183,0.918C302.09,120.906,302.063,120.921,302.029,120.921z"/>
		</g>
		<g>
			<path fill="#231F20" d="M306.523,139.626l2.938-0.48l0.606-1.808c0.107-0.377,0.261-0.782,0.444-1.263
				c0.06-0.188,0.126-0.409,0.208-0.635c0.076-0.197,0.162-0.424,0.244-0.636l0.486-1.237l0.531-1.291l0.36-0.682
				c0.026-0.081,0.101-0.202,0.2-0.359l0.135-0.244l0.195-0.234c0.033-0.033,0.05-0.052,0.05-0.09
				c0.024-0.019,0.064-0.043,0.118-0.075c0.023-0.081,0.109-0.171,0.243-0.236l0.241-0.165l0.406-0.159
				c0.055,0,0.091-0.01,0.132-0.019c0.025-0.015,0.085-0.015,0.202-0.015c0.051-0.033,0.094-0.043,0.117-0.033
				c0.027,0.015,0.074,0.033,0.125,0.033c0.195,0,0.363,0,0.487,0.033l0.487,0.235l0.403,0.367l0.244,0.357l0.124,0.278l0.076,0.405
				v0.644c-0.017,0.058-0.04,0.146-0.04,0.278l-0.117,0.447c-0.05,0.137-0.086,0.259-0.103,0.382
				c-0.008,0.121-0.05,0.23-0.098,0.334c-0.061,0.132-0.103,0.255-0.146,0.367c-0.041,0.1-0.084,0.212-0.141,0.325
				c-0.076,0.197-0.17,0.424-0.244,0.636c-0.076,0.221-0.17,0.433-0.284,0.645l-0.573,1.248l-0.562,1.195l-0.124,0.245l34.797-5.655
				c0.452-0.088,0.88,0.024,1.285,0.288c0.386,0.292,0.629,0.658,0.705,1.106c0.072,0.457-0.025,0.881-0.303,1.271
				s-0.662,0.612-1.118,0.691h-0.081l-36.396,4.431c-0.124,0.287-0.277,0.564-0.444,0.81c-0.16,0.269-0.311,0.527-0.444,0.796
				c-0.083,0.211-0.16,0.409-0.229,0.604c-0.064,0.173-0.132,0.376-0.174,0.598c-0.304,0.828-0.591,1.651-0.856,2.466
				c-0.276,0.824-0.537,1.653-0.814,2.51c-0.303,0.823-0.58,1.661-0.831,2.5c-0.271,0.824-0.514,1.648-0.758,2.463
				c-0.142,0.447-0.261,0.861-0.392,1.285c-0.129,0.414-0.253,0.823-0.389,1.248l-0.68,2.541l-0.327,1.239
				c-0.06,0.211-0.109,0.424-0.15,0.649c-0.043,0.212-0.094,0.423-0.144,0.645c-0.107,0.424-0.21,0.838-0.304,1.262
				c-0.1,0.424-0.184,0.838-0.269,1.271c-0.082,0.425-0.149,0.849-0.235,1.272c-0.048,0.433-0.116,0.856-0.174,1.285
				c-0.026,0.207-0.043,0.424-0.06,0.621c-0.018,0.202-0.018,0.415-0.018,0.627c-0.05,0.211-0.05,0.409,0,0.602
				c0,0.269,0.008,0.457,0.041,0.556c0,0.146,0.01,0.236,0.036,0.293c0,0.042,0.017,0.075,0.033,0.089
				c0.007,0.02,0.007,0.042,0.007,0.065l0.053,0.033c0.072,0,0.125,0,0.148-0.033c0.168-0.023,0.33-0.112,0.496-0.244
				c0.137-0.099,0.285-0.227,0.445-0.334c0.169-0.123,0.311-0.245,0.447-0.381c0.166-0.146,0.317-0.288,0.468-0.443
				c0.15-0.16,0.296-0.325,0.428-0.48c0.521-0.649,1.051-1.327,1.589-2.053c0.251-0.349,0.487-0.706,0.738-1.059
				c0.244-0.372,0.487-0.74,0.731-1.107l1.352-2.24l0.679-1.14l0.624-1.116l2.475-4.651l1.143-2.373l0.58-1.205l0.521-1.196
				c0.083-0.197,0.217-0.319,0.408-0.399c0.187-0.057,0.38-0.042,0.573,0.033c0.436,0.178,0.555,0.504,0.37,0.96v0.042l-0.623,1.163
				l-0.603,1.205l-1.228,2.316c-0.404,0.781-0.812,1.563-1.243,2.345c-0.41,0.768-0.848,1.549-1.277,2.321l-0.662,1.168
				l-0.647,1.162l-1.383,2.241l-1.463,2.256c-0.277,0.376-0.545,0.733-0.798,1.102c-0.261,0.357-0.538,0.715-0.832,1.072
				c-0.124,0.18-0.284,0.345-0.451,0.514c-0.167,0.165-0.32,0.334-0.487,0.522c-0.38,0.382-0.748,0.669-1.102,0.913
				c-0.277,0.156-0.511,0.302-0.738,0.415l-0.444,0.113c-0.067,0-0.109,0.009-0.153,0.032c-0.026,0-0.081,0.02-0.134,0.02
				c-0.023,0-0.066,0-0.136,0c-0.064,0-0.141-0.02-0.191-0.052c-0.05,0-0.107-0.015-0.177-0.037
				c-0.066-0.021-0.134-0.052-0.184-0.076l-0.285-0.259c-0.195-0.156-0.303-0.302-0.329-0.424c-0.058-0.09-0.093-0.165-0.093-0.244
				c-0.021-0.075-0.049-0.146-0.065-0.198c-0.05-0.17-0.076-0.302-0.076-0.405c-0.067-0.132-0.093-0.254-0.093-0.354
				c0-0.112-0.01-0.234-0.043-0.357v-0.726c0-0.226,0-0.446,0-0.691s0.017-0.471,0.043-0.683l0.126-1.328
				c0.053-0.211,0.087-0.433,0.108-0.668c0-0.245,0.035-0.48,0.06-0.692l0.405-2.607l0.242-1.328l0.243-1.28
				c0.184-0.896,0.368-1.752,0.53-2.633c0.158-0.871,0.352-1.732,0.568-2.589c0.104-0.457,0.211-0.913,0.305-1.384
				c0.1-0.467,0.217-0.938,0.353-1.394c-0.169-0.048-0.293-0.1-0.37-0.156c-0.296-0.202-0.394-0.494-0.287-0.838v-0.042l0.488-1.206
				l0.244-0.635l0.25-0.603l1.016-2.411l0.447-1.083l0.167-0.522c0.053-0.235,0.119-0.48,0.177-0.701
				c0.066-0.235,0.152-0.457,0.228-0.707l-2.108,0.25c-0.251,0.053-0.461,0-0.64-0.16c-0.175-0.132-0.277-0.334-0.309-0.564
				c-0.05-0.217,0-0.414,0.144-0.594C306.111,139.791,306.307,139.683,306.523,139.626z M315.564,132.922h-0.05v0.042
				C315.515,132.945,315.541,132.922,315.564,132.922z"/>
		</g>
		<g>
			<path fill="#231F20" d="M320.654,149.663l-0.115,0.235l-0.129,0.212c-0.024,0.146-0.093,0.303-0.208,0.425
				c-0.043,0.179-0.109,0.334-0.177,0.488c-0.076,0.171-0.134,0.303-0.229,0.447l-0.358,0.915l-0.37,0.96
				c-0.21,0.626-0.438,1.247-0.654,1.873c-0.218,0.626-0.418,1.271-0.614,1.907l-0.478,1.883l-0.218,0.971l-0.15,0.96l-0.127,0.961
				v0.88c0,0.066,0.017,0.123,0.024,0.211c0.01,0.081,0.01,0.146,0.01,0.189c0.033,0.07,0.042,0.113,0.042,0.17
				c0,0.046,0.024,0.088,0.051,0.122h0.033c0.031,0,0.048,0,0.065-0.023c0.009-0.011,0.035-0.011,0.052-0.011l0.337-0.169
				c0.167-0.089,0.375-0.244,0.652-0.489l0.614-0.678c0.101-0.137,0.2-0.259,0.296-0.382c0.089-0.122,0.191-0.244,0.268-0.376
				c0.194-0.27,0.378-0.537,0.553-0.782c0.179-0.268,0.346-0.536,0.511-0.828l0.934-1.728c0.596-1.248,1.126-2.486,1.587-3.65
				c0.144-0.301,0.251-0.61,0.344-0.922c0.103-0.324,0.211-0.649,0.304-0.97c0.06-0.136,0.107-0.282,0.175-0.438
				c0.043-0.154,0.103-0.319,0.162-0.48l0.124-0.488v-0.034l0.077-0.188v-0.122c0.026-0.033,0.042-0.081,0.042-0.123
				c0.099-0.471,0.343-0.814,0.729-1.05c0.378-0.244,0.806-0.311,1.261-0.202c0.386,0.08,0.687,0.259,0.913,0.546
				c0.237,0.269,0.371,0.604,0.396,0.984l0.041,0.556c-0.036,0.022-0.041,0.057-0.041,0.079l-0.049,0.081l-0.034,0.197l-0.043,0.09
				h0.043l-0.076,0.154v0.09l-0.211,0.716l-0.119,0.726c-0.064,0.132-0.091,0.254-0.099,0.357c-0.025,0.108-0.035,0.23-0.069,0.358
				c-0.166,0.913-0.284,1.873-0.357,2.853c-0.033,0.244-0.044,0.48-0.044,0.725c0,0.236,0,0.472,0,0.683l0.074,0.646
				c0,0.122,0.018,0.235,0.043,0.311c0,0.123,0.018,0.18,0.041,0.212h0.043c0.103-0.065,0.27-0.164,0.487-0.334l0.487-0.48
				l0.452-0.514c0.076-0.088,0.162-0.179,0.217-0.268c0.077-0.085,0.146-0.198,0.239-0.288l0.436-0.569
				c0.06-0.112,0.116-0.212,0.184-0.301c0.076-0.09,0.15-0.188,0.227-0.302c0.137-0.212,0.261-0.423,0.388-0.611
				c0.124-0.213,0.26-0.424,0.394-0.637l0.363-0.636l0.368-0.616l0.729-1.313l0.657-1.286l0.654-1.369
				c0.041-0.099,0.094-0.211,0.137-0.311c0.033-0.113,0.088-0.227,0.141-0.325l0.126-0.357l0.158-0.325
				c0.086-0.245,0.244-0.399,0.471-0.499c0.228-0.099,0.454-0.113,0.662-0.023c0.222,0.08,0.39,0.235,0.49,0.457
				c0.107,0.226,0.134,0.456,0.048,0.668l-0.072,0.123l-1.472,2.646l-0.741,1.281l-0.728,1.326
				c-0.142,0.194-0.278,0.405-0.411,0.636l-0.371,0.649c-0.124,0.222-0.27,0.425-0.401,0.646c-0.136,0.212-0.27,0.425-0.403,0.636
				l-0.865,1.239c-0.127,0.226-0.277,0.437-0.444,0.635c-0.153,0.193-0.32,0.405-0.487,0.617l-0.564,0.612l-0.327,0.268
				c-0.116,0.108-0.251,0.212-0.417,0.277l-0.479,0.245c-0.163,0.057-0.279,0.081-0.33,0.081h-0.452
				c-0.076-0.024-0.162-0.048-0.26-0.081c-0.093-0.009-0.169-0.057-0.22-0.122l-0.337-0.235c-0.083-0.108-0.134-0.197-0.184-0.287
				c-0.034-0.071-0.084-0.146-0.134-0.235c-0.108-0.212-0.177-0.381-0.203-0.48l-0.127-0.399c-0.021-0.138-0.038-0.282-0.058-0.414
				c-0.017-0.156-0.05-0.292-0.101-0.435c-0.06-0.259-0.093-0.526-0.102-0.781c-0.016-0.259-0.031-0.504-0.065-0.748l-1.135,1.85
				l-1.149,1.766c-0.38,0.57-0.788,1.126-1.226,1.694c-0.213,0.288-0.439,0.57-0.664,0.825c-0.236,0.244-0.497,0.513-0.798,0.781
				c-0.134,0.132-0.287,0.254-0.454,0.381c-0.15,0.123-0.337,0.231-0.528,0.335c-0.1,0.056-0.2,0.108-0.296,0.142
				c-0.098,0.046-0.191,0.088-0.309,0.145c-0.16,0.048-0.284,0.081-0.37,0.081c-0.05,0.022-0.114,0.042-0.201,0.042
				c-0.017,0-0.05,0.015-0.076,0.033h-0.337c-0.04,0-0.098-0.01-0.141-0.019c-0.033-0.015-0.087-0.015-0.141-0.015
				c-0.271-0.108-0.466-0.212-0.574-0.287c-0.159-0.104-0.276-0.226-0.37-0.358l-0.201-0.399c-0.043-0.146-0.092-0.249-0.116-0.349
				c-0.024-0.09-0.051-0.188-0.084-0.301l-0.076-0.603v-1.126l0.076-1.035l0.287-2.1l0.375-1.997l0.848-4.016l0.617-3.009
				l0.114-0.493l0.086-0.515c0.107-0.457,0.352-0.814,0.738-1.069c0.368-0.234,0.798-0.333,1.259-0.258
				c0.462,0.113,0.825,0.358,1.076,0.726c0.26,0.381,0.351,0.795,0.26,1.252L320.654,149.663z"/>
		</g>
		<g>
			<path fill="#231F20" d="M340.573,141.434c0.228-0.537,0.421-1.072,0.622-1.619c0.184-0.522,0.377-1.06,0.563-1.597l0.57-1.604
				c0.074-0.302,0.168-0.569,0.269-0.824c0.101-0.259,0.184-0.514,0.26-0.781c0.194-0.537,0.378-1.069,0.552-1.62
				c0.17-0.556,0.347-1.111,0.505-1.672l0.494-1.604l0.243-0.838v-0.042l0.206-0.693l0.033-0.065l0.048-0.09
				c0.153-0.446,0.457-0.772,0.875-0.961c0.418-0.188,0.865-0.188,1.328,0c0.469,0.156,0.781,0.447,0.973,0.838
				c0.193,0.401,0.218,0.825,0.081,1.248l-0.368,1.126l-0.361,1.162l-0.737,2.284c-0.21,0.781-0.444,1.554-0.688,2.312
				c-0.253,0.767-0.478,1.525-0.688,2.321c-0.471,1.516-0.918,3.041-1.354,4.581c-0.428,1.554-0.841,3.093-1.218,4.643
				c-0.218,0.767-0.42,1.549-0.614,2.32c-0.2,0.791-0.375,1.559-0.57,2.34c-0.378,1.587-0.705,3.136-0.982,4.686
				c-0.158,0.781-0.309,1.549-0.418,2.33c-0.125,0.781-0.244,1.553-0.347,2.335c-0.058,0.4-0.098,0.791-0.134,1.182
				c-0.023,0.391-0.033,0.767-0.033,1.135c-0.024,0.065-0.043,0.154-0.043,0.291l0.286-0.366c0.244-0.349,0.488-0.692,0.715-1.041
				c0.225-0.344,0.461-0.701,0.674-1.078c0.461-0.691,0.923-1.417,1.366-2.133c0.438-0.725,0.891-1.45,1.318-2.176l2.604-4.415
				l2.527-4.449c0.107-0.193,0.26-0.302,0.453-0.358c0.185-0.047,0.381-0.032,0.571,0.075c0.194,0.113,0.312,0.26,0.378,0.448
				c0.04,0.188,0.017,0.381-0.091,0.56c-0.406,0.744-0.815,1.492-1.221,2.228c-0.411,0.738-0.837,1.474-1.267,2.231
				c-0.438,0.748-0.865,1.497-1.283,2.231c-0.423,0.725-0.867,1.474-1.318,2.222c-0.44,0.744-0.885,1.484-1.336,2.209
				c-0.445,0.724-0.898,1.426-1.362,2.161c-0.227,0.366-0.444,0.738-0.688,1.082c-0.244,0.344-0.487,0.716-0.739,1.092
				c-0.126,0.18-0.27,0.367-0.379,0.537c-0.124,0.165-0.266,0.334-0.393,0.504c-0.243,0.344-0.521,0.701-0.816,1.046
				c-0.132,0.179-0.311,0.282-0.528,0.291c-0.217,0.01-0.411-0.033-0.568-0.169c-0.136-0.108-0.234-0.254-0.287-0.443
				c-0.06-0.211-0.094-0.437-0.127-0.64c-0.016-0.221-0.05-0.433-0.076-0.654c-0.031-0.212-0.048-0.424-0.048-0.636
				c-0.026-0.212-0.026-0.424-0.026-0.649c0-0.424,0-0.825,0-1.238c0-0.4,0.026-0.824,0.074-1.248
				c0.061-0.791,0.12-1.619,0.203-2.42c0.091-0.814,0.184-1.628,0.325-2.443c0.111-0.792,0.236-1.605,0.373-2.396
				c0.124-0.805,0.267-1.597,0.401-2.378c0.136-0.79,0.284-1.582,0.456-2.387c0.157-0.781,0.325-1.572,0.485-2.378
				c0-0.122,0.009-0.188,0.03-0.244c-0.131,0.212-0.243,0.447-0.332,0.683c-0.112,0.235-0.203,0.466-0.312,0.678
				c-0.487,1.05-0.99,2.086-1.51,3.112c-0.515,1.026-1.052,2.053-1.58,3.07l-0.864,1.524l-0.849,1.531
				c-0.294,0.48-0.623,0.969-0.932,1.459c-0.337,0.503-0.69,0.97-1.075,1.439l-0.604,0.669c-0.134,0.132-0.261,0.259-0.361,0.349
				c-0.119,0.099-0.233,0.188-0.37,0.302l-0.418,0.319l-0.438,0.236c-0.136,0.056-0.311,0.112-0.528,0.169l-0.336,0.075
				c-0.043,0-0.119-0.009-0.201-0.023c-0.076-0.009-0.136-0.009-0.201-0.009c-0.102-0.033-0.243-0.1-0.405-0.212
				c-0.083-0.057-0.151-0.113-0.185-0.155c-0.033-0.057-0.083-0.113-0.144-0.18c-0.058-0.065-0.106-0.179-0.159-0.334l-0.077-0.291
				c-0.033-0.133-0.055-0.303-0.055-0.522c0-0.246,0.021-0.416,0.055-0.514c0.02-0.57,0.13-1.149,0.32-1.774
				c0.053-0.288,0.137-0.581,0.221-0.872c0.1-0.264,0.186-0.556,0.267-0.856l0.614-1.639c0.218-0.537,0.438-1.073,0.662-1.619
				c0.236-0.522,0.487-1.06,0.765-1.606c0.126-0.258,0.26-0.522,0.38-0.781c0.124-0.245,0.26-0.499,0.385-0.768
				c0.136-0.301,0.286-0.583,0.454-0.838c0.169-0.244,0.334-0.504,0.477-0.781c0.094-0.122,0.178-0.254,0.252-0.377
				c0.086-0.123,0.187-0.244,0.286-0.382l0.614-0.805c0.141-0.132,0.268-0.255,0.401-0.376c0.136-0.123,0.304-0.245,0.495-0.382
				c0.111-0.051,0.212-0.122,0.329-0.188c0.101-0.057,0.218-0.122,0.361-0.179l0.454-0.108c0.05-0.023,0.149-0.047,0.286-0.047
				h0.241c0.368-0.032,0.705,0.066,0.992,0.277c0.303,0.213,0.494,0.504,0.645,0.848c0.37-0.97,0.755-1.926,1.145-2.886
				C339.859,143.397,340.22,142.428,340.573,141.434z M336.469,149.184h0.034c0.021,0,0.038-0.024,0.038-0.056
				c0.035,0,0.052,0,0.052-0.02h-0.09l-0.237,0.107l-0.294,0.156l-0.57,0.447l-0.521,0.56c-0.201,0.212-0.38,0.425-0.563,0.621
				c-0.168,0.213-0.342,0.405-0.505,0.627l-0.938,1.361c-0.294,0.488-0.581,0.969-0.848,1.458c-0.278,0.504-0.531,1.008-0.782,1.521
				c-0.124,0.23-0.253,0.48-0.36,0.735c-0.11,0.268-0.218,0.522-0.327,0.781c-0.11,0.276-0.201,0.536-0.277,0.79
				c-0.093,0.245-0.177,0.514-0.253,0.773l-0.208,0.809l-0.119,0.771v0.669l0.093,0.169h0.076l0.286-0.121l0.285-0.17l0.274-0.235
				c0.206-0.108,0.39-0.287,0.581-0.522c0.109-0.099,0.2-0.212,0.276-0.301c0.077-0.09,0.168-0.203,0.254-0.302l0.973-1.36
				c0.27-0.434,0.554-0.913,0.857-1.45l0.846-1.483c0.136-0.236,0.271-0.489,0.406-0.739c0.115-0.254,0.243-0.508,0.375-0.744
				c0.38-0.838,0.765-1.651,1.145-2.467c0.368-0.823,0.755-1.648,1.14-2.509c-0.107,0.047-0.208,0.098-0.309,0.122
				c-0.094,0.023-0.213,0.032-0.337,0.032C336.779,149.249,336.626,149.23,336.469,149.184z"/>
		</g>
		<g>
			<path fill="#231F20" d="M351.781,149.621c-0.048,0.075-0.091,0.155-0.098,0.245c-0.017,0.066-0.043,0.142-0.093,0.198
				l-0.177,0.471l-0.371,0.969l-0.678,1.931c-0.218,0.646-0.429,1.281-0.624,1.931c-0.184,0.636-0.358,1.29-0.525,1.948l-0.5,1.941
				c-0.048,0.357-0.098,0.682-0.148,1.007c-0.052,0.319-0.095,0.645-0.126,0.96l-0.084,0.768l0.115-0.122
				c0.222-0.245,0.449-0.489,0.657-0.734c0.227-0.269,0.444-0.536,0.654-0.838c0.218-0.269,0.439-0.537,0.631-0.806
				c0.211-0.254,0.41-0.531,0.628-0.801l1.227-1.652l1.228-1.639l2.401-3.371c0.377-0.556,0.763-1.124,1.143-1.68
				c0.368-0.57,0.765-1.14,1.142-1.733c0.134-0.211,0.317-0.334,0.537-0.376c0.244-0.048,0.461,0,0.679,0.146
				c0.22,0.122,0.354,0.301,0.421,0.546c0.043,0.222,0,0.442-0.127,0.654c0,0.023-0.017,0.037-0.025,0.037
				c-0.008,0-0.018,0.01-0.018,0.042c-0.444,0.522-0.854,1.069-1.266,1.619c-0.411,0.557-0.812,1.104-1.22,1.672l-2.45,3.291
				l-2.444,3.367l-1.227,1.643l-1.259,1.648l-0.367,0.447c-0.104,0.178-0.228,0.324-0.363,0.399
				c-0.024,0.057-0.094,0.138-0.201,0.235l-0.094,0.09l-0.107,0.08l-0.084,0.033l-0.043,0.057h-0.052l-0.031,0.019h-0.084
				c0,0.033-0.025,0.047-0.076,0.047h-0.116c-0.094,0.019-0.117,0.033-0.101,0.019c0.007-0.009,0-0.019-0.027-0.019h-0.083
				c-0.074,0-0.21-0.023-0.368-0.065c-0.076-0.038-0.152-0.071-0.21-0.09c-0.043-0.033-0.103-0.071-0.152-0.127
				c-0.168-0.155-0.288-0.312-0.378-0.476c-0.04-0.114-0.101-0.25-0.153-0.405c-0.048-0.156-0.09-0.269-0.09-0.319
				c-0.018-0.138-0.034-0.236-0.051-0.335c-0.018-0.104-0.024-0.202-0.024-0.325c-0.026-0.334-0.026-0.702,0-1.116
				c0-0.169,0.007-0.367,0.024-0.536c0.017-0.164,0.033-0.335,0.051-0.498c0-0.194,0.019-0.372,0.025-0.547
				c0.017-0.17,0.034-0.348,0.064-0.537l0.153-1.05l0.124-1.003l0.74-4.129l0.731-4.092c0.083-0.479,0.317-0.861,0.741-1.124
				c0.4-0.283,0.836-0.373,1.302-0.283c0.461,0.08,0.836,0.325,1.113,0.726c0.286,0.405,0.37,0.828,0.271,1.285
				C351.868,149.339,351.842,149.461,351.781,149.621z M351.373,138.054l0.241-2.241c0.069-0.494,0.277-0.871,0.655-1.173
				c0.387-0.324,0.808-0.447,1.302-0.391c0.461,0.057,0.857,0.255,1.168,0.646c0.311,0.367,0.445,0.781,0.385,1.285
				c-0.06,0.198-0.107,0.376-0.167,0.513l-0.973,2.087c-0.162,0.357-0.423,0.588-0.781,0.7c-0.347,0.123-0.694,0.113-1.058-0.056
				c-0.271-0.132-0.479-0.32-0.625-0.557C351.373,138.623,351.32,138.355,351.373,138.054z"/>
		</g>
		<g>
			<path fill="#231F20" d="M364.051,154.837l0.243,0.284c0.104,0.121,0.185,0.178,0.236,0.188c0.11,0.066,0.191,0.089,0.252,0.089
				c0.109,0.057,0.227,0.057,0.37,0c0.048,0,0.177-0.022,0.401-0.089l0.444-0.188c0.086-0.081,0.237-0.171,0.456-0.284l0.411-0.353
				c0.563-0.479,1.102-1.05,1.579-1.699c0.218-0.287,0.436-0.603,0.652-0.913c0.22-0.326,0.438-0.659,0.657-1.003
				c0.21-0.357,0.421-0.692,0.604-1.05c0.201-0.345,0.37-0.711,0.527-1.084c0.12-0.211,0.287-0.366,0.514-0.456
				c0.234-0.09,0.469-0.09,0.712,0.023c0.219,0.1,0.371,0.269,0.471,0.522c0.094,0.236,0.094,0.457-0.016,0.673
				c0,0.034-0.015,0.043-0.015,0.066c-0.026,0.02-0.026,0.033-0.026,0.057c-0.464,0.688-0.917,1.379-1.353,2.086
				c-0.428,0.701-0.922,1.403-1.46,2.085c-0.253,0.32-0.521,0.654-0.8,0.989c-0.285,0.34-0.588,0.649-0.916,0.951l-0.527,0.424
				c-0.084,0.089-0.16,0.155-0.268,0.235c-0.094,0.057-0.195,0.122-0.294,0.165l-0.667,0.357c-0.157,0.122-0.4,0.212-0.721,0.293
				c-0.15,0.031-0.295,0.051-0.436,0.064c-0.146,0.011-0.303,0.011-0.461,0.011c-0.33-0.044-0.641-0.123-0.91-0.246
				c-0.268-0.065-0.485-0.179-0.646-0.311c-0.05,0.042-0.083,0.108-0.083,0.155c-0.352,0.759-0.722,1.427-1.1,2.006
				c-0.403,0.65-0.865,1.262-1.386,1.855c-0.124,0.141-0.277,0.264-0.428,0.423c-0.153,0.142-0.319,0.288-0.504,0.41
				c-0.17,0.137-0.345,0.259-0.538,0.372c-0.184,0.1-0.387,0.197-0.606,0.277c-0.241,0.108-0.478,0.165-0.705,0.198
				c-0.066,0.023-0.2,0.046-0.36,0.046h-0.368c-0.286,0-0.547-0.056-0.774-0.154c-0.126-0.071-0.26-0.113-0.377-0.17
				c-0.124-0.057-0.236-0.132-0.345-0.244c-0.109-0.1-0.208-0.213-0.31-0.302c-0.084-0.09-0.168-0.202-0.228-0.344l-0.32-0.627
				c-0.058-0.22-0.093-0.433-0.114-0.648c-0.043-0.222-0.067-0.424-0.094-0.646c0-0.211,0-0.414,0-0.602
				c0-0.189,0.026-0.392,0.051-0.604c0.025-0.222,0.043-0.41,0.074-0.579c0.025-0.17,0.066-0.357,0.119-0.546
				c0.06-0.367,0.124-0.749,0.225-1.093c0.096-0.367,0.203-0.739,0.312-1.115c0.132-0.35,0.261-0.692,0.385-1.05
				c0.12-0.335,0.244-0.693,0.387-1.036c0.142-0.335,0.271-0.692,0.429-1.026c0.143-0.334,0.319-0.684,0.504-1.018l0.25-0.489
				l0.278-0.514c0.111-0.165,0.21-0.324,0.276-0.479c0.097-0.165,0.203-0.325,0.347-0.48c0.107-0.197,0.211-0.367,0.318-0.522
				c0.109-0.169,0.225-0.325,0.36-0.49l0.378-0.479l0.489-0.447l0.519-0.48c0.176-0.1,0.395-0.244,0.707-0.434
				c0.284-0.17,0.603-0.258,0.93-0.276c0.129-0.024,0.337-0.057,0.614-0.057c0.134,0,0.243,0.032,0.327,0.057h0.16l0.033,0.042
				h0.084c0.461,0.064,0.821,0.301,1.082,0.668c0.261,0.381,0.346,0.791,0.261,1.253c0,0.032,0,0.042-0.017,0.042
				c-0.018,0-0.018,0.01-0.018,0.032l0.236,0.368c0.11,0.259,0.191,0.527,0.252,0.805c0.017,0.132,0.043,0.255,0.06,0.376
				c0.007,0.113,0.026,0.251,0.026,0.382c0.023,0.133,0.033,0.245,0.033,0.344c0,0.09,0,0.202,0,0.339l-0.119,1.247l-0.252,1.159
				c-0.052,0.193-0.107,0.366-0.149,0.546c-0.061,0.17-0.11,0.357-0.17,0.537c-0.058,0.169-0.101,0.324-0.144,0.48
				c-0.041,0.163-0.094,0.31-0.141,0.447L364.051,154.837z M360.784,149.498c-0.134,0.109-0.241,0.213-0.344,0.321
				c-0.091,0.113-0.21,0.226-0.342,0.357l-0.616,0.771c-0.058,0.075-0.11,0.156-0.132,0.222c-0.053,0.066-0.093,0.132-0.152,0.18
				l-0.287,0.433c-0.191,0.301-0.375,0.593-0.544,0.895c-0.178,0.288-0.335,0.579-0.471,0.881c-0.304,0.555-0.586,1.182-0.855,1.883
				l-0.327,0.96c-0.053,0.156-0.104,0.325-0.151,0.48c-0.033,0.155-0.067,0.326-0.093,0.489c-0.06,0.156-0.094,0.325-0.127,0.48
				c-0.023,0.156-0.051,0.312-0.084,0.48c-0.023,0.155-0.043,0.312-0.043,0.48c0,0.165,0,0.312,0,0.443
				c0,0.159,0.02,0.301,0.036,0.446c0,0.122,0.023,0.259,0.06,0.392c0.048,0.169,0.099,0.277,0.158,0.324l0.114,0.211
				c0.12,0.043,0.189,0.076,0.213,0.076l0.286,0.07h0.201c0.026,0,0.048,0,0.064-0.014c0.01-0.01,0.043-0.019,0.094-0.019
				c0.06,0,0.167-0.024,0.329-0.09c0.233-0.104,0.478-0.244,0.696-0.447l0.688-0.627c0.387-0.455,0.748-1.002,1.102-1.646
				c0.293-0.585,0.58-1.206,0.823-1.841c0.072-0.213,0.159-0.457,0.261-0.693c0.088-0.276,0.175-0.536,0.218-0.805
				c-0.043-0.212-0.103-0.409-0.167-0.636c-0.051-0.211-0.104-0.446-0.152-0.677c-0.061-0.228-0.094-0.448-0.125-0.674
				c-0.034-0.221-0.069-0.442-0.119-0.668c0-0.123,0-0.246-0.026-0.354c-0.017-0.104-0.017-0.212-0.017-0.325
				c0-0.122,0-0.236,0-0.335c0-0.089-0.017-0.202-0.041-0.334v-0.692c0.024-0.079,0.041-0.169,0.041-0.277c0-0.112,0-0.211,0-0.324
				L360.784,149.498z M361.516,149.498h0.043l-0.043-0.037V149.498z"/>
		</g>
	</g>
	<g>
		<path fill="#FFFFFF" d="M301.862,115.789c-0.478-0.235-0.966-0.302-1.479-0.17l-1.15,0.357l-1.14,0.368
			c-0.381,0.112-0.749,0.226-1.119,0.349c-0.367,0.113-0.738,0.244-1.115,0.376c-0.765,0.236-1.511,0.495-2.242,0.748
			c-0.73,0.26-1.479,0.504-2.243,0.782c-1.47,0.537-2.929,1.069-4.398,1.629c-1.469,0.537-2.932,1.125-4.4,1.737
			c-0.739,0.292-1.453,0.604-2.175,0.919c-0.722,0.333-1.438,0.645-2.144,0.97c-0.705,0.343-1.417,0.678-2.131,1.026
			c-0.724,0.334-1.445,0.691-2.15,1.068c-0.705,0.367-1.393,0.758-2.073,1.163c-0.679,0.399-1.359,0.813-2.041,1.237
			c-0.678,0.425-1.343,0.867-1.99,1.329c-0.654,0.441-1.292,0.945-1.921,1.482c-0.294,0.269-0.598,0.547-0.892,0.824
			c-0.303,0.276-0.595,0.569-0.898,0.856c-0.268,0.302-0.537,0.617-0.798,0.927c-0.251,0.325-0.504,0.669-0.747,1.051
			c-0.218,0.376-0.431,0.744-0.614,1.135c-0.191,0.391-0.342,0.805-0.452,1.229c-0.133,0.48-0.2,0.928-0.2,1.327
			c-0.053,0.48-0.017,0.947,0.124,1.403c0.076,0.448,0.284,0.904,0.614,1.365c0.294,0.424,0.628,0.759,1.024,1.003
			c0.342,0.23,0.746,0.442,1.206,0.645c0.411,0.156,0.818,0.278,1.227,0.359c0.43,0.099,0.857,0.178,1.26,0.22
			c0.413,0.033,0.808,0.09,1.187,0.138c0.402,0.033,0.82,0.056,1.226,0.064c0.401,0.011,0.799,0.011,1.174-0.022h1.225
			c0.197-0.023,0.381-0.042,0.574-0.042c0.175,0,0.395,0,0.614,0l2.356-0.156l2.319-0.201l2.325-0.156l2.326-0.203l2.318-0.122
			c0.781-0.056,1.562-0.08,2.327-0.1c0.755-0.022,1.526,0,2.322,0.059c0.372,0,0.758,0.008,1.135,0.041
			c0.378,0.023,0.765,0.065,1.142,0.122c0.842,0.081,1.58,0.203,2.211,0.391c0.781,0.222,1.469,0.48,2.073,0.769
			c0.646,0.348,1.183,0.771,1.587,1.285c0.413,0.546,0.697,1.14,0.849,1.808l0.123,1.003c0,0.245-0.009,0.414-0.04,0.522v0.405
			c0,0.051-0.007,0.089-0.041,0.122c-0.053,0.367-0.119,0.725-0.22,1.036c-0.101,0.324-0.21,0.645-0.354,0.97
			c-0.157,0.31-0.337,0.636-0.527,0.937c-0.184,0.312-0.385,0.612-0.603,0.904c-0.246,0.292-0.499,0.579-0.743,0.838
			c-0.234,0.278-0.504,0.531-0.771,0.768c-0.292,0.268-0.596,0.527-0.872,0.758c-0.287,0.245-0.581,0.471-0.875,0.682
			c-0.628,0.458-1.251,0.891-1.87,1.305c-0.641,0.424-1.275,0.814-1.959,1.196c-0.68,0.377-1.367,0.726-2.031,1.06
			c-0.698,0.335-1.386,0.669-2.091,0.979c-1.437,0.646-2.862,1.248-4.272,1.808c-1.481,0.557-2.932,1.093-4.384,1.582
			c-1.453,0.504-2.925,0.984-4.418,1.428l-2.208,0.64c-0.37,0.108-0.748,0.222-1.11,0.334c-0.375,0.1-0.745,0.213-1.124,0.312
			c-0.764,0.211-1.51,0.414-2.267,0.602c-0.738,0.189-1.493,0.367-2.248,0.57c-0.765,0.188-1.522,0.367-2.263,0.532
			c-0.755,0.179-1.511,0.349-2.268,0.504c-0.385,0.099-0.765,0.211-1.14,0.278c-0.388,0.079-0.755,0.154-1.135,0.244l-2.284,0.494
			l-4.609,0.881c-0.378,0.042-0.755,0.107-1.142,0.178c-0.378,0.066-0.755,0.133-1.143,0.222l-1.135,0.146l-0.571,0.132l-0.575,0.08
			h-0.069c-0.388,0.075-0.674,0.269-0.865,0.556c-0.193,0.292-0.244,0.626-0.16,1.007c0.053,0.354,0.227,0.622,0.53,0.814
			c0.294,0.213,0.628,0.264,1.016,0.188l0.611-0.122l1.716-0.358l2.315-0.489l4.568-1.04c0.378-0.109,0.755-0.197,1.135-0.302
			c0.385-0.09,0.765-0.179,1.14-0.254l2.294-0.611c1.488-0.335,2.999-0.74,4.511-1.197c0.798-0.221,1.553-0.433,2.308-0.636
			c0.748-0.221,1.486-0.446,2.225-0.635l2.277-0.702l2.251-0.725c0.729-0.234,1.459-0.479,2.188-0.738
			c0.74-0.255,1.479-0.514,2.243-0.777c1.463-0.514,2.932-1.074,4.392-1.687c1.477-0.593,2.908-1.214,4.324-1.896
			c1.412-0.669,2.814-1.384,4.191-2.166c0.688-0.386,1.359-0.809,2.023-1.233c0.671-0.438,1.302-0.885,1.931-1.375
			c0.664-0.48,1.269-1.003,1.84-1.562c0.293-0.288,0.578-0.579,0.854-0.857c0.271-0.277,0.531-0.593,0.772-0.913
			c0.26-0.349,0.521-0.683,0.73-1.04c0.229-0.345,0.414-0.711,0.571-1.078c0.39-0.749,0.624-1.555,0.69-2.411
			c0-0.057,0.015-0.113,0.049-0.155v-1.098c0-0.424-0.049-0.847-0.115-1.247c-0.067-0.211-0.127-0.409-0.193-0.612
			c-0.067-0.211-0.16-0.399-0.268-0.612c-0.137-0.357-0.363-0.725-0.684-1.139c-0.148-0.155-0.284-0.312-0.435-0.456
			c-0.15-0.146-0.321-0.283-0.512-0.424c-0.286-0.27-0.647-0.514-1.052-0.717c-0.798-0.376-1.578-0.658-2.374-0.847
			c-0.37-0.113-0.772-0.188-1.179-0.255c-0.408-0.07-0.797-0.136-1.173-0.192c-0.413-0.057-0.808-0.09-1.209-0.108
			c-0.396-0.038-0.798-0.048-1.202-0.048c-0.79-0.057-1.572-0.075-2.357-0.057c-0.791,0.015-1.58,0.048-2.37,0.104l-2.36,0.108
			l-2.325,0.169l-2.358,0.155l-2.317,0.17c-0.39,0.019-0.774,0.043-1.168,0.052c-0.396,0.023-0.782,0.023-1.149,0.023
			c-0.203,0-0.39,0.01-0.581,0.01c-0.185,0.023-0.385,0.037-0.573,0.037h-1.141c-0.379-0.037-0.754-0.047-1.142-0.07
			c-0.377-0.009-0.757-0.042-1.132-0.099c-0.39-0.057-0.765-0.099-1.135-0.132c-0.361-0.057-0.715-0.123-1.073-0.226
			c-0.163-0.057-0.32-0.108-0.487-0.165c-0.163-0.048-0.327-0.113-0.487-0.156c-0.361-0.192-0.631-0.357-0.815-0.493
			c-0.268-0.213-0.471-0.425-0.614-0.636c-0.086-0.108-0.141-0.222-0.184-0.335c-0.033-0.122-0.066-0.254-0.103-0.377
			c-0.071-0.258-0.091-0.56-0.041-0.937c0.034-0.122,0.058-0.268,0.084-0.438c0.026-0.165,0.069-0.325,0.127-0.48
			c0.167-0.556,0.463-1.149,0.888-1.761c0.438-0.626,0.916-1.158,1.437-1.605c0.234-0.277,0.495-0.527,0.788-0.748
			c0.28-0.222,0.581-0.467,0.878-0.702c0.301-0.226,0.595-0.424,0.896-0.65c0.294-0.211,0.614-0.423,0.944-0.635
			c0.669-0.424,1.314-0.814,1.911-1.168c0.649-0.381,1.312-0.738,1.999-1.083c0.672-0.349,1.353-0.691,2.031-1.049
			c1.389-0.66,2.789-1.295,4.191-1.874c1.419-0.603,2.854-1.158,4.324-1.695s2.923-1.036,4.375-1.517
			c1.455-0.489,2.922-0.96,4.384-1.406c0.763-0.255,1.511-0.467,2.241-0.68c0.738-0.226,1.47-0.437,2.194-0.648l2.248-0.603
			l1.132-0.278c0.196-0.057,0.38-0.099,0.557-0.146c0.175-0.032,0.361-0.089,0.545-0.141c0.033,0,0.06-0.015,0.086-0.033
			c0.542-0.136,0.939-0.438,1.189-0.904c0.237-0.471,0.278-0.96,0.118-1.464C302.644,116.401,302.34,116.024,301.862,115.789z"/>
		<path fill="#FFFFFF" d="M351.505,137.827c0.354,0.16,0.706,0.171,1.067,0.057c0.345-0.122,0.614-0.343,0.771-0.701l0.982-2.095
			c0.043-0.122,0.103-0.302,0.153-0.514c0.064-0.48-0.076-0.918-0.388-1.285c-0.309-0.377-0.697-0.589-1.159-0.646
			c-0.494-0.047-0.924,0.076-1.292,0.392c-0.387,0.301-0.604,0.691-0.661,1.181l-0.247,2.241c-0.048,0.302-0.007,0.557,0.144,0.806
			C351.027,137.507,351.229,137.687,351.505,137.827z"/>
		<path fill="#FFFFFF" d="M371.944,147.221c-0.1-0.245-0.25-0.41-0.468-0.522c-0.244-0.113-0.48-0.113-0.714-0.023
			c-0.23,0.089-0.404,0.244-0.512,0.47c-0.162,0.354-0.337,0.726-0.53,1.079c-0.196,0.348-0.388,0.691-0.604,1.04
			c-0.221,0.344-0.438,0.691-0.655,1.003c-0.22,0.324-0.43,0.636-0.656,0.928c-0.487,0.635-1.016,1.204-1.58,1.681l-0.418,0.357
			c-0.218,0.113-0.36,0.212-0.444,0.292l-0.444,0.188c-0.228,0.065-0.354,0.079-0.413,0.079c-0.134,0.066-0.254,0.066-0.368,0
			c-0.05,0-0.136-0.014-0.244-0.079c-0.05-0.01-0.136-0.08-0.243-0.188l-0.244-0.292l-0.126-0.198
			c0.06-0.136,0.103-0.282,0.149-0.438c0.043-0.154,0.084-0.325,0.137-0.48c0.061-0.188,0.115-0.367,0.175-0.546
			c0.043-0.179,0.103-0.357,0.152-0.547l0.244-1.157l0.124-1.238c0-0.137,0-0.244,0-0.349c0-0.09-0.01-0.212-0.043-0.334
			c0-0.146-0.007-0.268-0.018-0.391c-0.014-0.123-0.037-0.245-0.063-0.377c-0.05-0.269-0.136-0.537-0.244-0.805l-0.243-0.367
			c0-0.023,0-0.033,0.023-0.033c0.008,0,0.017-0.015,0.017-0.048c0.077-0.441-0.009-0.856-0.261-1.237
			c-0.268-0.377-0.62-0.603-1.082-0.678h-0.083l-0.043-0.048h-0.158c-0.076-0.019-0.192-0.042-0.33-0.042
			c-0.26,0-0.468,0.023-0.611,0.042c-0.32,0.023-0.638,0.123-0.935,0.282c-0.301,0.188-0.527,0.345-0.694,0.443l-0.528,0.47
			l-0.488,0.458l-0.37,0.48c-0.133,0.154-0.253,0.31-0.36,0.479c-0.11,0.155-0.208,0.334-0.327,0.523
			c-0.134,0.154-0.243,0.31-0.335,0.479c-0.066,0.169-0.169,0.325-0.277,0.48l-0.195,0.357c-0.064,0.108-0.141,0.221-0.218,0.334
			c-0.368,0.547-0.755,1.116-1.132,1.672l-2.404,3.37l-1.216,1.648l-1.226,1.653c-0.218,0.268-0.436,0.535-0.641,0.805
			c-0.2,0.264-0.408,0.531-0.628,0.8c-0.218,0.302-0.431,0.557-0.647,0.824c-0.218,0.249-0.435,0.495-0.662,0.739l-0.119,0.122
			l0.086-0.771c0.023-0.312,0.076-0.636,0.119-0.957c0.055-0.324,0.099-0.648,0.158-1.007l0.486-1.916
			c0.175-0.669,0.354-1.328,0.528-1.974c0.201-0.648,0.402-1.285,0.624-1.93l0.695-1.931l0.361-0.96l0.169-0.479
			c0.048-0.057,0.082-0.108,0.091-0.198c0.023-0.08,0.058-0.16,0.11-0.249c0.06-0.156,0.083-0.265,0.083-0.354
			c0.101-0.447,0.01-0.886-0.268-1.285c-0.277-0.4-0.666-0.646-1.118-0.712c-0.471-0.079-0.897,0-1.302,0.264
			c-0.428,0.283-0.662,0.65-0.738,1.131l-0.385,2.128l-1.465,2.565l-2.593,4.431c-0.437,0.711-0.881,1.437-1.325,2.151
			c-0.444,0.735-0.9,1.44-1.362,2.128c-0.218,0.382-0.444,0.739-0.671,1.084c-0.234,0.357-0.471,0.7-0.722,1.049l-0.277,0.358
			c0-0.137,0.007-0.227,0.034-0.278c0-0.372,0.023-0.763,0.04-1.14c0.023-0.391,0.076-0.781,0.136-1.181
			c0.101-0.796,0.218-1.555,0.337-2.331c0.115-0.782,0.268-1.563,0.426-2.335c0.277-1.549,0.597-3.112,0.981-4.694
			c0.185-0.768,0.373-1.549,0.573-2.331c0.191-0.781,0.393-1.549,0.612-2.32c0.377-1.563,0.781-3.103,1.218-4.638
			c0.428-1.554,0.882-3.079,1.343-4.601c0.201-0.733,0.431-1.468,0.654-2.184l3.184-0.391h0.076
			c0.461-0.075,0.841-0.312,1.123-0.702c0.277-0.391,0.388-0.805,0.304-1.271c-0.081-0.447-0.325-0.805-0.705-1.093
			c-0.401-0.282-0.832-0.381-1.292-0.301l-1.623,0.269l0.404-1.239l0.354-1.162l0.377-1.115c0.135-0.435,0.104-0.849-0.086-1.248
			c-0.184-0.4-0.511-0.683-0.973-0.848c-0.47-0.188-0.905-0.188-1.335,0c-0.411,0.188-0.705,0.514-0.865,0.97l-0.05,0.089
			l-0.034,0.08l-0.21,0.669v0.043l-0.244,0.838l-0.494,1.605c-0.15,0.569-0.337,1.124-0.504,1.671
			c-0.024,0.09-0.051,0.17-0.084,0.245l-29.424,4.788l0.119-0.236l0.576-1.204l0.564-1.248c0.109-0.212,0.21-0.415,0.276-0.636
			c0.094-0.212,0.17-0.438,0.254-0.649c0.057-0.1,0.1-0.212,0.15-0.32c0.03-0.104,0.073-0.226,0.133-0.348
			c0.051-0.108,0.094-0.236,0.094-0.358c0.026-0.107,0.048-0.23,0.107-0.367l0.129-0.442c0-0.146,0.017-0.226,0.034-0.282v-0.646
			l-0.076-0.399l-0.129-0.293l-0.242-0.357l-0.403-0.367l-0.485-0.222c-0.146-0.033-0.304-0.046-0.487-0.046
			c-0.06,0-0.103-0.011-0.127-0.033c-0.026-0.011-0.067,0-0.116,0.033c-0.12,0-0.188,0.013-0.201,0.022
			c-0.043,0.009-0.077,0.023-0.137,0.023l-0.401,0.155l-0.243,0.156c-0.137,0.079-0.22,0.154-0.251,0.234
			c-0.053,0.033-0.086,0.066-0.103,0.09c-0.017,0.033-0.034,0.057-0.061,0.075l-0.2,0.235l-0.134,0.255
			c-0.094,0.146-0.17,0.268-0.193,0.357l-0.36,0.683l-0.538,1.28l-0.478,1.239c-0.094,0.226-0.17,0.437-0.254,0.649
			c-0.083,0.212-0.152,0.433-0.208,0.645c-0.186,0.457-0.329,0.871-0.446,1.238l-0.604,1.816l-2.938,0.472
			c-0.211,0.065-0.395,0.179-0.548,0.358c-0.141,0.165-0.193,0.353-0.141,0.564c0.023,0.245,0.127,0.438,0.311,0.584
			c0.174,0.155,0.378,0.197,0.629,0.141l2.106-0.23c-0.076,0.23-0.147,0.467-0.218,0.688c-0.066,0.236-0.136,0.471-0.184,0.707
			l-0.16,0.522l-0.444,1.082l-1.025,2.42l-0.243,0.594l-0.243,0.646l-0.487,1.19v0.057c-0.11,0.348-0.018,0.626,0.286,0.838
			c0.081,0.057,0.201,0.099,0.361,0.17c-0.134,0.442-0.244,0.913-0.345,1.369c-0.101,0.48-0.203,0.938-0.303,1.394
			c-0.218,0.862-0.414,1.71-0.571,2.59c-0.168,0.871-0.345,1.737-0.538,2.618l-0.243,1.295l-0.244,1.327l-0.401,2.6
			c-0.026,0.226-0.051,0.446-0.06,0.691c-0.017,0.234-0.051,0.471-0.11,0.669l-0.116,1.342c-0.024,0.211-0.041,0.433-0.041,0.677
			c0,0.236,0,0.471,0,0.684v0.725c0.033,0.132,0.041,0.245,0.041,0.354c0,0.113,0.026,0.226,0.086,0.372
			c0,0.099,0.021,0.23,0.073,0.399c0.033,0.043,0.051,0.113,0.067,0.188c0.009,0.089,0.053,0.169,0.103,0.246
			c0.021,0.136,0.134,0.282,0.317,0.437l0.285,0.245c0.06,0.033,0.119,0.057,0.184,0.075c0.069,0.024,0.136,0.048,0.187,0.048
			c0.058,0.033,0.124,0.042,0.184,0.042c0.07,0,0.119,0,0.144,0c0.058,0,0.11-0.009,0.134-0.02c0.043-0.014,0.096-0.022,0.15-0.022
			l0.447-0.123c0.227-0.113,0.461-0.245,0.74-0.399c0.349-0.236,0.712-0.552,1.097-0.919c0.162-0.197,0.32-0.366,0.478-0.523
			c0.18-0.169,0.33-0.334,0.457-0.526c0.301-0.343,0.578-0.711,0.838-1.06c0.261-0.367,0.521-0.733,0.799-1.115l1.45-2.241
			l1.395-2.25l0.647-1.164l0.665-1.158c0.428-0.781,0.855-1.548,1.275-2.33c0.01-0.014,0.026-0.033,0.034-0.057l-0.051,0.222
			l-0.37,1.996l-0.277,2.1l-0.083,1.035v1.126l0.083,0.603c0.017,0.113,0.043,0.202,0.076,0.292c0.024,0.099,0.067,0.212,0.12,0.357
			l0.208,0.392c0.076,0.131,0.2,0.254,0.36,0.367c0.11,0.079,0.302,0.165,0.571,0.277c0.06,0,0.103,0,0.143,0.009
			c0.041,0.024,0.092,0.024,0.144,0.024h0.327c0.027-0.024,0.058-0.033,0.081-0.033c0.077,0,0.153-0.01,0.206-0.033
			c0.092,0,0.208-0.033,0.368-0.079c0.109-0.066,0.208-0.1,0.301-0.156c0.094-0.032,0.194-0.075,0.304-0.132
			c0.193-0.113,0.368-0.226,0.538-0.348c0.157-0.108,0.308-0.246,0.454-0.378c0.283-0.268,0.554-0.521,0.788-0.781
			c0.227-0.259,0.454-0.522,0.662-0.823c0.437-0.569,0.841-1.13,1.226-1.686l1.145-1.761l1.14-1.864
			c0.025,0.245,0.052,0.504,0.06,0.758c0.017,0.245,0.05,0.514,0.109,0.782c0.048,0.132,0.084,0.276,0.101,0.423
			c0.007,0.146,0.023,0.292,0.05,0.415l0.125,0.399c0.043,0.113,0.093,0.278,0.212,0.489c0.049,0.081,0.091,0.156,0.141,0.246
			c0.034,0.079,0.094,0.169,0.178,0.282l0.327,0.229c0.06,0.058,0.127,0.104,0.217,0.123c0.113,0.023,0.196,0.047,0.271,0.08h0.444
			c0.06,0,0.18-0.033,0.337-0.08l0.478-0.23c0.171-0.09,0.294-0.179,0.414-0.292l0.334-0.277l0.413-0.457
			c-0.017,0.154-0.042,0.311-0.052,0.457c-0.024,0.099-0.051,0.277-0.051,0.513c0,0.222,0.026,0.391,0.051,0.532l0.076,0.282
			c0.058,0.155,0.107,0.278,0.167,0.353c0.053,0.058,0.103,0.104,0.142,0.17c0.035,0.048,0.103,0.09,0.179,0.155
			c0.167,0.1,0.301,0.179,0.411,0.202c0.06,0,0.127,0.011,0.2,0.024c0.077,0.009,0.153,0.009,0.201,0.009l0.327-0.066
			c0.22-0.069,0.396-0.113,0.54-0.169l0.444-0.245l0.411-0.31c0.127-0.114,0.253-0.212,0.36-0.315
			c0.12-0.076,0.234-0.198,0.37-0.335l0.612-0.678c0.37-0.456,0.733-0.937,1.059-1.427c0.319-0.503,0.647-0.983,0.934-1.475
			l0.855-1.529l0.858-1.516c0.537-1.017,1.074-2.043,1.579-3.069c0.525-1.036,1.022-2.062,1.511-3.122
			c0.116-0.211,0.209-0.424,0.307-0.668c0.094-0.245,0.213-0.467,0.338-0.692c-0.017,0.057-0.024,0.136-0.024,0.245
			c-0.16,0.805-0.337,1.604-0.497,2.386c-0.157,0.792-0.311,1.588-0.444,2.388c-0.136,0.782-0.277,1.572-0.403,2.364
			c-0.141,0.805-0.261,1.609-0.377,2.424c-0.137,0.79-0.234,1.605-0.321,2.429c-0.088,0.807-0.141,1.62-0.2,2.42
			c-0.058,0.424-0.084,0.84-0.084,1.248c0,0.405,0,0.814,0,1.243c0,0.221,0.008,0.424,0.026,0.646
			c0.008,0.211,0.024,0.414,0.058,0.646c0.026,0.211,0.06,0.423,0.076,0.636c0.036,0.211,0.067,0.437,0.124,0.635
			c0.053,0.192,0.153,0.349,0.287,0.447c0.157,0.136,0.354,0.188,0.571,0.18c0.219-0.011,0.394-0.114,0.53-0.293
			c0.294-0.353,0.564-0.701,0.814-1.06c0.134-0.154,0.261-0.319,0.395-0.489c0.109-0.179,0.243-0.358,0.37-0.536
			c0.251-0.387,0.494-0.744,0.738-1.102c0.244-0.334,0.471-0.693,0.695-1.074c0.464-0.726,0.915-1.45,1.362-2.161
			c0.453-0.739,0.898-1.474,1.325-2.208c0.462-0.758,0.908-1.497,1.327-2.231c0.192-0.334,0.394-0.683,0.59-1.017l-0.286,1.595
			l-0.12,1.003l-0.167,1.051c-0.024,0.179-0.051,0.367-0.067,0.536c-0.01,0.179-0.026,0.344-0.026,0.532
			c-0.007,0.17-0.033,0.339-0.048,0.514c0,0.17-0.026,0.357-0.026,0.551c-0.023,0.386-0.023,0.767,0,1.11
			c0,0.104,0.026,0.218,0.026,0.302c0.015,0.104,0.041,0.213,0.048,0.349c0,0.057,0.043,0.155,0.094,0.312
			c0.06,0.154,0.116,0.291,0.167,0.414c0.076,0.154,0.196,0.31,0.37,0.479c0.043,0.057,0.1,0.089,0.16,0.122
			c0.05,0.011,0.117,0.042,0.207,0.075c0.163,0.048,0.278,0.081,0.364,0.081h0.076c0.033,0,0.041,0,0.026,0.023
			c-0.01,0,0.015,0,0.098-0.023h0.119c0.059,0,0.082-0.01,0.082-0.043h0.086l0.033-0.038h0.043l0.043-0.042l0.088-0.033l0.104-0.09
			l0.091-0.088c0.119-0.1,0.179-0.18,0.202-0.228c0.135-0.084,0.261-0.22,0.369-0.409l0.37-0.438l1.269-1.648l1.226-1.638
			l2.435-3.38l0.16-0.213c-0.093,0.321-0.152,0.646-0.203,0.979c-0.048,0.188-0.098,0.368-0.117,0.537
			c-0.033,0.178-0.05,0.367-0.084,0.588c-0.025,0.217-0.033,0.415-0.033,0.604c0,0.178,0,0.381,0,0.603
			c0.008,0.212,0.041,0.424,0.076,0.635c0.024,0.213,0.061,0.438,0.117,0.65l0.335,0.635c0.043,0.146,0.129,0.255,0.218,0.345
			c0.103,0.09,0.195,0.192,0.312,0.292c0.101,0.113,0.208,0.202,0.337,0.254c0.124,0.056,0.261,0.104,0.385,0.155
			c0.229,0.104,0.48,0.16,0.771,0.16h0.38c0.15,0,0.287-0.023,0.354-0.033c0.228-0.032,0.462-0.104,0.705-0.203
			c0.211-0.079,0.411-0.169,0.603-0.276c0.196-0.114,0.37-0.235,0.53-0.372c0.191-0.133,0.36-0.278,0.521-0.424
			c0.144-0.142,0.285-0.278,0.421-0.41c0.514-0.593,0.975-1.214,1.383-1.863c0.381-0.579,0.748-1.248,1.102-1.998
			c0-0.042,0.034-0.112,0.074-0.154c0.17,0.132,0.388,0.235,0.647,0.311c0.277,0.113,0.581,0.193,0.905,0.245
			c0.163,0,0.32,0,0.471-0.019c0.153-0.015,0.287-0.033,0.431-0.057c0.325-0.09,0.571-0.17,0.73-0.278l0.652-0.372
			c0.103-0.042,0.211-0.108,0.305-0.179c0.103-0.065,0.176-0.141,0.269-0.222l0.528-0.433c0.32-0.301,0.631-0.616,0.916-0.951
			c0.276-0.334,0.544-0.669,0.798-0.993c0.527-0.679,1.024-1.379,1.459-2.072c0.431-0.7,0.885-1.393,1.346-2.099
			c0-0.02,0.007-0.033,0.023-0.043c0.01-0.023,0.02-0.043,0.02-0.065C372.038,147.69,372.038,147.456,371.944,147.221z
			 M314.887,131.325 M335.776,149.966c-0.368,0.813-0.755,1.638-1.141,2.477c-0.126,0.234-0.25,0.479-0.379,0.733
			c-0.125,0.259-0.261,0.504-0.393,0.739l-0.851,1.492c-0.298,0.537-0.585,1.018-0.853,1.45l-0.975,1.36
			c-0.084,0.104-0.17,0.203-0.251,0.302c-0.077,0.09-0.17,0.188-0.277,0.301c-0.196,0.246-0.38,0.415-0.573,0.528l-0.285,0.229
			l-0.296,0.156l-0.301-0.41l0.11-1.351c0.076-0.269,0.504-1.705,0.604-1.939c0.168-0.438,0.579-1.328,0.698-1.517l1.366-2.613
			c0,0,1.513-2.787,2.404-3.38c0,0,2.134-0.914,2.231-0.946c0.093-0.023,0.193-0.08,0.303-0.122
			C336.541,148.312,336.155,149.151,335.776,149.966z M338.842,142.763c-0.375,0.955-0.763,1.925-1.14,2.898
			c-0.144-0.357-0.345-0.635-0.648-0.851c-0.274-0.208-0.611-0.312-0.991-0.288h-0.244c-0.131,0-0.225,0.023-0.284,0.042
			l-0.444,0.123c-0.134,0.046-0.253,0.112-0.36,0.192c-0.11,0.057-0.22,0.108-0.327,0.165c-0.201,0.137-0.363,0.259-0.495,0.382
			c-0.129,0.122-0.27,0.253-0.413,0.391l-0.604,0.79c-0.11,0.156-0.201,0.27-0.284,0.392c-0.076,0.112-0.16,0.244-0.244,0.376
			c-0.16,0.27-0.33,0.528-0.487,0.781c-0.167,0.26-0.32,0.547-0.454,0.83c-0.126,0.263-0.261,0.522-0.377,0.776
			c-0.134,0.259-0.261,0.527-0.385,0.781c-0.277,0.546-0.53,1.073-0.758,1.605c-0.243,0.552-0.464,1.083-0.674,1.609l-0.284,0.769
			c-0.107,0.169-0.218,0.344-0.324,0.522c-0.087,0.104-0.163,0.203-0.228,0.302c-0.06,0.089-0.129,0.192-0.187,0.301l-0.444,0.56
			c-0.077,0.1-0.16,0.213-0.227,0.302c-0.07,0.09-0.146,0.165-0.218,0.254l-0.453,0.515l-0.495,0.488
			c-0.213,0.161-0.38,0.269-0.49,0.325h-0.031c-0.033-0.023-0.033-0.089-0.033-0.197c-0.036-0.081-0.052-0.193-0.052-0.325
			l-0.084-0.636c0-0.212,0-0.447,0-0.692c0-0.244,0.016-0.48,0.043-0.725c0.093-0.984,0.208-1.931,0.37-2.844
			c0.031-0.137,0.038-0.259,0.055-0.357c0.019-0.113,0.053-0.236,0.119-0.368l0.104-0.715l0.217-0.725v-0.09l0.074-0.155h-0.04
			l0.04-0.09l0.033-0.188l0.051-0.091c0-0.014,0.009-0.056,0.043-0.079l-0.043-0.556c-0.033-0.367-0.158-0.706-0.392-0.984
			c-0.229-0.277-0.538-0.457-0.918-0.532c-0.461-0.113-0.882-0.047-1.259,0.198c-0.378,0.235-0.622,0.579-0.738,1.041
			c0,0.052-0.01,0.098-0.036,0.122v0.122l-0.081,0.188v0.042l-0.127,0.494c-0.053,0.155-0.11,0.312-0.16,0.467
			c-0.058,0.169-0.117,0.311-0.17,0.447c-0.098,0.325-0.2,0.646-0.298,0.96c-0.094,0.32-0.213,0.636-0.347,0.923
			c-0.461,1.182-0.989,2.401-1.587,3.658l-0.932,1.719c-0.167,0.301-0.337,0.579-0.521,0.829c-0.175,0.254-0.354,0.513-0.548,0.776
			c-0.076,0.137-0.166,0.269-0.267,0.382c-0.094,0.131-0.201,0.254-0.304,0.391l-0.603,0.691c-0.276,0.23-0.497,0.391-0.646,0.467
			l-0.345,0.169c-0.018,0-0.043,0-0.043,0.01c-0.023,0.023-0.041,0.023-0.076,0.023h-0.034c-0.023-0.033-0.05-0.066-0.05-0.123
			s-0.01-0.099-0.04-0.155c0-0.057,0-0.123-0.008-0.202c-0.01-0.08-0.026-0.146-0.026-0.188v-0.903l0.124-0.946l0.153-0.976
			l0.21-0.955l0.495-1.897c0.184-0.636,0.384-1.271,0.603-1.897c0.222-0.635,0.438-1.248,0.656-1.874l0.368-0.97l0.363-0.913
			c0.093-0.137,0.15-0.282,0.217-0.447c0.077-0.155,0.137-0.311,0.193-0.48c0.101-0.132,0.17-0.278,0.203-0.433l0.125-0.203
			l0.109-0.244l0.125-0.4c0.086-0.447-0.008-0.862-0.261-1.253c-0.251-0.366-0.61-0.603-1.075-0.711
			c-0.462-0.079-0.889,0.01-1.26,0.255c-0.385,0.259-0.636,0.603-0.728,1.06l-0.092,0.527l-0.129,0.476l-0.408,2.053l-0.935,1.93
			l-2.478,4.651l-0.619,1.125l-0.69,1.131l-1.343,2.24c-0.251,0.377-0.487,0.748-0.733,1.102c-0.251,0.372-0.494,0.726-0.745,1.074
			c-0.535,0.711-1.057,1.402-1.577,2.038c-0.136,0.17-0.277,0.325-0.43,0.494c-0.151,0.146-0.309,0.302-0.471,0.434
			c-0.134,0.137-0.284,0.259-0.444,0.382c-0.158,0.122-0.311,0.229-0.452,0.343c-0.162,0.138-0.329,0.213-0.487,0.245
			c-0.033,0.023-0.086,0.033-0.162,0.033l-0.041-0.033c0-0.032-0.01-0.057-0.014-0.065c-0.018-0.01-0.027-0.042-0.027-0.099
			c-0.032-0.057-0.043-0.146-0.043-0.283c-0.023-0.107-0.033-0.301-0.033-0.555c-0.06-0.189-0.06-0.391,0-0.604
			c0-0.222,0-0.433,0.017-0.627c0.017-0.197,0.027-0.409,0.06-0.621c0.058-0.437,0.125-0.861,0.175-1.294
			c0.076-0.424,0.15-0.848,0.228-1.271c0.085-0.424,0.177-0.848,0.276-1.271c0.094-0.414,0.194-0.838,0.304-1.262
			c0.043-0.211,0.091-0.424,0.134-0.646c0.051-0.211,0.094-0.438,0.153-0.635l0.325-1.253l0.681-2.532
			c0.134-0.424,0.276-0.848,0.404-1.258c0.116-0.414,0.241-0.838,0.377-1.261c0.243-0.838,0.497-1.662,0.757-2.486
			c0.261-0.838,0.536-1.662,0.829-2.5c0.285-0.848,0.545-1.686,0.815-2.501c0.277-0.823,0.563-1.646,0.857-2.476
			c0.055-0.212,0.107-0.41,0.184-0.603c0.067-0.188,0.132-0.377,0.218-0.589c0.144-0.276,0.286-0.536,0.454-0.791
			c0.16-0.244,0.311-0.536,0.446-0.828l29.415-3.568l-0.439,1.252c-0.191,0.531-0.386,1.06-0.576,1.605
			c-0.196,0.522-0.39,1.069-0.614,1.605C339.582,140.817,339.221,141.801,338.842,142.763z M360.691,153.792
			c-0.091,0.245-0.175,0.481-0.261,0.702c-0.244,0.636-0.521,1.262-0.812,1.827c-0.354,0.649-0.724,1.195-1.099,1.652l-0.688,0.649
			c-0.222,0.188-0.456,0.335-0.699,0.443c-0.158,0.047-0.277,0.079-0.326,0.079s-0.085,0.009-0.102,0.009
			c-0.018,0.024-0.034,0.024-0.061,0.024h-0.2l-0.294-0.08c-0.026,0-0.091-0.02-0.193-0.075l-0.135-0.203
			c-0.047-0.057-0.106-0.165-0.149-0.324c-0.034-0.132-0.051-0.278-0.069-0.4c-0.008-0.132-0.024-0.278-0.024-0.447
			c0-0.132,0-0.278,0-0.434c0-0.169,0.017-0.324,0.051-0.489c0.026-0.155,0.05-0.315,0.076-0.48c0.033-0.154,0.069-0.324,0.116-0.48
			c0.041-0.154,0.067-0.324,0.111-0.48c0.032-0.154,0.092-0.324,0.15-0.479l0.31-0.957c0.277-0.715,0.555-1.342,0.865-1.897
			c0.134-0.291,0.287-0.593,0.461-0.88c0.178-0.292,0.363-0.594,0.558-0.895l0.283-0.433c0.049-0.048,0.092-0.113,0.144-0.18
			c0.033-0.066,0.084-0.146,0.134-0.226l0.621-0.758c0.127-0.133,0.244-0.254,0.345-0.357c0.091-0.109,0.21-0.212,0.344-0.32
			l0.159-0.203c0,0.099,0,0.212,0,0.312c0,0.121-0.006,0.212-0.032,0.291v0.684c0.026,0.131,0.032,0.244,0.032,0.343
			c0,0.09,0,0.203,0,0.345c0,0.103,0,0.211,0.027,0.315c0.017,0.107,0.017,0.234,0.017,0.357c0.048,0.211,0.091,0.433,0.124,0.653
			c0.026,0.236,0.069,0.458,0.12,0.674c0.057,0.245,0.114,0.466,0.157,0.679c0.061,0.221,0.127,0.433,0.178,0.644
			C360.878,153.256,360.784,153.524,360.691,153.792z"/>
	</g>
	<g>
		<polyline fill="none" stroke="#231F20" stroke-width="0.6355" stroke-miterlimit="10" points="354.479,122.047 369.737,85.474 
			384.391,122.682 		"/>
		
			<line fill="none" stroke="#231F20" stroke-width="0.6355" stroke-miterlimit="10" x1="359.819" y1="109.254" x2="379.101" y2="109.254"/>
	</g>
</g>
</svg>
