<?xml version="1.0" encoding="utf-8"?>
<!-- Generator: Adobe Illustrator 16.0.0, SVG Export Plug-In . SVG Version: 6.00 Build 0)  -->
<!DOCTYPE svg PUBLIC "-//W3C//DTD SVG 1.1//EN" "http://www.w3.org/Graphics/SVG/1.1/DTD/svg11.dtd" [
	<!ENTITY ns_flows "http://ns.adobe.com/Flows/1.0/">
	<!ENTITY ns_extend "http://ns.adobe.com/Extensibility/1.0/">
	<!ENTITY ns_ai "http://ns.adobe.com/AdobeIllustrator/10.0/">
	<!ENTITY ns_graphs "http://ns.adobe.com/Graphs/1.0/">
]>
<svg version="1.1" id="Layer_1" xmlns:x="&ns_extend;" xmlns:i="&ns_ai;" xmlns:graph="&ns_graphs;"
	 xmlns="http://www.w3.org/2000/svg" xmlns:xlink="http://www.w3.org/1999/xlink" xmlns:a="http://ns.adobe.com/AdobeSVGViewerExtensions/3.0/"
	 x="0px" y="0px" width="498.335px" height="71.672px" viewBox="0 0 498.335 71.672" enable-background="new 0 0 498.335 71.672"
	 xml:space="preserve">
<g>
	<g>
		<path fill="#231F20" stroke="#231F20" stroke-width="2.478" stroke-miterlimit="10" d="M13.646,62.185H6.054V9.505h6.171
			l17.392,25.586L46.999,9.505h6.017v52.68h-7.528V25.071l-13.772,20.48h-4.288l-13.782-20.48V62.185z"/>
		<path fill="#231F20" stroke="#231F20" stroke-width="2.478" stroke-miterlimit="10" d="M92.046,16.792
			c4.818-4.896,11.59-7.978,18.973-7.978c7.451,0,14.152,3.082,19.041,7.978c4.741,4.908,7.827,11.597,7.827,19.062
			c0,7.429-3.086,14.124-7.827,19.031c-4.889,4.963-11.59,7.972-19.041,7.972c-7.382,0-14.155-3.009-18.973-7.972
			c-4.738-4.907-7.826-11.603-7.826-19.031C84.22,28.389,87.308,21.7,92.046,16.792z M124.634,22.224
			c-3.539-3.551-8.427-5.728-13.615-5.728c-5.2,0-10.012,2.177-13.479,5.728c-3.456,3.465-5.641,8.279-5.641,13.631
			c0,5.326,2.186,10.135,5.641,13.594c3.468,3.551,8.28,5.728,13.479,5.728c5.188,0,10.077-2.177,13.615-5.728
			c3.388-3.459,5.574-8.206,5.574-13.594C130.208,30.417,128.022,25.688,124.634,22.224z"/>
		<path fill="#231F20" stroke="#231F20" stroke-width="2.478" stroke-miterlimit="10" d="M169.165,62.185V9.413l5.866,0.092
			l25.674,37.082V9.505h7.521v52.68h-6.008l-25.452-36.823v36.823H169.165z"/>
		<path fill="#231F20" stroke="#231F20" stroke-width="2.478" stroke-miterlimit="10" d="M253.209,62.406V17.168h-15.961V9.505
			h39.444v7.663h-15.89v45.238H253.209z"/>
		<path fill="#231F20" stroke="#231F20" stroke-width="2.478" stroke-miterlimit="10" d="M335.66,46.674h-18.905
			c-2.024,4.82-4.647,11.146-6.315,15.511h-8.203l21.149-53.37h5.579l21.146,53.37h-8.123L335.66,46.674z M319.626,39.516h13.098
			l-6.477-18.575L319.626,39.516z"/>
		<path fill="#231F20" stroke="#231F20" stroke-width="2.478" stroke-miterlimit="10" d="M377.48,62.185V9.413l5.871,0.092
			l25.664,37.082V9.505h7.518v52.68h-6.01l-25.451-36.823v36.823H377.48z"/>
		<path fill="#231F20" stroke="#231F20" stroke-width="2.478" stroke-miterlimit="10" d="M477.255,46.674h-18.902
			c-2.027,4.82-4.66,11.146-6.328,15.511h-8.203l21.158-53.37h5.568l21.148,53.37h-8.125L477.255,46.674z M461.224,39.516h13.084
			l-6.477-18.575L461.224,39.516z"/>
	</g>
	<path fill="#231F20" d="M69.89,37.969c0,1.375-1.101,2.497-2.476,2.497s-2.479-1.122-2.479-2.497c0-1.356,1.104-2.466,2.479-2.466
		S69.89,36.612,69.89,37.969z"/>
	<path fill="#231F20" d="M158.688,37.969c0,1.375-1.11,2.497-2.476,2.497c-1.372,0-2.487-1.122-2.487-2.497
		c0-1.356,1.115-2.466,2.487-2.466C157.578,35.503,158.688,36.612,158.688,37.969z"/>
	<path fill="#231F20" d="M231.373,37.969c0,1.375-1.113,2.497-2.485,2.497c-1.366,0-2.469-1.122-2.469-2.497
		c0-1.356,1.103-2.466,2.469-2.466C230.26,35.503,231.373,36.612,231.373,37.969z"/>
	<path fill="#231F20" d="M289.811,37.969c0,1.375-1.113,2.497-2.478,2.497c-1.365,0-2.479-1.122-2.479-2.497
		c0-1.356,1.114-2.466,2.479-2.466C288.697,35.503,289.811,36.612,289.811,37.969z"/>
	<path fill="#231F20" d="M363.33,37.969c0,1.375-1.117,2.497-2.494,2.497c-1.35,0-2.467-1.122-2.467-2.497
		c0-1.356,1.117-2.466,2.467-2.466C362.212,35.503,363.33,36.612,363.33,37.969z"/>
	<path fill="#231F20" d="M438.177,37.969c0,1.375-1.104,2.497-2.467,2.497c-1.367,0-2.482-1.122-2.482-2.497
		c0-1.356,1.115-2.466,2.482-2.466C437.074,35.503,438.177,36.612,438.177,37.969z"/>
	<polyline fill="none" stroke="#FFFFFF" stroke-width="0.826" stroke-miterlimit="10" points="9.318,59.719 9.318,12.772 
		29.537,41.268 49.101,12.772 49.101,59.719 	"/>
	<path fill="none" stroke="#FFFFFF" stroke-width="0.826" stroke-miterlimit="10" d="M134.598,36.039
		c0,12.841-10.419,23.267-23.273,23.267c-12.848,0-23.26-10.426-23.26-23.267c0-12.848,10.413-23.267,23.26-23.267
		C124.179,12.772,134.598,23.191,134.598,36.039z"/>
	<polyline fill="none" stroke="#FFFFFF" stroke-width="0.826" stroke-miterlimit="10" points="173.141,59.306 173.141,12.772 
		204.259,59.306 204.259,12.772 	"/>
	
		<line fill="none" stroke="#FFFFFF" stroke-width="0.826" stroke-miterlimit="10" x1="239.908" y1="12.772" x2="273.779" y2="12.772"/>
	
		<line fill="none" stroke="#FFFFFF" stroke-width="0.826" stroke-miterlimit="10" x1="256.85" y1="12.772" x2="256.85" y2="60.138"/>
	<g>
		<polyline fill="none" stroke="#FFFFFF" stroke-width="0.826" stroke-miterlimit="10" points="306.497,59.306 326.17,11.386 
			345.087,60.138 		"/>
		
			<line fill="none" stroke="#FFFFFF" stroke-width="0.826" stroke-miterlimit="10" x1="313.373" y1="42.556" x2="338.259" y2="42.556"/>
	</g>
	<polyline fill="none" stroke="#FFFFFF" stroke-width="0.826" stroke-miterlimit="10" points="381.445,59.306 381.445,12.772 
		412.566,59.306 412.566,12.772 	"/>
	<g>
		<polyline fill="none" stroke="#FFFFFF" stroke-width="0.826" stroke-miterlimit="10" points="448.472,59.571 468.156,11.681 
			487.062,60.403 		"/>
		
			<line fill="none" stroke="#FFFFFF" stroke-width="0.826" stroke-miterlimit="10" x1="455.359" y1="42.82" x2="480.236" y2="42.82"/>
	</g>
</g>
</svg>
