<?xml version="1.0" encoding="utf-8"?>
<!-- Generator: Adobe Illustrator 16.0.0, SVG Export Plug-In . SVG Version: 6.00 Build 0)  -->
<!DOCTYPE svg PUBLIC "-//W3C//DTD SVG 1.1//EN" "http://www.w3.org/Graphics/SVG/1.1/DTD/svg11.dtd" [
	<!ENTITY ns_flows "http://ns.adobe.com/Flows/1.0/">
	<!ENTITY ns_extend "http://ns.adobe.com/Extensibility/1.0/">
	<!ENTITY ns_ai "http://ns.adobe.com/AdobeIllustrator/10.0/">
	<!ENTITY ns_graphs "http://ns.adobe.com/Graphs/1.0/">
]>
<svg version="1.1" id="Layer_1" xmlns:x="&ns_extend;" xmlns:i="&ns_ai;" xmlns:graph="&ns_graphs;"
	 xmlns="http://www.w3.org/2000/svg" xmlns:xlink="http://www.w3.org/1999/xlink" xmlns:a="http://ns.adobe.com/AdobeSVGViewerExtensions/3.0/"
	 x="0px" y="0px" width="59.115px" height="79.125px" viewBox="0 0 59.115 79.125" enable-background="new 0 0 59.115 79.125"
	 xml:space="preserve">
<g>
	<path fill="#231F20" d="M59.115,29.559C59.115,13.234,45.883,0,29.559,0C13.233,0,0,13.234,0,29.559
		c0,10.158,8.955,21.198,8.955,21.198c1.659,2.045,4.192,5.523,5.629,7.729l12.361,18.984c1.438,2.206,3.789,2.206,5.225,0
		l12.361-18.984c1.438-2.206,3.971-5.685,5.629-7.729C50.16,50.757,59.115,39.717,59.115,29.559z"/>
</g>
<g>
	<g>
		<path fill="none" stroke="#FFFFFF" stroke-width="0.3841" stroke-linecap="round" stroke-miterlimit="1" d="M34.453,39.69
			c0,0,5.646-1.774,12.044-1.528c4.812,0.183,5.681,0.735,5.681,0.735"/>
	</g>
	<path fill="none" stroke="#FFFFFF" stroke-width="0.3213" stroke-miterlimit="10" d="M43.111,33.863
		c0.08-0.576,0.125-1.165,0.125-1.762c0-7.176-5.901-12.99-13.184-12.99c-7.281,0-13.183,5.814-13.183,12.99
		c0,0.597,0.044,1.186,0.124,1.762"/>
	
		<line fill="none" stroke="#FFFFFF" stroke-width="0.1285" stroke-miterlimit="10" x1="6.779" y1="33.863" x2="52.281" y2="33.863"/>
	<g>
		<path fill="#FFFFFF" stroke="#FFFFFF" stroke-width="0.2305" stroke-miterlimit="10" d="M7.49,32.848H6.779v-4.862h0.578
			l1.63,2.361l1.628-2.361h0.564v4.862h-0.705v-3.426l-1.291,1.891H8.782L7.49,29.422V32.848z"/>
		<path fill="#FFFFFF" stroke="#FFFFFF" stroke-width="0.2305" stroke-miterlimit="10" d="M14.836,28.657
			c0.452-0.451,1.087-0.737,1.778-0.737c0.698,0,1.325,0.286,1.784,0.737c0.444,0.453,0.732,1.07,0.732,1.76
			c0,0.686-0.288,1.304-0.732,1.757c-0.459,0.459-1.086,0.735-1.784,0.735c-0.691,0-1.326-0.276-1.778-0.735
			c-0.443-0.453-0.732-1.071-0.732-1.757C14.104,29.728,14.393,29.11,14.836,28.657z M17.89,29.159
			c-0.331-0.327-0.79-0.529-1.275-0.529c-0.487,0-0.938,0.202-1.263,0.529c-0.324,0.32-0.529,0.764-0.529,1.258
			c0,0.492,0.205,0.936,0.529,1.255c0.324,0.328,0.775,0.529,1.263,0.529c0.485,0,0.944-0.201,1.275-0.529
			c0.317-0.319,0.522-0.758,0.522-1.255C18.412,29.915,18.207,29.479,17.89,29.159z"/>
		<path fill="#FFFFFF" stroke="#FFFFFF" stroke-width="0.2305" stroke-miterlimit="10" d="M22.062,32.848v-4.872l0.549,0.01
			l2.406,3.423v-3.423h0.704v4.862h-0.563l-2.385-3.399v3.399H22.062z"/>
		<path fill="#FFFFFF" stroke="#FFFFFF" stroke-width="0.2305" stroke-miterlimit="10" d="M29.937,32.868v-4.176h-1.495v-0.707
			h3.695v0.707h-1.488v4.176H29.937z"/>
		<path fill="#FFFFFF" stroke="#FFFFFF" stroke-width="0.2305" stroke-miterlimit="10" d="M37.661,31.416h-1.771
			c-0.19,0.444-0.436,1.029-0.593,1.432H34.53l1.98-4.928h0.522l1.982,4.928h-0.762L37.661,31.416z M36.159,30.754h1.228
			l-0.607-1.713L36.159,30.754z"/>
		<path fill="#FFFFFF" stroke="#FFFFFF" stroke-width="0.2305" stroke-miterlimit="10" d="M41.58,32.848v-4.872l0.55,0.01
			l2.405,3.423v-3.423h0.703v4.862h-0.562l-2.385-3.399v3.399H41.58z"/>
		<path fill="#FFFFFF" stroke="#FFFFFF" stroke-width="0.2305" stroke-miterlimit="10" d="M50.928,31.416h-1.771
			c-0.19,0.444-0.437,1.029-0.594,1.432h-0.769l1.982-4.928h0.521l1.982,4.928H51.52L50.928,31.416z M49.426,30.754h1.226
			l-0.606-1.713L49.426,30.754z"/>
	</g>
	<circle fill="#FFFFFF" cx="12.528" cy="30.612" r="0.231"/>
	<circle fill="#FFFFFF" cx="20.848" cy="30.612" r="0.232"/>
	<circle fill="#FFFFFF" cx="27.658" cy="30.612" r="0.232"/>
	<circle fill="#FFFFFF" cx="33.133" cy="30.612" r="0.232"/>
	<path fill="#FFFFFF" d="M40.254,30.612c0,0.128-0.105,0.23-0.234,0.23c-0.125,0-0.23-0.103-0.23-0.23
		c0-0.125,0.105-0.228,0.23-0.228C40.148,30.385,40.254,30.487,40.254,30.612z"/>
	<circle fill="#FFFFFF" cx="47.035" cy="30.612" r="0.232"/>
	<polyline fill="none" stroke="#231F20" stroke-width="0.0768" stroke-miterlimit="10" points="7.086,32.619 7.086,28.286 
		8.979,30.917 10.812,28.286 10.812,32.619 	"/>
	
		<ellipse fill="none" stroke="#231F20" stroke-width="0.0768" stroke-miterlimit="10" cx="16.643" cy="30.435" rx="2.18" ry="2.147"/>
	<polyline fill="none" stroke="#231F20" stroke-width="0.0768" stroke-miterlimit="10" points="22.435,32.582 22.435,28.286 
		25.35,32.582 25.35,28.286 	"/>
	
		<line fill="none" stroke="#231F20" stroke-width="0.0768" stroke-miterlimit="10" x1="28.69" y1="28.286" x2="31.863" y2="28.286"/>
	
		<line fill="none" stroke="#231F20" stroke-width="0.0768" stroke-miterlimit="10" x1="30.277" y1="28.286" x2="30.277" y2="32.659"/>
	<g>
		<polyline fill="none" stroke="#231F20" stroke-width="0.0768" stroke-miterlimit="10" points="34.929,32.582 36.772,28.158 
			38.545,32.659 		"/>
		
			<line fill="none" stroke="#231F20" stroke-width="0.0768" stroke-miterlimit="10" x1="35.573" y1="31.035" x2="37.904" y2="31.035"/>
	</g>
	<polyline fill="none" stroke="#231F20" stroke-width="0.0768" stroke-miterlimit="10" points="41.951,32.582 41.951,28.286 
		44.867,32.582 44.867,28.286 	"/>
	<g>
		<g>
			<path fill="#231F20" d="M41.891,32.47c-0.021,0.007-0.045,0.013-0.064,0.019c-0.021,0.005-0.045,0.011-0.066,0.016l-0.139,0.036
				l-0.271,0.071c-0.087,0.026-0.176,0.052-0.266,0.077c-0.088,0.025-0.18,0.054-0.271,0.082c-0.176,0.056-0.354,0.113-0.529,0.171
				c-0.174,0.057-0.352,0.119-0.529,0.184s-0.35,0.134-0.521,0.204c-0.17,0.071-0.338,0.147-0.507,0.227
				c-0.081,0.045-0.167,0.085-0.246,0.128c-0.082,0.042-0.163,0.085-0.241,0.131c-0.072,0.042-0.15,0.089-0.232,0.14
				c-0.039,0.027-0.076,0.054-0.114,0.08c-0.034,0.024-0.071,0.05-0.107,0.077c-0.035,0.027-0.071,0.058-0.106,0.084
				c-0.033,0.026-0.064,0.058-0.095,0.09c-0.062,0.055-0.119,0.12-0.173,0.194c-0.053,0.073-0.088,0.146-0.107,0.214
				c-0.008,0.02-0.012,0.038-0.015,0.057c-0.004,0.021-0.007,0.04-0.012,0.055c-0.006,0.044-0.003,0.082,0.007,0.11
				c0.002,0.018,0.006,0.032,0.012,0.046c0.004,0.016,0.012,0.029,0.022,0.041c0.015,0.028,0.04,0.053,0.073,0.078
				c0.023,0.017,0.055,0.037,0.098,0.059c0.021,0.007,0.041,0.015,0.06,0.019c0.02,0.007,0.04,0.014,0.06,0.021
				c0.042,0.014,0.085,0.021,0.131,0.026c0.044,0.005,0.088,0.011,0.135,0.018c0.046,0.007,0.092,0.011,0.137,0.012
				c0.047,0.002,0.094,0.005,0.139,0.007h0.139c0.023,0,0.046,0,0.068-0.002c0.023-0.001,0.047-0.001,0.07-0.001
				c0.044,0,0.092-0.002,0.139-0.004c0.048-0.001,0.096-0.004,0.141-0.007l0.281-0.021l0.285-0.019l0.281-0.02l0.285-0.015
				c0.096-0.007,0.191-0.012,0.285-0.012c0.097-0.002,0.191,0,0.287,0.008c0.047,0,0.097,0,0.145,0.004
				c0.049,0.003,0.096,0.008,0.146,0.015c0.044,0.008,0.092,0.015,0.143,0.021c0.049,0.009,0.096,0.02,0.142,0.032
				c0.097,0.021,0.19,0.058,0.286,0.102c0.049,0.025,0.092,0.055,0.128,0.087c0.022,0.017,0.044,0.033,0.062,0.051
				c0.018,0.019,0.035,0.036,0.053,0.057c0.039,0.048,0.066,0.095,0.083,0.136c0.013,0.025,0.022,0.05,0.032,0.075
				c0.006,0.023,0.016,0.049,0.021,0.074c0.01,0.049,0.015,0.101,0.015,0.151v0.133c-0.003,0.005-0.005,0.01-0.005,0.018
				c-0.01,0.104-0.037,0.2-0.082,0.29c-0.021,0.047-0.045,0.09-0.07,0.134c-0.025,0.041-0.057,0.083-0.088,0.124
				c-0.031,0.038-0.062,0.076-0.094,0.11c-0.033,0.032-0.068,0.068-0.104,0.104c-0.069,0.067-0.143,0.131-0.223,0.189
				c-0.075,0.059-0.154,0.113-0.232,0.164c-0.081,0.053-0.162,0.101-0.246,0.151c-0.166,0.094-0.337,0.181-0.506,0.262
				c-0.171,0.081-0.344,0.157-0.521,0.228c-0.178,0.074-0.355,0.143-0.533,0.205c-0.092,0.031-0.182,0.063-0.27,0.095
				c-0.089,0.03-0.178,0.061-0.266,0.09l-0.271,0.087l-0.275,0.082c-0.09,0.025-0.18,0.054-0.268,0.077
				c-0.093,0.027-0.185,0.053-0.28,0.078c-0.185,0.054-0.364,0.104-0.547,0.146l-0.275,0.073c-0.045,0.009-0.091,0.019-0.138,0.031
				c-0.046,0.011-0.092,0.023-0.138,0.037l-0.553,0.125l-0.279,0.06l-0.208,0.043l-0.072,0.014
				c-0.047,0.011-0.088,0.002-0.125-0.021c-0.035-0.023-0.057-0.057-0.062-0.1c-0.01-0.045-0.004-0.085,0.02-0.12
				c0.022-0.036,0.057-0.06,0.104-0.068h0.01l0.068-0.011l0.069-0.015l0.138-0.018c0.046-0.012,0.093-0.02,0.139-0.027
				c0.044-0.007,0.091-0.016,0.137-0.021l0.558-0.107l0.274-0.057c0.047-0.012,0.093-0.021,0.138-0.03
				c0.048-0.011,0.093-0.021,0.139-0.034c0.093-0.021,0.183-0.04,0.274-0.062c0.089-0.02,0.18-0.04,0.273-0.065
				c0.091-0.021,0.182-0.044,0.272-0.066c0.089-0.022,0.182-0.047,0.272-0.072c0.047-0.013,0.092-0.026,0.137-0.039
				c0.044-0.014,0.09-0.026,0.135-0.04l0.266-0.076c0.182-0.055,0.358-0.113,0.534-0.173c0.176-0.061,0.353-0.124,0.53-0.19
				c0.17-0.069,0.344-0.144,0.518-0.219c0.085-0.039,0.168-0.077,0.25-0.119s0.165-0.083,0.246-0.13
				c0.083-0.045,0.161-0.093,0.237-0.143c0.074-0.05,0.15-0.103,0.228-0.158c0.035-0.024,0.07-0.053,0.104-0.083
				c0.034-0.027,0.069-0.059,0.105-0.092c0.032-0.029,0.065-0.058,0.093-0.092c0.031-0.032,0.062-0.065,0.09-0.102
				c0.027-0.036,0.052-0.071,0.074-0.108c0.022-0.039,0.044-0.075,0.063-0.114c0.018-0.039,0.03-0.079,0.042-0.116
				c0.012-0.039,0.021-0.08,0.026-0.125c0.003-0.005,0.005-0.011,0.005-0.016v-0.048c0.004-0.016,0.006-0.035,0.006-0.064
				l-0.015-0.121c-0.019-0.08-0.055-0.155-0.104-0.218c-0.047-0.062-0.113-0.114-0.191-0.157c-0.072-0.034-0.155-0.065-0.25-0.091
				c-0.076-0.023-0.166-0.038-0.268-0.049c-0.045-0.005-0.092-0.011-0.138-0.015c-0.044-0.003-0.091-0.004-0.138-0.004
				c-0.096-0.008-0.188-0.01-0.281-0.008c-0.092,0-0.186,0.005-0.279,0.012l-0.281,0.015l-0.28,0.024l-0.28,0.019l-0.281,0.025
				l-0.285,0.019c-0.027,0-0.053,0-0.074,0c-0.023,0-0.046,0.002-0.068,0.005h-0.148c-0.047,0.005-0.094,0.005-0.144,0.003
				c-0.048-0.002-0.099-0.004-0.147-0.008c-0.045-0.006-0.094-0.012-0.144-0.017c-0.049-0.004-0.099-0.015-0.151-0.027
				c-0.049-0.01-0.1-0.022-0.148-0.043c-0.056-0.022-0.105-0.048-0.147-0.078c-0.046-0.027-0.087-0.069-0.123-0.121
				c-0.04-0.054-0.065-0.11-0.074-0.163c-0.017-0.057-0.021-0.113-0.015-0.171c0-0.049,0.009-0.103,0.023-0.161
				c0.015-0.051,0.031-0.1,0.056-0.147c0.022-0.048,0.046-0.092,0.073-0.139c0.029-0.046,0.06-0.089,0.092-0.126
				c0.03-0.038,0.062-0.076,0.096-0.111c0.036-0.034,0.073-0.071,0.108-0.104c0.034-0.035,0.071-0.067,0.108-0.101
				c0.075-0.065,0.152-0.124,0.232-0.181c0.077-0.053,0.158-0.107,0.24-0.158s0.164-0.103,0.246-0.151s0.166-0.094,0.252-0.14
				c0.086-0.047,0.172-0.089,0.258-0.13c0.087-0.04,0.174-0.081,0.259-0.123c0.085-0.039,0.171-0.077,0.259-0.117
				c0.088-0.038,0.174-0.075,0.264-0.111c0.176-0.074,0.354-0.145,0.531-0.21c0.178-0.066,0.355-0.133,0.531-0.196
				c0.093-0.033,0.184-0.064,0.271-0.096c0.088-0.03,0.18-0.061,0.271-0.091c0.047-0.016,0.09-0.03,0.135-0.044
				c0.045-0.015,0.089-0.029,0.136-0.041l0.138-0.045l0.139-0.043c0.062-0.018,0.12-0.01,0.179,0.019
				c0.06,0.029,0.095,0.073,0.112,0.137c0.018,0.062,0.013,0.121-0.016,0.176c-0.03,0.058-0.076,0.095-0.143,0.111
				C41.898,32.469,41.895,32.47,41.891,32.47z"/>
		</g>
		<g>
			<path fill="#231F20" d="M42.434,34.731l0.355-0.058l0.073-0.219c0.013-0.045,0.032-0.095,0.054-0.152
				c0.007-0.023,0.016-0.05,0.025-0.077c0.01-0.023,0.02-0.052,0.029-0.077l0.059-0.149l0.064-0.155l0.043-0.083
				c0.004-0.01,0.014-0.024,0.025-0.044l0.016-0.029l0.023-0.028c0.005-0.003,0.006-0.006,0.006-0.011
				c0.004-0.002,0.008-0.005,0.015-0.01c0.003-0.009,0.014-0.021,0.03-0.027l0.028-0.02l0.05-0.021c0.006,0,0.01-0.001,0.016-0.002
				c0.003-0.002,0.01-0.002,0.023-0.002c0.007-0.004,0.012-0.005,0.015-0.004c0.003,0.002,0.009,0.004,0.015,0.004
				c0.024,0,0.045,0,0.06,0.004l0.059,0.029l0.049,0.044l0.03,0.043l0.015,0.033l0.009,0.051v0.077
				c-0.002,0.007-0.004,0.017-0.004,0.032L43.6,33.937c-0.005,0.016-0.01,0.03-0.012,0.045c-0.001,0.016-0.006,0.027-0.012,0.042
				c-0.008,0.015-0.013,0.028-0.018,0.043c-0.006,0.013-0.01,0.026-0.018,0.039c-0.009,0.024-0.02,0.052-0.029,0.077
				c-0.009,0.027-0.02,0.053-0.034,0.078l-0.069,0.151l-0.068,0.145l-0.014,0.028l4.205-0.684c0.055-0.01,0.107,0.004,0.156,0.035
				c0.047,0.036,0.075,0.079,0.085,0.135c0.009,0.055-0.004,0.105-0.037,0.153c-0.033,0.047-0.08,0.073-0.135,0.083h-0.01
				l-4.399,0.536c-0.016,0.035-0.033,0.068-0.055,0.099c-0.019,0.031-0.037,0.063-0.053,0.096c-0.011,0.024-0.02,0.05-0.027,0.072
				c-0.008,0.021-0.017,0.046-0.021,0.072c-0.037,0.101-0.071,0.2-0.104,0.298c-0.033,0.1-0.064,0.2-0.1,0.305
				c-0.035,0.099-0.069,0.2-0.1,0.302c-0.032,0.099-0.062,0.198-0.092,0.298c-0.018,0.054-0.031,0.104-0.047,0.154
				c-0.016,0.05-0.031,0.1-0.047,0.151l-0.082,0.307l-0.04,0.151c-0.007,0.024-0.013,0.05-0.018,0.078
				c-0.005,0.025-0.012,0.051-0.019,0.077c-0.012,0.052-0.024,0.102-0.035,0.153c-0.014,0.051-0.023,0.102-0.033,0.152
				c-0.01,0.052-0.018,0.104-0.028,0.154c-0.006,0.053-0.015,0.104-0.021,0.154c-0.003,0.026-0.005,0.052-0.007,0.076
				s-0.002,0.05-0.002,0.075c-0.006,0.026-0.006,0.05,0,0.072c0,0.033,0.001,0.057,0.004,0.068c0,0.018,0.002,0.028,0.005,0.035
				c0,0.005,0.003,0.01,0.004,0.011c0.001,0.003,0.001,0.005,0.001,0.008l0.006,0.004c0.01,0,0.016,0,0.019-0.004
				c0.021-0.003,0.04-0.014,0.061-0.029c0.017-0.012,0.034-0.027,0.054-0.041c0.02-0.015,0.037-0.029,0.054-0.046
				c0.021-0.017,0.038-0.034,0.057-0.053c0.019-0.02,0.036-0.04,0.052-0.059c0.062-0.079,0.127-0.16,0.191-0.247
				c0.031-0.044,0.06-0.087,0.09-0.129c0.029-0.045,0.059-0.09,0.088-0.134l0.164-0.271l0.082-0.138l0.074-0.136l0.3-0.562
				l0.138-0.286l0.07-0.146l0.063-0.145c0.011-0.024,0.026-0.038,0.05-0.049c0.021-0.007,0.045-0.005,0.068,0.005
				c0.053,0.021,0.068,0.06,0.045,0.116v0.005l-0.074,0.14l-0.074,0.146l-0.148,0.28c-0.048,0.095-0.098,0.189-0.15,0.284
				c-0.049,0.092-0.102,0.188-0.154,0.28l-0.079,0.141l-0.079,0.142l-0.167,0.27l-0.177,0.273c-0.033,0.045-0.065,0.089-0.096,0.133
				c-0.031,0.043-0.065,0.087-0.101,0.13c-0.016,0.021-0.034,0.041-0.056,0.062c-0.02,0.021-0.038,0.041-0.059,0.063
				c-0.045,0.046-0.09,0.081-0.133,0.111c-0.033,0.018-0.062,0.035-0.089,0.049l-0.054,0.014c-0.008,0-0.014,0.002-0.019,0.005
				c-0.003,0-0.011,0.002-0.017,0.002c-0.002,0-0.008,0-0.016,0s-0.018-0.002-0.023-0.007c-0.006,0-0.014-0.001-0.021-0.004
				s-0.016-0.006-0.022-0.01l-0.034-0.031c-0.023-0.018-0.037-0.035-0.039-0.05c-0.008-0.012-0.012-0.021-0.012-0.03
				c-0.003-0.01-0.006-0.019-0.008-0.024c-0.006-0.021-0.01-0.037-0.01-0.048c-0.008-0.018-0.012-0.031-0.012-0.043
				c0-0.014,0-0.029-0.005-0.044v-0.088c0-0.026,0-0.054,0-0.083s0.003-0.057,0.005-0.083l0.016-0.16
				c0.006-0.025,0.011-0.052,0.014-0.081c0-0.029,0.004-0.058,0.007-0.084l0.049-0.314l0.029-0.161l0.029-0.154
				c0.022-0.108,0.044-0.212,0.064-0.318c0.019-0.104,0.042-0.21,0.068-0.313c0.013-0.055,0.026-0.109,0.037-0.166
				c0.013-0.057,0.026-0.114,0.042-0.169c-0.02-0.006-0.035-0.012-0.045-0.019c-0.035-0.025-0.047-0.061-0.034-0.102v-0.006
				l0.06-0.146l0.029-0.077l0.03-0.072l0.122-0.291l0.055-0.132l0.02-0.062c0.007-0.028,0.015-0.059,0.021-0.085
				c0.009-0.027,0.019-0.055,0.027-0.085l-0.254,0.03c-0.031,0.006-0.057,0-0.078-0.02c-0.021-0.017-0.033-0.04-0.037-0.068
				c-0.006-0.026,0-0.051,0.018-0.072C42.385,34.751,42.408,34.738,42.434,34.731z M43.527,33.922h-0.006v0.005
				C43.521,33.924,43.524,33.922,43.527,33.922z"/>
		</g>
		<g>
			<path fill="#231F20" d="M44.143,35.945l-0.014,0.028l-0.016,0.024c-0.004,0.02-0.012,0.037-0.025,0.052
				c-0.006,0.021-0.014,0.041-0.021,0.061c-0.01,0.021-0.017,0.036-0.027,0.053l-0.044,0.11l-0.044,0.116
				c-0.025,0.075-0.053,0.15-0.08,0.227c-0.025,0.076-0.051,0.154-0.074,0.23l-0.058,0.229l-0.026,0.116l-0.018,0.116l-0.016,0.116
				v0.106c0,0.008,0.002,0.014,0.002,0.025c0.002,0.01,0.002,0.018,0.002,0.023c0.004,0.008,0.006,0.014,0.006,0.021
				c0,0.005,0.002,0.01,0.006,0.016h0.004c0.004,0,0.006,0,0.008-0.004c0.001-0.002,0.004-0.002,0.006-0.002l0.041-0.021
				c0.02-0.01,0.045-0.029,0.078-0.059l0.074-0.081c0.013-0.018,0.025-0.032,0.037-0.047c0.01-0.016,0.022-0.03,0.031-0.046
				c0.023-0.032,0.045-0.065,0.066-0.094c0.022-0.033,0.043-0.065,0.062-0.101l0.113-0.209c0.072-0.15,0.136-0.301,0.191-0.441
				c0.018-0.036,0.03-0.073,0.041-0.111c0.014-0.039,0.025-0.078,0.037-0.117c0.008-0.017,0.014-0.034,0.021-0.052
				c0.006-0.02,0.012-0.041,0.02-0.059l0.015-0.06V36.11l0.01-0.023v-0.016c0.003-0.003,0.005-0.01,0.005-0.015
				c0.012-0.057,0.041-0.098,0.088-0.127c0.046-0.029,0.098-0.036,0.152-0.024c0.047,0.011,0.083,0.032,0.11,0.066
				c0.029,0.031,0.045,0.073,0.048,0.119l0.005,0.066c-0.004,0.003-0.005,0.007-0.005,0.011l-0.006,0.009l-0.004,0.024l-0.006,0.011
				h0.006l-0.009,0.02v0.01l-0.026,0.087l-0.014,0.087c-0.008,0.017-0.012,0.031-0.012,0.043c-0.004,0.014-0.005,0.028-0.009,0.044
				c-0.021,0.11-0.034,0.227-0.043,0.345c-0.004,0.03-0.006,0.058-0.006,0.087s0,0.058,0,0.083l0.009,0.078
				c0,0.015,0.003,0.029,0.006,0.038c0,0.016,0.002,0.021,0.005,0.025h0.005c0.013-0.008,0.033-0.02,0.059-0.04l0.06-0.058
				l0.055-0.063c0.009-0.01,0.02-0.021,0.026-0.032c0.01-0.011,0.018-0.023,0.029-0.034l0.052-0.069
				c0.008-0.014,0.015-0.025,0.022-0.036c0.01-0.011,0.018-0.022,0.027-0.036c0.017-0.026,0.031-0.052,0.047-0.074
				c0.016-0.026,0.031-0.051,0.047-0.077l0.044-0.077l0.045-0.074l0.088-0.158l0.079-0.155l0.08-0.166
				c0.005-0.012,0.011-0.025,0.016-0.038c0.005-0.014,0.012-0.026,0.018-0.039l0.016-0.042l0.02-0.04
				c0.01-0.03,0.029-0.048,0.057-0.061s0.055-0.015,0.08-0.002c0.025,0.009,0.047,0.027,0.059,0.054
				c0.014,0.028,0.016,0.056,0.006,0.082l-0.009,0.014l-0.178,0.32l-0.09,0.155l-0.088,0.16c-0.017,0.023-0.034,0.049-0.05,0.077
				l-0.045,0.078c-0.015,0.026-0.033,0.052-0.049,0.078c-0.016,0.025-0.031,0.051-0.049,0.077l-0.104,0.149
				c-0.016,0.027-0.033,0.053-0.054,0.077c-0.019,0.022-0.038,0.048-0.06,0.074l-0.068,0.074L45,37.288
				c-0.014,0.013-0.03,0.025-0.051,0.032l-0.059,0.03c-0.019,0.008-0.033,0.011-0.039,0.011h-0.055
				c-0.01-0.003-0.02-0.006-0.031-0.011c-0.012-0.001-0.021-0.006-0.026-0.015l-0.04-0.028c-0.011-0.013-0.017-0.023-0.023-0.035
				c-0.004-0.009-0.01-0.017-0.016-0.028c-0.014-0.024-0.021-0.046-0.024-0.058l-0.015-0.048c-0.004-0.018-0.006-0.034-0.008-0.05
				c-0.002-0.02-0.006-0.036-0.012-0.054c-0.008-0.031-0.012-0.062-0.013-0.094c-0.003-0.031-0.004-0.061-0.008-0.09l-0.138,0.224
				l-0.139,0.213c-0.046,0.068-0.096,0.136-0.148,0.205c-0.025,0.034-0.053,0.068-0.08,0.1c-0.027,0.029-0.06,0.062-0.096,0.095
				c-0.017,0.015-0.035,0.03-0.055,0.046c-0.02,0.014-0.041,0.027-0.064,0.04c-0.013,0.007-0.024,0.014-0.035,0.017
				c-0.012,0.006-0.023,0.011-0.038,0.018c-0.02,0.006-0.034,0.01-0.045,0.01c-0.006,0.003-0.014,0.006-0.024,0.006
				c-0.002,0-0.006,0.001-0.01,0.003H43.67c-0.006,0-0.012-0.001-0.018-0.002c-0.004-0.001-0.01-0.001-0.018-0.001
				c-0.032-0.013-0.056-0.026-0.069-0.034c-0.019-0.015-0.033-0.028-0.044-0.044l-0.024-0.049c-0.005-0.018-0.012-0.03-0.015-0.042
				c-0.002-0.011-0.006-0.023-0.01-0.036l-0.01-0.074v-0.135l0.01-0.125l0.034-0.254l0.046-0.241l0.103-0.485l0.074-0.364
				l0.014-0.059l0.011-0.063c0.014-0.055,0.042-0.098,0.089-0.129c0.045-0.028,0.097-0.04,0.152-0.031
				c0.056,0.015,0.1,0.044,0.13,0.088c0.031,0.047,0.043,0.097,0.031,0.151L44.143,35.945z"/>
		</g>
		<g>
			<path fill="#231F20" d="M46.551,34.95c0.027-0.064,0.051-0.13,0.074-0.195c0.022-0.063,0.045-0.128,0.068-0.193l0.068-0.194
				c0.01-0.036,0.021-0.069,0.033-0.1c0.012-0.03,0.021-0.062,0.031-0.094c0.023-0.065,0.045-0.129,0.066-0.196
				c0.021-0.067,0.042-0.134,0.062-0.201l0.06-0.195l0.029-0.101v-0.005l0.025-0.085l0.004-0.008l0.006-0.01
				c0.018-0.055,0.055-0.094,0.105-0.117c0.051-0.022,0.105-0.022,0.16,0c0.057,0.019,0.095,0.055,0.117,0.102
				c0.023,0.048,0.027,0.1,0.011,0.151l-0.044,0.136l-0.045,0.141l-0.089,0.275c-0.025,0.095-0.054,0.188-0.083,0.279
				c-0.031,0.094-0.059,0.186-0.083,0.281c-0.058,0.184-0.111,0.367-0.163,0.555c-0.053,0.187-0.103,0.373-0.148,0.561
				c-0.025,0.093-0.051,0.187-0.074,0.281c-0.023,0.094-0.045,0.188-0.068,0.281c-0.046,0.192-0.086,0.38-0.119,0.567
				c-0.019,0.094-0.037,0.187-0.051,0.282c-0.015,0.094-0.029,0.187-0.041,0.281c-0.008,0.049-0.012,0.096-0.017,0.143
				c-0.003,0.047-0.004,0.094-0.004,0.137c-0.003,0.009-0.005,0.02-0.005,0.036l0.034-0.044c0.029-0.043,0.06-0.085,0.087-0.127
				c0.027-0.041,0.055-0.084,0.081-0.13c0.056-0.083,0.111-0.172,0.165-0.258c0.053-0.088,0.107-0.176,0.16-0.263l0.314-0.534
				l0.305-0.538c0.014-0.022,0.031-0.035,0.055-0.043c0.022-0.006,0.047-0.003,0.069,0.009c0.023,0.014,0.038,0.032,0.046,0.056
				c0.005,0.021,0.002,0.044-0.012,0.066c-0.049,0.09-0.098,0.181-0.146,0.27c-0.05,0.09-0.102,0.178-0.154,0.27
				c-0.053,0.091-0.104,0.181-0.154,0.27c-0.051,0.088-0.105,0.179-0.159,0.269c-0.054,0.091-0.106,0.18-0.161,0.268
				c-0.055,0.087-0.109,0.173-0.165,0.26c-0.028,0.045-0.054,0.091-0.083,0.132c-0.03,0.042-0.06,0.086-0.09,0.132
				c-0.016,0.022-0.033,0.045-0.046,0.065c-0.015,0.021-0.032,0.04-0.047,0.061c-0.03,0.042-0.063,0.085-0.099,0.127
				c-0.017,0.021-0.038,0.034-0.064,0.035c-0.025,0.001-0.049-0.005-0.068-0.021c-0.017-0.013-0.029-0.031-0.035-0.055
				c-0.007-0.024-0.011-0.052-0.016-0.076c-0.002-0.027-0.006-0.054-0.01-0.08c-0.003-0.025-0.005-0.051-0.005-0.075
				c-0.003-0.027-0.003-0.052-0.003-0.08c0-0.051,0-0.1,0-0.149c0-0.048,0.003-0.099,0.008-0.15
				c0.008-0.096,0.016-0.196,0.025-0.292c0.012-0.1,0.022-0.198,0.04-0.296c0.013-0.096,0.028-0.194,0.045-0.29
				c0.015-0.097,0.032-0.192,0.048-0.287c0.018-0.096,0.035-0.191,0.055-0.289c0.02-0.095,0.04-0.189,0.059-0.287
				c0-0.015,0.002-0.022,0.004-0.029c-0.016,0.025-0.029,0.054-0.039,0.083c-0.014,0.028-0.025,0.056-0.038,0.081
				c-0.06,0.127-0.12,0.252-0.183,0.377c-0.062,0.124-0.127,0.248-0.191,0.371l-0.104,0.185l-0.104,0.184
				c-0.035,0.059-0.074,0.118-0.112,0.178c-0.04,0.06-0.083,0.116-0.13,0.173l-0.072,0.081c-0.018,0.017-0.032,0.031-0.044,0.042
				c-0.015,0.013-0.028,0.022-0.046,0.037l-0.05,0.039l-0.054,0.027c-0.016,0.007-0.037,0.014-0.062,0.021l-0.041,0.01
				c-0.006,0-0.015-0.001-0.023-0.004c-0.01-0.001-0.018-0.001-0.025-0.001c-0.012-0.003-0.029-0.012-0.049-0.025
				c-0.01-0.006-0.019-0.013-0.022-0.018c-0.005-0.008-0.01-0.014-0.017-0.021c-0.008-0.008-0.014-0.021-0.02-0.042l-0.01-0.034
				c-0.004-0.016-0.007-0.036-0.007-0.063c0-0.029,0.003-0.049,0.007-0.062c0.002-0.069,0.016-0.139,0.039-0.215
				c0.006-0.035,0.017-0.07,0.027-0.105c0.011-0.032,0.021-0.067,0.031-0.104l0.074-0.197c0.026-0.064,0.053-0.13,0.08-0.195
				c0.028-0.062,0.059-0.127,0.092-0.194c0.016-0.031,0.032-0.063,0.047-0.095c0.014-0.029,0.031-0.06,0.047-0.093
				c0.016-0.036,0.034-0.07,0.054-0.102c0.021-0.029,0.041-0.061,0.058-0.095c0.012-0.014,0.021-0.03,0.031-0.044
				c0.01-0.016,0.022-0.029,0.034-0.047l0.074-0.098c0.017-0.016,0.032-0.03,0.048-0.045c0.018-0.015,0.037-0.03,0.061-0.047
				c0.014-0.006,0.025-0.015,0.04-0.022c0.013-0.007,0.026-0.015,0.044-0.022l0.055-0.013c0.006-0.002,0.018-0.005,0.034-0.005
				h0.029c0.045-0.004,0.085,0.008,0.12,0.033c0.036,0.025,0.06,0.062,0.078,0.103c0.045-0.118,0.091-0.233,0.139-0.349
				C46.463,35.188,46.508,35.07,46.551,34.95z M46.054,35.888h0.005c0.002,0,0.004-0.004,0.004-0.007c0.004,0,0.006,0,0.006-0.003
				h-0.01l-0.029,0.013l-0.035,0.02l-0.069,0.054l-0.063,0.067c-0.023,0.025-0.045,0.051-0.067,0.074
				c-0.021,0.027-0.042,0.049-0.062,0.077l-0.113,0.165c-0.035,0.059-0.07,0.116-0.103,0.175c-0.034,0.062-0.064,0.122-0.095,0.185
				c-0.015,0.028-0.03,0.059-0.043,0.088c-0.014,0.034-0.026,0.064-0.04,0.095c-0.013,0.034-0.024,0.064-0.033,0.096
				c-0.011,0.03-0.021,0.062-0.03,0.094l-0.025,0.098l-0.015,0.093v0.081l0.012,0.021h0.009l0.035-0.015l0.033-0.021l0.034-0.028
				c0.024-0.013,0.047-0.035,0.069-0.063c0.014-0.011,0.024-0.024,0.033-0.036c0.01-0.011,0.021-0.024,0.031-0.036l0.118-0.165
				c0.032-0.053,0.066-0.11,0.104-0.176l0.103-0.179c0.016-0.028,0.032-0.059,0.049-0.089c0.014-0.03,0.029-0.062,0.045-0.091
				c0.046-0.101,0.093-0.199,0.139-0.297c0.045-0.101,0.092-0.2,0.139-0.303c-0.014,0.005-0.025,0.011-0.038,0.015
				c-0.011,0.002-0.026,0.003-0.042,0.003C46.092,35.895,46.072,35.894,46.054,35.888z"/>
		</g>
		<g>
			<path fill="#231F20" d="M47.904,35.939c-0.006,0.009-0.011,0.02-0.012,0.029c-0.002,0.009-0.005,0.018-0.011,0.024l-0.021,0.057
				l-0.046,0.118L47.734,36.4c-0.027,0.078-0.053,0.155-0.076,0.233c-0.021,0.076-0.043,0.156-0.063,0.235l-0.061,0.235
				c-0.005,0.044-0.012,0.082-0.019,0.122c-0.006,0.037-0.011,0.077-0.015,0.115l-0.01,0.094l0.014-0.016
				c0.026-0.028,0.054-0.059,0.079-0.089c0.027-0.032,0.055-0.064,0.079-0.102c0.026-0.032,0.054-0.064,0.077-0.097
				c0.025-0.03,0.049-0.064,0.075-0.098l0.148-0.199l0.148-0.198l0.29-0.406c0.045-0.068,0.092-0.137,0.139-0.204
				c0.044-0.068,0.092-0.138,0.138-0.21c0.017-0.024,0.038-0.04,0.065-0.045c0.029-0.006,0.055,0,0.082,0.018
				c0.025,0.016,0.043,0.036,0.051,0.066c0.005,0.026,0,0.054-0.016,0.078c0,0.003-0.003,0.005-0.003,0.005
				c-0.001,0-0.003,0.002-0.003,0.006c-0.053,0.062-0.104,0.129-0.152,0.195c-0.051,0.067-0.098,0.133-0.147,0.201L48.26,36.74
				l-0.296,0.408l-0.148,0.197l-0.152,0.198L47.619,37.6c-0.013,0.021-0.027,0.039-0.045,0.048
				c-0.002,0.007-0.011,0.017-0.023,0.028l-0.012,0.012l-0.013,0.009l-0.011,0.005l-0.004,0.007h-0.007l-0.004,0.001h-0.01
				c0,0.005-0.003,0.006-0.009,0.006h-0.015c-0.012,0.003-0.015,0.004-0.013,0.003c0.001-0.001,0-0.003-0.003-0.003h-0.011
				c-0.008,0-0.024-0.002-0.044-0.007c-0.009-0.006-0.019-0.01-0.025-0.012c-0.005-0.004-0.013-0.009-0.019-0.016
				c-0.02-0.019-0.035-0.037-0.045-0.058c-0.006-0.014-0.013-0.029-0.02-0.049c-0.006-0.019-0.01-0.031-0.01-0.037
				c-0.002-0.019-0.005-0.029-0.006-0.042c-0.003-0.012-0.004-0.024-0.004-0.038c-0.002-0.042-0.002-0.086,0-0.137
				c0-0.02,0.001-0.043,0.004-0.063c0.001-0.02,0.004-0.04,0.006-0.061c0-0.023,0.002-0.045,0.002-0.066
				c0.002-0.021,0.004-0.041,0.008-0.064l0.02-0.127l0.015-0.122l0.089-0.498l0.089-0.495c0.011-0.058,0.038-0.104,0.09-0.136
				c0.048-0.034,0.101-0.045,0.157-0.034c0.056,0.01,0.102,0.039,0.135,0.088c0.035,0.049,0.045,0.101,0.032,0.155
				C47.915,35.905,47.912,35.921,47.904,35.939z M47.855,34.541l0.029-0.271c0.008-0.06,0.033-0.105,0.079-0.142
				c0.047-0.039,0.098-0.054,0.157-0.048c0.057,0.007,0.104,0.031,0.142,0.079c0.038,0.044,0.054,0.094,0.046,0.154
				c-0.007,0.025-0.013,0.046-0.02,0.062l-0.117,0.252c-0.021,0.043-0.052,0.07-0.096,0.085c-0.042,0.015-0.084,0.014-0.127-0.007
				c-0.033-0.016-0.059-0.038-0.076-0.067S47.85,34.578,47.855,34.541z"/>
		</g>
		<g>
			<path fill="#231F20" d="M49.388,36.57l0.029,0.034c0.013,0.015,0.022,0.021,0.028,0.022c0.014,0.009,0.023,0.011,0.031,0.011
				c0.013,0.007,0.027,0.007,0.045,0c0.006,0,0.021-0.002,0.048-0.011l0.054-0.022c0.01-0.011,0.029-0.021,0.056-0.034l0.05-0.042
				c0.068-0.059,0.133-0.128,0.191-0.206c0.025-0.035,0.051-0.073,0.078-0.11c0.026-0.039,0.053-0.079,0.079-0.121
				c0.026-0.044,0.052-0.084,0.073-0.127c0.024-0.042,0.045-0.086,0.064-0.132c0.014-0.025,0.033-0.044,0.062-0.055
				s0.057-0.011,0.085,0.002c0.027,0.014,0.046,0.033,0.058,0.064c0.012,0.029,0.012,0.055-0.002,0.08
				c0,0.006-0.001,0.006-0.001,0.009c-0.004,0.002-0.004,0.005-0.004,0.007c-0.057,0.084-0.11,0.166-0.164,0.251
				c-0.051,0.087-0.111,0.171-0.176,0.253c-0.031,0.039-0.062,0.079-0.097,0.12s-0.071,0.079-0.11,0.115l-0.064,0.052
				c-0.01,0.01-0.02,0.018-0.032,0.028c-0.011,0.007-0.023,0.015-0.035,0.02l-0.081,0.043c-0.02,0.015-0.048,0.025-0.086,0.035
				c-0.02,0.003-0.037,0.006-0.053,0.008c-0.019,0.002-0.037,0.002-0.057,0.002c-0.04-0.007-0.077-0.015-0.109-0.03
				c-0.032-0.007-0.059-0.021-0.079-0.037c-0.005,0.005-0.01,0.012-0.01,0.018c-0.042,0.093-0.087,0.173-0.133,0.244
				c-0.048,0.078-0.104,0.152-0.167,0.224c-0.016,0.017-0.033,0.031-0.053,0.051c-0.018,0.017-0.037,0.036-0.061,0.05
				c-0.02,0.017-0.041,0.03-0.064,0.045c-0.021,0.012-0.047,0.023-0.074,0.033c-0.028,0.013-0.058,0.021-0.084,0.023
				c-0.008,0.004-0.024,0.007-0.045,0.007h-0.044c-0.034,0-0.065-0.007-0.094-0.02c-0.015-0.009-0.031-0.013-0.045-0.021
				c-0.015-0.007-0.028-0.016-0.042-0.029c-0.014-0.012-0.025-0.025-0.037-0.037c-0.01-0.01-0.021-0.023-0.027-0.041L48.25,37.27
				c-0.008-0.026-0.012-0.052-0.014-0.078c-0.006-0.026-0.008-0.051-0.012-0.077c0-0.025,0-0.051,0-0.073
				c0-0.023,0.004-0.047,0.006-0.073c0.004-0.026,0.006-0.05,0.01-0.07c0.002-0.02,0.008-0.043,0.014-0.066
				c0.008-0.044,0.016-0.09,0.027-0.131c0.012-0.045,0.025-0.089,0.037-0.135c0.018-0.043,0.032-0.083,0.047-0.127
				c0.016-0.04,0.03-0.083,0.047-0.126c0.018-0.04,0.033-0.083,0.053-0.123c0.017-0.041,0.038-0.084,0.061-0.123l0.03-0.06
				l0.033-0.062c0.014-0.021,0.026-0.04,0.034-0.058c0.012-0.021,0.023-0.04,0.041-0.059c0.014-0.023,0.025-0.044,0.039-0.063
				c0.014-0.021,0.026-0.04,0.043-0.06l0.047-0.058l0.059-0.054l0.062-0.06c0.021-0.012,0.048-0.029,0.086-0.051
				c0.033-0.021,0.072-0.032,0.111-0.034c0.016-0.003,0.041-0.007,0.074-0.007c0.018,0,0.029,0.004,0.04,0.007h0.02l0.004,0.006
				h0.01c0.057,0.007,0.1,0.036,0.132,0.079c0.031,0.047,0.041,0.097,0.031,0.152c0,0.005,0,0.005-0.002,0.005
				c-0.003,0-0.003,0.001-0.003,0.005l0.028,0.044c0.014,0.031,0.023,0.064,0.031,0.097c0.002,0.017,0.005,0.031,0.007,0.046
				c0.001,0.015,0.003,0.03,0.003,0.046c0.003,0.017,0.005,0.03,0.005,0.042c0,0.01,0,0.024,0,0.041l-0.015,0.15l-0.031,0.141
				c-0.006,0.023-0.012,0.044-0.018,0.066c-0.008,0.02-0.014,0.043-0.021,0.064c-0.007,0.02-0.013,0.038-0.017,0.058
				c-0.006,0.02-0.012,0.037-0.018,0.055L49.388,36.57z M48.992,35.924c-0.016,0.014-0.028,0.026-0.041,0.04
				c-0.01,0.014-0.025,0.027-0.041,0.043L48.836,36.1c-0.007,0.011-0.014,0.02-0.017,0.026c-0.006,0.009-0.011,0.017-0.019,0.022
				l-0.034,0.053c-0.022,0.036-0.046,0.071-0.065,0.107c-0.021,0.035-0.041,0.07-0.057,0.106c-0.037,0.067-0.071,0.143-0.104,0.229
				l-0.04,0.115c-0.007,0.02-0.013,0.04-0.019,0.058c-0.004,0.02-0.008,0.04-0.011,0.061c-0.007,0.019-0.012,0.039-0.016,0.057
				c-0.003,0.02-0.006,0.039-0.011,0.06c-0.002,0.018-0.005,0.037-0.005,0.058s0,0.038,0,0.054c0,0.02,0.003,0.036,0.005,0.054
				c0,0.015,0.002,0.031,0.007,0.047c0.006,0.021,0.013,0.034,0.02,0.039l0.015,0.025c0.014,0.006,0.021,0.01,0.025,0.01
				l0.033,0.009h0.025c0.003,0,0.006,0,0.008-0.002c0-0.001,0.005-0.002,0.011-0.002c0.007,0,0.021-0.003,0.04-0.012
				c0.028-0.012,0.057-0.029,0.084-0.053l0.084-0.077c0.046-0.054,0.09-0.12,0.133-0.198c0.035-0.071,0.07-0.146,0.1-0.222
				c0.008-0.026,0.02-0.057,0.031-0.085c0.01-0.033,0.021-0.065,0.025-0.098c-0.005-0.025-0.012-0.049-0.02-0.076
				c-0.006-0.025-0.012-0.054-0.018-0.082c-0.008-0.026-0.012-0.054-0.016-0.081s-0.009-0.054-0.015-0.081
				c0-0.015,0-0.029-0.003-0.043c-0.002-0.013-0.002-0.024-0.002-0.039s0-0.027,0-0.041c0-0.01-0.002-0.024-0.006-0.04v-0.083
				c0.004-0.01,0.006-0.021,0.006-0.034s0-0.025,0-0.039L48.992,35.924z M49.081,35.924h0.005l-0.005-0.003V35.924z"/>
		</g>
	</g>
	<g>
		<path fill="#FFFFFF" d="M41.871,31.85c-0.058-0.028-0.117-0.036-0.18-0.02l-0.139,0.042l-0.139,0.045
			c-0.045,0.014-0.09,0.027-0.135,0.042c-0.044,0.015-0.089,0.029-0.135,0.046c-0.092,0.029-0.182,0.06-0.271,0.09
			c-0.088,0.032-0.179,0.062-0.271,0.095c-0.179,0.065-0.355,0.13-0.532,0.197c-0.177,0.064-0.354,0.136-0.532,0.211
			c-0.09,0.035-0.176,0.072-0.264,0.11c-0.086,0.041-0.173,0.077-0.258,0.117c-0.086,0.041-0.172,0.082-0.258,0.124
			c-0.088,0.041-0.175,0.083-0.26,0.13c-0.086,0.044-0.168,0.091-0.25,0.14c-0.083,0.049-0.166,0.099-0.248,0.149
			c-0.081,0.052-0.162,0.105-0.24,0.161c-0.079,0.053-0.156,0.114-0.232,0.179c-0.035,0.033-0.072,0.065-0.107,0.1
			c-0.036,0.034-0.072,0.069-0.108,0.104c-0.032,0.037-0.065,0.075-0.097,0.112c-0.031,0.039-0.061,0.08-0.09,0.127
			c-0.027,0.045-0.053,0.09-0.074,0.138c-0.023,0.047-0.041,0.097-0.055,0.148c-0.016,0.058-0.024,0.112-0.024,0.16
			c-0.007,0.059-0.002,0.114,0.015,0.17c0.01,0.054,0.035,0.109,0.074,0.165c0.035,0.05,0.076,0.092,0.123,0.121
			c0.042,0.027,0.091,0.053,0.146,0.078c0.05,0.019,0.1,0.033,0.148,0.043c0.053,0.012,0.104,0.022,0.152,0.027
			c0.05,0.003,0.098,0.01,0.144,0.017c0.048,0.004,0.099,0.006,0.147,0.007c0.049,0.002,0.097,0.002,0.143-0.002h0.148
			c0.023-0.004,0.045-0.005,0.068-0.005c0.021,0,0.049,0,0.074,0l0.285-0.02l0.28-0.024l0.281-0.02l0.28-0.023l0.281-0.015
			c0.094-0.007,0.189-0.011,0.281-0.013c0.092-0.003,0.185,0,0.281,0.007c0.045,0,0.092,0.001,0.137,0.006
			c0.045,0.002,0.092,0.008,0.139,0.015c0.102,0.009,0.19,0.023,0.267,0.047c0.095,0.026,0.177,0.058,0.251,0.093
			c0.078,0.042,0.143,0.093,0.191,0.155c0.05,0.066,0.084,0.139,0.102,0.218l0.016,0.122c0,0.029-0.001,0.051-0.005,0.063v0.049
			c0,0.006-0.001,0.011-0.005,0.016c-0.006,0.044-0.014,0.087-0.026,0.124c-0.013,0.039-0.026,0.078-0.043,0.117
			c-0.019,0.038-0.04,0.077-0.063,0.113c-0.022,0.037-0.046,0.074-0.072,0.109c-0.03,0.035-0.061,0.07-0.09,0.101
			c-0.029,0.034-0.062,0.064-0.094,0.094c-0.035,0.032-0.072,0.063-0.105,0.092c-0.035,0.028-0.07,0.057-0.105,0.082
			c-0.076,0.056-0.151,0.107-0.227,0.157c-0.077,0.051-0.154,0.099-0.236,0.145s-0.166,0.088-0.246,0.128
			c-0.084,0.041-0.167,0.082-0.253,0.119c-0.173,0.077-0.346,0.15-0.516,0.219c-0.179,0.066-0.354,0.131-0.53,0.19
			c-0.176,0.062-0.354,0.119-0.534,0.173l-0.267,0.077c-0.045,0.014-0.09,0.027-0.135,0.041c-0.045,0.012-0.09,0.025-0.135,0.037
			c-0.093,0.026-0.184,0.051-0.274,0.072c-0.089,0.022-0.181,0.045-0.272,0.069c-0.092,0.023-0.184,0.045-0.273,0.064
			c-0.091,0.022-0.182,0.042-0.273,0.061c-0.047,0.013-0.094,0.026-0.138,0.034c-0.047,0.009-0.092,0.019-0.138,0.03l-0.275,0.059
			l-0.559,0.106c-0.045,0.005-0.09,0.014-0.137,0.022c-0.047,0.007-0.092,0.015-0.139,0.025l-0.137,0.019l-0.069,0.016l-0.069,0.011
			H34.98c-0.047,0.009-0.082,0.031-0.105,0.066s-0.029,0.075-0.02,0.122c0.007,0.042,0.027,0.074,0.064,0.099
			c0.035,0.024,0.076,0.031,0.122,0.022l0.075-0.015l0.207-0.044l0.279-0.059l0.553-0.126c0.045-0.014,0.092-0.023,0.137-0.036
			c0.047-0.012,0.093-0.021,0.139-0.03l0.277-0.075c0.18-0.04,0.361-0.089,0.545-0.145c0.096-0.026,0.188-0.053,0.279-0.076
			c0.09-0.027,0.18-0.055,0.268-0.077l0.275-0.086l0.272-0.087c0.088-0.028,0.177-0.057,0.265-0.089
			c0.09-0.031,0.179-0.062,0.271-0.094c0.176-0.062,0.354-0.131,0.53-0.205c0.179-0.071,0.352-0.146,0.522-0.229
			c0.172-0.08,0.341-0.168,0.508-0.262c0.082-0.047,0.163-0.098,0.244-0.149c0.081-0.053,0.156-0.106,0.232-0.166
			c0.081-0.058,0.154-0.121,0.223-0.189c0.035-0.034,0.07-0.069,0.104-0.103c0.033-0.034,0.064-0.072,0.094-0.111
			c0.031-0.042,0.062-0.082,0.088-0.124c0.027-0.043,0.051-0.087,0.069-0.131c0.048-0.092,0.075-0.188,0.084-0.292
			c0-0.007,0.001-0.013,0.006-0.018v-0.135c0-0.051-0.006-0.102-0.015-0.15c-0.008-0.024-0.016-0.049-0.023-0.073
			c-0.008-0.025-0.02-0.049-0.032-0.074c-0.017-0.043-0.044-0.088-0.083-0.138c-0.018-0.019-0.033-0.038-0.053-0.055
			c-0.018-0.019-0.038-0.035-0.061-0.051c-0.035-0.034-0.078-0.063-0.128-0.087c-0.097-0.047-0.19-0.079-0.287-0.103
			c-0.044-0.015-0.093-0.022-0.142-0.031c-0.051-0.009-0.097-0.017-0.143-0.023c-0.049-0.007-0.098-0.01-0.146-0.013
			c-0.048-0.005-0.097-0.006-0.146-0.006c-0.096-0.007-0.189-0.01-0.285-0.007c-0.096,0.002-0.191,0.006-0.286,0.013l-0.286,0.013
			l-0.28,0.021l-0.285,0.018l-0.28,0.021c-0.047,0.003-0.094,0.005-0.141,0.007c-0.048,0.003-0.095,0.003-0.14,0.003
			c-0.024,0-0.047,0.001-0.07,0.001c-0.022,0.002-0.046,0.005-0.069,0.005h-0.138c-0.046-0.005-0.091-0.006-0.138-0.009
			c-0.045-0.002-0.092-0.006-0.137-0.012c-0.047-0.008-0.093-0.012-0.138-0.017c-0.043-0.006-0.087-0.015-0.13-0.026
			c-0.02-0.007-0.039-0.014-0.059-0.021c-0.02-0.006-0.039-0.014-0.059-0.02c-0.045-0.022-0.077-0.043-0.099-0.059
			c-0.032-0.026-0.058-0.052-0.075-0.077c-0.01-0.014-0.016-0.026-0.021-0.04c-0.004-0.015-0.008-0.031-0.012-0.046
			c-0.01-0.03-0.012-0.067-0.006-0.113c0.004-0.015,0.007-0.032,0.01-0.053c0.004-0.021,0.009-0.039,0.016-0.059
			c0.021-0.066,0.057-0.139,0.107-0.212c0.054-0.076,0.111-0.141,0.174-0.194c0.027-0.034,0.06-0.063,0.096-0.091
			c0.033-0.027,0.07-0.057,0.105-0.085c0.037-0.027,0.072-0.052,0.108-0.079c0.036-0.024,0.074-0.051,0.114-0.076
			c0.08-0.051,0.158-0.099,0.23-0.142c0.078-0.046,0.159-0.088,0.242-0.13c0.081-0.043,0.163-0.085,0.246-0.128
			c0.167-0.08,0.337-0.155,0.506-0.226c0.172-0.073,0.346-0.141,0.523-0.205c0.177-0.065,0.353-0.125,0.528-0.183
			c0.176-0.061,0.353-0.116,0.53-0.172c0.092-0.03,0.182-0.056,0.271-0.081c0.089-0.027,0.178-0.053,0.265-0.078l0.271-0.072
			l0.138-0.035c0.023-0.007,0.046-0.012,0.067-0.017s0.044-0.012,0.066-0.019c0.004,0,0.006-0.001,0.01-0.002
			c0.065-0.018,0.113-0.054,0.145-0.11c0.028-0.057,0.033-0.116,0.014-0.177C41.965,31.924,41.929,31.879,41.871,31.85z"/>
		<path fill="#FFFFFF" d="M47.871,34.514c0.043,0.02,0.086,0.021,0.129,0.007c0.042-0.015,0.074-0.041,0.094-0.084l0.118-0.254
			c0.005-0.015,0.013-0.036,0.019-0.062c0.008-0.059-0.009-0.112-0.047-0.156c-0.037-0.044-0.084-0.07-0.14-0.077
			c-0.06-0.007-0.111,0.009-0.156,0.047c-0.047,0.037-0.073,0.084-0.08,0.144l-0.029,0.271c-0.006,0.036-0.001,0.067,0.017,0.098
			C47.814,34.476,47.838,34.497,47.871,34.514z"/>
		<path fill="#FFFFFF" d="M50.342,35.65c-0.012-0.03-0.029-0.051-0.057-0.064c-0.029-0.013-0.059-0.013-0.086-0.002
			s-0.049,0.029-0.062,0.057c-0.019,0.042-0.04,0.088-0.064,0.131c-0.022,0.041-0.046,0.083-0.072,0.125
			c-0.026,0.041-0.053,0.084-0.08,0.121c-0.025,0.039-0.051,0.077-0.078,0.113c-0.059,0.075-0.123,0.145-0.191,0.203L49.6,36.376
			c-0.025,0.014-0.043,0.025-0.053,0.036l-0.055,0.022c-0.027,0.008-0.042,0.009-0.049,0.009c-0.017,0.009-0.031,0.009-0.045,0
			c-0.006,0-0.017-0.001-0.029-0.009c-0.006-0.001-0.017-0.01-0.029-0.022l-0.029-0.036l-0.016-0.023
			c0.007-0.018,0.012-0.034,0.018-0.054c0.006-0.018,0.01-0.039,0.017-0.058c0.008-0.022,0.015-0.044,0.021-0.065
			c0.005-0.021,0.013-0.043,0.019-0.065l0.029-0.142l0.015-0.149c0-0.017,0-0.029,0-0.042c0-0.011-0.001-0.025-0.005-0.041
			c0-0.017-0.001-0.032-0.002-0.046c-0.002-0.016-0.005-0.03-0.008-0.047c-0.006-0.031-0.017-0.064-0.029-0.096l-0.029-0.045
			c0-0.003,0-0.004,0.002-0.004s0.002-0.002,0.002-0.007c0.01-0.052,0-0.103-0.031-0.148c-0.032-0.047-0.074-0.073-0.131-0.082
			h-0.01l-0.006-0.007h-0.019c-0.009-0.001-0.022-0.005-0.04-0.005c-0.031,0-0.057,0.004-0.074,0.005
			c-0.038,0.004-0.076,0.016-0.113,0.035c-0.035,0.022-0.062,0.041-0.084,0.054l-0.062,0.056l-0.06,0.057l-0.044,0.058
			c-0.018,0.019-0.031,0.037-0.044,0.057c-0.014,0.02-0.026,0.042-0.04,0.064c-0.016,0.019-0.029,0.037-0.041,0.058
			c-0.008,0.021-0.02,0.039-0.032,0.059l-0.024,0.043c-0.008,0.013-0.017,0.027-0.026,0.04c-0.044,0.066-0.091,0.135-0.137,0.202
			l-0.291,0.407l-0.146,0.2l-0.147,0.199c-0.027,0.032-0.053,0.064-0.078,0.097c-0.023,0.033-0.049,0.064-0.076,0.098
			c-0.026,0.036-0.052,0.067-0.078,0.1c-0.025,0.03-0.053,0.06-0.08,0.09l-0.014,0.014l0.01-0.092
			c0.004-0.039,0.01-0.077,0.015-0.116c0.007-0.039,0.013-0.079,0.019-0.122l0.059-0.231c0.021-0.081,0.043-0.161,0.064-0.238
			c0.025-0.079,0.049-0.156,0.075-0.234l0.085-0.232l0.043-0.116l0.021-0.058c0.006-0.007,0.011-0.013,0.011-0.025
			c0.004-0.009,0.007-0.019,0.014-0.029c0.008-0.02,0.01-0.032,0.01-0.043c0.012-0.054,0.002-0.107-0.033-0.154
			c-0.032-0.049-0.08-0.079-0.135-0.087c-0.057-0.01-0.107,0-0.156,0.031c-0.053,0.035-0.08,0.078-0.09,0.137l-0.047,0.259
			l-0.177,0.31l-0.313,0.535c-0.053,0.086-0.105,0.174-0.16,0.261c-0.054,0.089-0.108,0.174-0.164,0.256
			c-0.026,0.047-0.055,0.091-0.081,0.132c-0.028,0.043-0.058,0.084-0.088,0.127l-0.034,0.043c0-0.017,0.002-0.028,0.006-0.034
			c0-0.045,0.002-0.092,0.004-0.138c0.003-0.046,0.009-0.094,0.017-0.142c0.013-0.097,0.026-0.188,0.04-0.283
			c0.015-0.095,0.033-0.188,0.053-0.282c0.033-0.187,0.072-0.375,0.117-0.567c0.023-0.092,0.046-0.188,0.07-0.281
			c0.022-0.094,0.047-0.188,0.074-0.28c0.045-0.188,0.094-0.375,0.146-0.562c0.052-0.188,0.107-0.371,0.162-0.556
			c0.024-0.088,0.053-0.178,0.08-0.264l0.385-0.046h0.009c0.056-0.011,0.101-0.038,0.136-0.086c0.033-0.048,0.047-0.098,0.037-0.153
			c-0.01-0.055-0.04-0.098-0.086-0.132c-0.048-0.034-0.1-0.046-0.156-0.037l-0.195,0.033l0.049-0.149l0.043-0.142l0.045-0.135
			c0.017-0.052,0.013-0.103-0.01-0.15c-0.023-0.049-0.062-0.083-0.117-0.103c-0.059-0.023-0.111-0.023-0.162,0
			C47.055,33.085,47.02,33.124,47,33.18l-0.006,0.01L46.99,33.2l-0.025,0.081v0.005l-0.029,0.102l-0.061,0.193
			c-0.018,0.069-0.04,0.136-0.061,0.202c-0.003,0.011-0.006,0.021-0.01,0.03l-3.557,0.578l0.015-0.028l0.069-0.146l0.068-0.15
			c0.014-0.025,0.025-0.051,0.033-0.077c0.012-0.024,0.021-0.053,0.031-0.078c0.006-0.011,0.012-0.025,0.018-0.038
			c0.004-0.014,0.01-0.028,0.016-0.043c0.007-0.013,0.012-0.028,0.012-0.043c0.004-0.014,0.006-0.028,0.014-0.044l0.016-0.053
			c0-0.02,0.002-0.028,0.004-0.034v-0.08l-0.01-0.047l-0.015-0.035l-0.03-0.044l-0.049-0.045l-0.059-0.026
			c-0.018-0.004-0.037-0.005-0.059-0.005c-0.008,0-0.012-0.001-0.016-0.005c-0.003-0.001-0.008,0-0.014,0.005
			c-0.015,0-0.022,0.001-0.024,0.002c-0.005,0.002-0.009,0.003-0.017,0.003l-0.049,0.02l-0.029,0.019
			c-0.016,0.009-0.026,0.019-0.029,0.028c-0.008,0.004-0.011,0.008-0.014,0.011c-0.002,0.004-0.004,0.007-0.007,0.009L43.1,33.494
			l-0.016,0.031c-0.012,0.017-0.021,0.03-0.023,0.042l-0.043,0.083l-0.066,0.154l-0.057,0.149c-0.012,0.027-0.021,0.054-0.031,0.08
			c-0.01,0.024-0.018,0.052-0.025,0.077c-0.021,0.056-0.039,0.105-0.054,0.149l-0.073,0.22l-0.355,0.057
			c-0.025,0.009-0.047,0.021-0.065,0.044c-0.017,0.02-0.024,0.042-0.017,0.068c0.002,0.028,0.016,0.053,0.037,0.07
			c0.021,0.019,0.045,0.023,0.076,0.017l0.254-0.028c-0.01,0.028-0.018,0.057-0.025,0.085c-0.009,0.027-0.017,0.056-0.023,0.084
			l-0.02,0.063l-0.053,0.131l-0.124,0.292l-0.029,0.072l-0.029,0.078l-0.06,0.144v0.007c-0.014,0.042-0.002,0.076,0.035,0.102
			c0.01,0.007,0.024,0.012,0.043,0.021c-0.016,0.052-0.029,0.109-0.041,0.165c-0.012,0.058-0.024,0.113-0.037,0.168
			c-0.025,0.104-0.05,0.207-0.068,0.313c-0.021,0.104-0.043,0.21-0.064,0.316l-0.03,0.156l-0.03,0.16l-0.048,0.314
			c-0.003,0.026-0.006,0.055-0.007,0.084c-0.002,0.028-0.006,0.057-0.014,0.079l-0.014,0.164c-0.004,0.025-0.005,0.052-0.005,0.081
			c0,0.028,0,0.057,0,0.083v0.088c0.003,0.016,0.005,0.028,0.005,0.043c0,0.013,0.002,0.026,0.01,0.045
			c0,0.011,0.003,0.027,0.01,0.048c0.004,0.005,0.006,0.014,0.008,0.022c0.001,0.011,0.006,0.021,0.012,0.029
			c0.003,0.017,0.017,0.035,0.039,0.053l0.034,0.03c0.007,0.004,0.015,0.007,0.022,0.01c0.008,0.002,0.016,0.005,0.022,0.005
			c0.007,0.005,0.015,0.005,0.021,0.005c0.009,0,0.015,0,0.019,0c0.006,0,0.013,0,0.016-0.001c0.006-0.003,0.012-0.004,0.018-0.004
			l0.055-0.015c0.027-0.014,0.056-0.03,0.09-0.048c0.041-0.029,0.086-0.067,0.132-0.112c0.02-0.022,0.039-0.044,0.058-0.062
			c0.021-0.021,0.04-0.04,0.056-0.063c0.036-0.041,0.069-0.086,0.101-0.128c0.032-0.045,0.063-0.089,0.098-0.136l0.175-0.271
			l0.169-0.271l0.078-0.142l0.08-0.14c0.052-0.095,0.104-0.187,0.154-0.281c0.001-0.002,0.004-0.004,0.004-0.007l-0.006,0.026
			l-0.045,0.241l-0.033,0.254l-0.01,0.126v0.135l0.01,0.073c0.002,0.014,0.005,0.025,0.009,0.036
			c0.003,0.011,0.009,0.025,0.015,0.042l0.025,0.048c0.01,0.016,0.023,0.031,0.043,0.044c0.014,0.01,0.037,0.021,0.069,0.034
			c0.007,0,0.013,0,0.017,0.001c0.006,0.003,0.012,0.003,0.018,0.003h0.04c0.003-0.003,0.007-0.004,0.011-0.004
			c0.008,0,0.018-0.001,0.023-0.005c0.012,0,0.025-0.004,0.045-0.009c0.014-0.008,0.025-0.013,0.036-0.02
			c0.012-0.003,0.024-0.009,0.037-0.016c0.023-0.014,0.045-0.027,0.064-0.042c0.02-0.013,0.038-0.03,0.056-0.045
			c0.033-0.032,0.066-0.063,0.096-0.095c0.027-0.031,0.055-0.063,0.08-0.1c0.052-0.069,0.101-0.137,0.147-0.204l0.138-0.214
			l0.139-0.225c0.002,0.03,0.006,0.061,0.007,0.092c0.003,0.03,0.006,0.062,0.013,0.095c0.006,0.017,0.012,0.034,0.013,0.052
			s0.003,0.035,0.006,0.05l0.015,0.049c0.006,0.013,0.012,0.033,0.026,0.059c0.006,0.01,0.011,0.02,0.017,0.03
			c0.004,0.009,0.012,0.021,0.021,0.033l0.039,0.027c0.008,0.008,0.016,0.013,0.027,0.016c0.014,0.003,0.023,0.005,0.032,0.011
			h0.054c0.008,0,0.021-0.006,0.041-0.011l0.058-0.028c0.021-0.011,0.035-0.021,0.05-0.035l0.041-0.033l0.049-0.056
			c-0.002,0.02-0.005,0.038-0.006,0.056C45.003,37.073,45,37.095,45,37.124c0,0.026,0.003,0.047,0.006,0.063l0.01,0.034
			c0.007,0.019,0.012,0.034,0.02,0.042c0.007,0.007,0.014,0.014,0.018,0.021c0.004,0.006,0.012,0.011,0.021,0.019
			c0.02,0.012,0.036,0.021,0.05,0.024c0.007,0,0.016,0.001,0.024,0.003c0.01,0.002,0.019,0.002,0.023,0.002l0.039-0.009
			c0.027-0.009,0.049-0.014,0.066-0.021l0.054-0.029l0.05-0.037c0.016-0.015,0.031-0.025,0.043-0.039
			c0.015-0.009,0.028-0.023,0.045-0.04l0.074-0.082c0.045-0.055,0.089-0.113,0.128-0.173c0.038-0.061,0.078-0.119,0.112-0.178
			l0.104-0.186l0.103-0.183c0.065-0.123,0.131-0.246,0.191-0.371c0.062-0.126,0.124-0.25,0.184-0.378
			c0.013-0.024,0.024-0.051,0.036-0.08c0.011-0.029,0.026-0.057,0.041-0.083c-0.002,0.006-0.003,0.016-0.003,0.029
			c-0.02,0.096-0.041,0.193-0.061,0.288c-0.02,0.096-0.037,0.191-0.053,0.288c-0.017,0.096-0.034,0.19-0.049,0.286
			c-0.018,0.098-0.033,0.194-0.046,0.293c-0.017,0.096-0.028,0.194-0.039,0.294c-0.011,0.098-0.017,0.195-0.024,0.293
			c-0.006,0.052-0.01,0.101-0.01,0.15c0,0.048,0,0.098,0,0.149c0,0.027,0,0.052,0.004,0.078c0,0.025,0.002,0.05,0.006,0.079
			c0.004,0.024,0.008,0.05,0.01,0.076c0.004,0.024,0.008,0.053,0.015,0.076c0.007,0.024,0.019,0.042,0.034,0.055
			c0.02,0.016,0.043,0.023,0.069,0.022c0.026-0.002,0.048-0.015,0.063-0.036c0.037-0.043,0.068-0.085,0.1-0.128
			c0.016-0.02,0.031-0.038,0.047-0.059c0.014-0.022,0.03-0.044,0.045-0.065c0.031-0.047,0.061-0.09,0.09-0.133
			c0.029-0.041,0.057-0.084,0.084-0.131c0.057-0.088,0.11-0.175,0.164-0.261c0.055-0.089,0.109-0.179,0.16-0.267
			c0.057-0.092,0.11-0.181,0.16-0.27c0.023-0.041,0.049-0.083,0.072-0.123l-0.035,0.192l-0.015,0.121l-0.02,0.128
			c-0.003,0.021-0.007,0.044-0.009,0.064c0,0.021-0.003,0.041-0.003,0.064c-0.001,0.021-0.004,0.04-0.005,0.062
			c0,0.021-0.004,0.044-0.004,0.066c-0.003,0.047-0.003,0.093,0,0.134c0,0.014,0.004,0.027,0.004,0.037
			c0.001,0.013,0.004,0.026,0.005,0.042c0,0.007,0.005,0.02,0.012,0.038s0.014,0.034,0.02,0.05c0.01,0.02,0.024,0.038,0.046,0.059
			c0.004,0.006,0.012,0.011,0.019,0.014c0.007,0.002,0.015,0.005,0.025,0.01c0.02,0.006,0.033,0.009,0.044,0.009h0.01
			c0.004,0,0.004,0,0.002,0.004c-0.001,0,0.002,0,0.012-0.004h0.016c0.007,0,0.01,0,0.01-0.005h0.01l0.004-0.004h0.006l0.005-0.005
			l0.011-0.005l0.012-0.01l0.012-0.011c0.014-0.013,0.021-0.021,0.025-0.027c0.016-0.011,0.031-0.026,0.043-0.05l0.045-0.054
			l0.154-0.198l0.147-0.199l0.294-0.407l0.02-0.025c-0.012,0.038-0.018,0.077-0.023,0.117c-0.006,0.022-0.012,0.045-0.016,0.065
			c-0.004,0.021-0.006,0.044-0.01,0.07c-0.003,0.027-0.004,0.051-0.004,0.073c0,0.021,0,0.047,0,0.073
			c0.001,0.025,0.004,0.052,0.01,0.076c0.002,0.026,0.008,0.054,0.014,0.079l0.04,0.077c0.005,0.018,0.017,0.03,0.026,0.041
			c0.013,0.011,0.024,0.023,0.038,0.035c0.013,0.014,0.025,0.025,0.041,0.031c0.015,0.008,0.032,0.012,0.047,0.019
			c0.027,0.012,0.058,0.02,0.093,0.02h0.046c0.019,0,0.034-0.003,0.042-0.004c0.028-0.004,0.057-0.013,0.086-0.025
			c0.025-0.009,0.05-0.021,0.072-0.032c0.024-0.015,0.045-0.029,0.064-0.046c0.023-0.016,0.044-0.033,0.062-0.051
			c0.018-0.017,0.035-0.033,0.052-0.05c0.062-0.072,0.118-0.146,0.167-0.225c0.046-0.071,0.09-0.151,0.133-0.242
			c0-0.005,0.004-0.013,0.009-0.019c0.021,0.017,0.048,0.028,0.078,0.038c0.034,0.013,0.071,0.022,0.11,0.028
			c0.02,0,0.038,0,0.057-0.001c0.019-0.002,0.035-0.005,0.053-0.007c0.039-0.012,0.068-0.021,0.088-0.034l0.078-0.045
			c0.014-0.005,0.025-0.013,0.037-0.021c0.012-0.008,0.021-0.017,0.032-0.027l0.063-0.052c0.039-0.036,0.076-0.074,0.111-0.114
			c0.033-0.042,0.065-0.081,0.097-0.121c0.063-0.081,0.124-0.167,0.177-0.251c0.051-0.084,0.106-0.168,0.162-0.253
			c0-0.003,0-0.004,0.003-0.005c0.001-0.004,0.002-0.005,0.002-0.009C50.354,35.706,50.354,35.678,50.342,35.65z M43.445,33.729
			 M45.971,35.981c-0.045,0.099-0.092,0.198-0.139,0.3c-0.015,0.027-0.03,0.058-0.045,0.089c-0.016,0.03-0.032,0.061-0.048,0.088
			l-0.103,0.181c-0.036,0.065-0.072,0.123-0.104,0.176l-0.118,0.164c-0.01,0.013-0.021,0.024-0.03,0.037
			c-0.009,0.011-0.021,0.022-0.033,0.036c-0.023,0.03-0.046,0.051-0.069,0.063l-0.034,0.027l-0.037,0.02l-0.035-0.05l0.014-0.163
			c0.009-0.032,0.061-0.206,0.072-0.234c0.021-0.054,0.07-0.16,0.084-0.184l0.165-0.315c0,0,0.184-0.337,0.291-0.409
			c0,0,0.259-0.109,0.271-0.114c0.011-0.002,0.022-0.01,0.035-0.015C46.062,35.781,46.016,35.883,45.971,35.981z M46.34,35.11
			c-0.045,0.116-0.092,0.233-0.137,0.351c-0.018-0.043-0.041-0.077-0.078-0.103c-0.033-0.025-0.074-0.038-0.12-0.035h-0.03
			c-0.016,0-0.026,0.003-0.033,0.005l-0.054,0.016c-0.017,0.005-0.031,0.013-0.044,0.022c-0.014,0.007-0.026,0.013-0.039,0.021
			c-0.025,0.017-0.045,0.031-0.061,0.046s-0.032,0.03-0.05,0.047l-0.073,0.096c-0.014,0.02-0.024,0.032-0.034,0.047
			c-0.009,0.014-0.019,0.03-0.03,0.046c-0.019,0.033-0.039,0.063-0.059,0.095s-0.038,0.066-0.055,0.101
			c-0.016,0.031-0.031,0.062-0.045,0.094c-0.018,0.031-0.032,0.063-0.047,0.094c-0.033,0.066-0.064,0.13-0.092,0.194
			c-0.029,0.067-0.056,0.131-0.082,0.195l-0.033,0.093c-0.014,0.02-0.026,0.041-0.04,0.062c-0.011,0.012-0.019,0.024-0.027,0.036
			c-0.007,0.012-0.016,0.023-0.022,0.037l-0.053,0.067c-0.01,0.012-0.021,0.025-0.027,0.037c-0.01,0.01-0.019,0.02-0.027,0.03
			l-0.055,0.062l-0.06,0.059c-0.025,0.02-0.046,0.033-0.06,0.039H44.77c-0.004-0.003-0.004-0.011-0.004-0.024
			c-0.004-0.009-0.006-0.022-0.006-0.038l-0.01-0.077c0-0.025,0-0.054,0-0.084s0.001-0.059,0.004-0.088
			c0.012-0.118,0.025-0.232,0.045-0.344c0.004-0.017,0.006-0.031,0.007-0.043c0.003-0.014,0.007-0.028,0.015-0.045l0.013-0.086
			l0.026-0.088v-0.011l0.009-0.019h-0.005l0.005-0.011l0.004-0.022l0.006-0.011c0-0.002,0.001-0.007,0.005-0.01l-0.005-0.067
			c-0.004-0.045-0.019-0.086-0.048-0.119c-0.027-0.033-0.064-0.055-0.11-0.064c-0.056-0.014-0.106-0.005-0.152,0.023
			c-0.046,0.029-0.075,0.07-0.089,0.127c0,0.006-0.002,0.011-0.005,0.015v0.016l-0.01,0.022v0.005l-0.015,0.06
			c-0.007,0.018-0.014,0.037-0.02,0.056c-0.007,0.021-0.014,0.038-0.021,0.055c-0.012,0.04-0.024,0.077-0.036,0.115
			c-0.012,0.039-0.025,0.077-0.042,0.112c-0.056,0.144-0.12,0.289-0.192,0.442l-0.111,0.207c-0.021,0.036-0.041,0.07-0.063,0.101
			c-0.021,0.03-0.043,0.062-0.065,0.094c-0.01,0.017-0.021,0.032-0.033,0.046c-0.012,0.016-0.024,0.031-0.036,0.048l-0.073,0.084
			c-0.033,0.027-0.061,0.046-0.078,0.057l-0.041,0.019c-0.003,0-0.006,0-0.006,0.002c-0.003,0.003-0.005,0.003-0.01,0.003h-0.004
			c-0.002-0.005-0.006-0.008-0.006-0.015s-0.001-0.013-0.005-0.02c0-0.007,0-0.015-0.001-0.023
			c-0.001-0.011-0.003-0.018-0.003-0.022v-0.11l0.015-0.114l0.02-0.118l0.024-0.116l0.06-0.229c0.022-0.076,0.047-0.152,0.072-0.229
			c0.027-0.076,0.055-0.151,0.08-0.227l0.045-0.117l0.043-0.111c0.012-0.016,0.02-0.034,0.027-0.053
			c0.009-0.02,0.017-0.038,0.023-0.059c0.012-0.016,0.021-0.034,0.023-0.052l0.016-0.026l0.014-0.028l0.016-0.049
			c0.01-0.054-0.002-0.104-0.031-0.151c-0.031-0.045-0.074-0.073-0.131-0.086c-0.057-0.009-0.107,0.001-0.152,0.031
			c-0.047,0.031-0.076,0.072-0.088,0.128l-0.012,0.063l-0.016,0.058l-0.049,0.248l-0.113,0.233l-0.299,0.562l-0.075,0.136
			l-0.084,0.137l-0.162,0.271c-0.03,0.045-0.059,0.09-0.088,0.132c-0.03,0.045-0.06,0.088-0.091,0.13
			c-0.064,0.086-0.127,0.17-0.19,0.247c-0.017,0.021-0.033,0.039-0.052,0.06c-0.019,0.017-0.037,0.036-0.057,0.053
			c-0.016,0.016-0.035,0.031-0.054,0.046c-0.02,0.015-0.038,0.028-0.056,0.041c-0.019,0.017-0.039,0.026-0.059,0.029
			c-0.004,0.004-0.01,0.005-0.02,0.005l-0.004-0.005c0-0.003-0.002-0.007-0.002-0.008c-0.002,0-0.004-0.005-0.004-0.012
			c-0.004-0.007-0.005-0.018-0.005-0.033c-0.003-0.014-0.005-0.037-0.005-0.067c-0.007-0.023-0.007-0.047,0-0.073
			c0-0.026,0-0.053,0.002-0.076c0.003-0.023,0.004-0.049,0.008-0.075c0.008-0.052,0.016-0.104,0.021-0.156
			c0.009-0.051,0.018-0.103,0.027-0.154c0.01-0.05,0.021-0.102,0.033-0.152c0.012-0.05,0.023-0.102,0.037-0.153
			c0.005-0.025,0.011-0.051,0.016-0.077c0.006-0.026,0.012-0.054,0.019-0.078l0.04-0.15l0.082-0.307
			c0.016-0.051,0.033-0.103,0.049-0.152c0.014-0.049,0.029-0.101,0.045-0.152c0.029-0.101,0.061-0.2,0.092-0.299
			c0.031-0.102,0.064-0.201,0.101-0.304c0.034-0.103,0.065-0.203,0.099-0.303c0.033-0.099,0.068-0.198,0.104-0.299
			c0.007-0.024,0.013-0.05,0.022-0.072c0.007-0.022,0.016-0.045,0.026-0.071c0.018-0.034,0.034-0.065,0.055-0.095
			c0.02-0.03,0.037-0.065,0.054-0.101l3.556-0.433l-0.053,0.152c-0.023,0.064-0.047,0.128-0.07,0.193
			c-0.023,0.064-0.047,0.131-0.074,0.195C46.43,34.876,46.387,34.995,46.34,35.11z M48.981,36.443
			c-0.011,0.029-0.021,0.059-0.031,0.086c-0.03,0.076-0.063,0.151-0.099,0.221c-0.043,0.079-0.087,0.145-0.133,0.199l-0.082,0.078
			c-0.027,0.023-0.056,0.041-0.085,0.055c-0.02,0.005-0.034,0.009-0.039,0.009c-0.007,0-0.011,0.001-0.013,0.001
			c-0.002,0.003-0.004,0.003-0.008,0.003h-0.023l-0.035-0.011c-0.004,0-0.012-0.001-0.024-0.008l-0.017-0.024
			c-0.006-0.007-0.012-0.02-0.018-0.04c-0.004-0.016-0.006-0.033-0.008-0.048c-0.002-0.016-0.003-0.033-0.003-0.054
			c0-0.016,0-0.033,0-0.053c0-0.021,0.001-0.039,0.005-0.059s0.007-0.038,0.01-0.059c0.004-0.018,0.008-0.039,0.014-0.059
			c0.006-0.018,0.008-0.038,0.014-0.058c0.004-0.019,0.012-0.039,0.019-0.058l0.037-0.115c0.034-0.087,0.067-0.162,0.104-0.23
			c0.017-0.035,0.035-0.071,0.057-0.105c0.021-0.035,0.043-0.071,0.066-0.108l0.035-0.053c0.005-0.006,0.01-0.013,0.017-0.021
			c0.004-0.009,0.011-0.017,0.017-0.027l0.074-0.092c0.016-0.016,0.03-0.03,0.042-0.042c0.011-0.014,0.026-0.026,0.042-0.04
			l0.02-0.023c0,0.012,0,0.025,0,0.037c0,0.014-0.002,0.026-0.004,0.034v0.084c0.002,0.016,0.004,0.03,0.004,0.041
			c0,0.012,0,0.025,0,0.042c0,0.013,0,0.025,0.003,0.038s0.003,0.028,0.003,0.043c0.005,0.025,0.01,0.053,0.014,0.078
			c0.004,0.029,0.009,0.057,0.015,0.083c0.007,0.029,0.015,0.056,0.02,0.081c0.007,0.027,0.016,0.053,0.021,0.078
			C49.005,36.379,48.992,36.412,48.981,36.443z"/>
	</g>
	<g>
		<polyline fill="none" stroke="#231F20" stroke-width="0.0768" stroke-miterlimit="10" points="48.23,32.606 50.075,28.186 
			51.846,32.684 		"/>
		
			<line fill="none" stroke="#231F20" stroke-width="0.0768" stroke-miterlimit="10" x1="48.877" y1="31.061" x2="51.207" y2="31.061"/>
	</g>
</g>
</svg>
